<?xml version="1.0" encoding="UTF-8"?>
<svg id="Calque_1" data-name="Calque 1" xmlns="http://www.w3.org/2000/svg" viewBox="0 0 1280 1280">
  <defs>
    <style>
      .cls-1 {
        fill: #3a7155;
      }

      .cls-1, .cls-2, .cls-3, .cls-4, .cls-5 {
        stroke-width: 0px;
      }

      .cls-2 {
        fill: #f4f3f4;
      }

      .cls-3 {
        fill: #fff;
      }

      .cls-4 {
        fill: #5a4a99;
      }

      .cls-5 {
        fill: #d85a1b;
      }

      .cls-6 {
        fill: #1d1d1b;
        stroke: #5a4a99;
        stroke-miterlimit: 10;
        stroke-width: 11px;
      }
    </style>
  </defs>
  <g>
    <g>
      <path class="cls-1" d="m798.5,469.87c-1.59-1.37-3.78-.56-5.65-.53-4.26.53-8.81-.45-12.79,1.57-.82-.44-1.63-.89-2.44-1.32-1-1.69-1.92-3.41-2.87-5.12-1.28-2.28-2.25-4.87-4.4-6.5-.83-.52-1.61-1.12-2.29-1.82-2.2-1.98-4.04-4.34-6.34-6.21-.96-.42-1.96-.76-2.85-1.3-1.14-1.74-1.92-3.71-3.15-5.41-1.87-2.64-2.9-5.76-4.82-8.35-.94-1.32-2.55-1.93-3.57-3.16-.36-1.71-.28-3.48-.24-5.21.26-2.39-.17-4.77-.94-7.04-.68-1.64-1.48-3.24-2.46-4.72l-.32-.47h0c-.24-.39-.47-.77-.7-1.15-.79-1.75-2.33-2.9-3.58-4.27-.68-1.73-.98-3.58-1.57-5.33-.57-1.07-1.23-2.09-1.85-3.13h0c-1-2.07-1.79-4.23-2.85-6.27-.17-.32-.52-.96-.69-1.28l-.16,1.17h0s.16-1.17.16-1.17c-.4-2.89-.14-5.83.93-8.54,1.51-5.18,1.53-11.74-2.47-15.8-2.21.58-4.56,1.09-6.8.38-2.62-.79-5.39-1.41-8.13-.85-.54.34-1.06.7-1.58,1.06-1.84,1.5-4.11,0-6.09-.36-3.56-1.36-7.43-.68-11.1-1.52-2.96-.59-5.71-1.9-8.32-3.37-.57-.48-1.13-.94-1.7-1.4-.16-.09-.49-.26-.65-.35-.19-.1-.55-.3-.73-.39-.93-.09-1.87-.15-2.81-.16.94.01,1.88.07,2.81.16-4.35-2.46-9.68-.6-13.96,1.21-2.65.81-2.05,4.04-3.24,6.01-.61,1.46-1.21,2.92-1.82,4.39-2.12-.17-4.06-1.07-5.38-2.76l-.47-.24c-2.01-1.21-4.28-2.04-6.65-2.02-3.16-.11-6.92-.84-8.72-3.73-.82-1.09-1.66-2.17-2.58-3.17-.17-.08-.5-.23-.67-.31-1.22-.68-2.33-1.9-3.84-1.76-2.11.13-4.28.41-6.26-.55-.44-.15-.87-.3-1.3-.46-1.47-.57-2.85-1.3-4.2-2.11,1.03-2.85,1.59-5.85,2.64-8.7,1.26-3.64,1.14-7.64.11-11.32-.24-.11-.73-.34-.98-.46-3.32-.41-6.68-.26-9.98.28-4.36.5-8.77.13-13.12-.34-2.42-.27-4.49,1.24-6.68,1.98-4.62,1.74-9.62.73-14.4,1.39-1.02.49-2.03,1.01-3.01,1.57-4.95,3.96-11.54,2.87-17.31,4.33-1.39.24-2.78.54-4.19.66-.74.57-1.47,1.14-2.21,1.72.17.3.51.89.68,1.18l.41.02c16.72.72,33.45-.45,50.18-.22,1.44.51,2.99.14,4.48.17,3.98-.2,7.96.17,11.94.3-.88,1.46-1.72,2.95-2.19,4.6-14.72-.69-29.45-.3-44.18-.33-9.73.17-19.47.52-29.21.08.05-.14.13-.42.18-.56.59-.41,1.19-.82,1.78-1.22.71-.61,1.39-1.28,2.06-1.93,1.47-1.92,4.09-2.41,5.43-4.41.36-.49.73-.96,1.12-1.43.71-.87,1.45-1.73,2.12-2.63l-.23-.69c-1.11-.46-2.32-1.1-3.55-.68-1.69.97-3.03,2.45-4.3,3.91-1.14,1.3-2.25,2.65-3.59,3.76-2.69,2.47-5.77,4.45-9.03,6.09-.44.2-1.32.63-1.76.84-1.8,1.94-2.92,4.37-4.44,6.52-2.09,3.27-1.49,7.58-4.06,10.62-.56.77-1.29,1.39-2.03,1.98-.65.36-1.3.73-1.95,1.1-2.71,1.82-6.43,2.21-8.39,5.02-1.73,2.52-4.42,4.16-6.99,5.72-.59.6-1.21,1.19-1.76,1.84-2.02,2.83-3.5,6.05-5.94,8.58-.09.11-.26.35-.34.46-.31.42-.93,1.24-1.23,1.66-2.48,3.12-5.22,6.01-7.77,9.07-2.9,2.29-2.22,6.48-1.71,9.69.93,3.77,1.59,7.66,1,11.55-.51,5.06-.67,10.27-2.54,15.06-.09.11-.27.32-.36.44-.85,1.08-1.68,2.18-2.55,3.25-.06.13-.18.36-.24.48-1.76,2.89-1.03,6.53.2,9.48.59,1.72,1.89,3.56.73,5.35-1.27,2.01.26,3.9,1.76,5.21,4.3,2.8,8.23,6.29,10.87,10.76,1.21,2.1,2.22,4.31,3.41,6.42.54,1.41.94,2.86,1.33,4.32,1.47,1.28,3.04,2.43,4.63,3.55,1.89,1.41,3.85,2.72,5.79,4.05.2.22.62.68.83.91.36.27,1.06.81,1.42,1.08.17.13.5.38.66.51,3.05,2.95,7.61,4.72,11.76,3.13,6.36-2.26,13.47-3.84,20.02-1.34,3.99,1.57,8.21-.11,11.76-1.99.66-.36,1.32-.73,1.98-1.08.63-.33,1.26-.65,1.89-.98,1.96-1.09,3.93-2.21,6.01-3.06,1.03-.42,2.13-.62,3.22-.85,3.4.23,7.38-.43,10.09,2.15.48-1.26.89-2.55,1.49-3.77.69-.45,1.39-.87,2.11-1.29l-.34-.06c-1.31.05-2.63.03-3.92-.22-.69-.11-1.39-.22-2.07-.34-4.84-1.41-9.65.6-14.52.44-17.17-.04-34.36-.07-51.53.05-1.26,0-2.52-.05-3.77-.22-1.33-.71-2.58-1.57-3.79-2.46-.36-.67-.67-1.36-.9-2.08,30.29.19,60.58.2,90.86.09.63-.03,1.88-.07,2.51-.09l.08-.25c.05-1.03.03-2.06.03-3.07-.18,0-.54.03-.71.03-31.34.03-62.68,0-94.03,0-.67-1.56-1.47-3.07-2.5-4.41l.19-.2c11.28.15,22.55,0,33.83-.02,15.42.11,30.84.17,46.26,0,5.63-.1,11.28.2,16.9-.18h.44c-.13-1.06.26-2.05.82-2.92l-1.61-.34c-32.98.21-65.96.11-98.94.09-1.06-1.84-2.42-3.5-4.27-4.59l.82-.13c12.43.3,24.87.11,37.31.1.59,0,1.2,0,1.8,0,21.82.05,43.65.15,65.47-.11-.14-.28-.42-.85-.56-1.13.01-.85.07-1.69.15-2.52-10.94.16-21.89.06-32.83.36-25.32-.44-50.64.02-75.97-.15-1.46-.97-2.64-2.45-2.39-4.31,37.08-.31,74.17-.19,111.25-.3-.1-1.2-.14-2.39-.14-3.58-3.95-.12-7.9-.04-11.85.07-33.12,0-66.24-.05-99.36.19-.46-1.58-1.05-3.12-1.85-4.55,3.4.26,6.8.04,10.2,0,8.54-.12,17.07.01,25.61-.08,5.79-.36,11.58-.09,17.38-.15,19.72-.07,39.44.15,59.16-.11.07-1.16.15-2.32.33-3.46-22.69.22-45.38,0-68.06.14-14.82.18-29.64-.09-44.45.4.59-.63,1.18-1.26,1.74-1.91.69-.89,1.29-1.84,1.86-2.8,36.51-.4,73.02-.19,109.53-.32-.06-.24-.19-.71-.24-.95.22-.78.44-1.57.65-2.34-36.32.05-72.65-.25-108.97.19.5-1.54.83-3.13,1.14-4.7,34.64-.22,69.29-.16,103.93-.07,1.56-.05,3.11-.15,4.67-.23l.26.07c.19-1.18.47-2.35.89-3.47l-.59.27c-36.25-.11-72.5-.03-108.76-.03l-.11-.28c.1-1.45.21-2.9.32-4.35,34.96,0,69.91.06,104.87.05,1.89,0,3.79-.07,5.67-.29h.44c.03-1.04.52-1.98.91-2.91l-.15-.13h-.48c-19.47-.15-38.94.03-58.4-.1-.82.03-1.64.03-2.45.04-16.67.03-33.35,0-50.02,0-.02-1.57-.12-3.15-.34-4.7,37.13.15,74.25.09,111.38.08,1.11-.09,2.43.19,3.32-.67.35-.59.67-1.2,1.02-1.78.27-.09.8-.29,1.07-.39-.34-.12-1.02-.36-1.35-.48-38.61.05-77.22.01-115.83-.02-.09-.2-.28-.6-.37-.8-.24-1.29-.5-2.56-.75-3.84,12.07.03,24.15.36,36.23.04,28.57,0,57.15.2,85.73-.07.18-.11.54-.32.71-.42.52-.67,1.04-1.34,1.61-1.97.27-.22.81-.64,1.08-.85-4.67-.05-9.32.05-13.99-.07-36.2.46-72.41-.52-108.61.17-.36-.03-1.07-.11-1.42-.14.34-.37.67-.75,1.01-1.12.98-1.11,1.88-2.31,2.77-3.49,30.52.14,61.05-.12,91.58.13h.03c9.35-.2,18.7-.06,28.05-.19,3.05-.11,6.51.69,9.01-1.6.17-.07.52-.22.69-.3,1.02-.43,2.06-.81,3.11-1.2.1-.15.3-.43.4-.57-3.95.38-7.91.14-11.86.2-37.88.34-75.78.05-113.66.22-1.43,0-2.89.13-4.26-.36,1.22-1.23,2.37-2.56,3.13-4.13,34.3-.5,68.62-.01,102.93-.22,39.7-.19,79.39.11,119.08-.1.75,1.57,1.39,3.17,2.14,4.74-17.3-.09-34.61.03-51.91-.14-3.84.09-7.69.04-11.51-.3-.05.04-.17.11-.22.15.32.13.97.38,1.3.51,2.56.63,4.65,2.49,7.16,3.15,19.18.05,38.37.04,57.56,0,.28,1.28.54,2.54.8,3.83.03.2.11.63.15.84-12.17-.15-24.32.05-36.48-.09-5.48.18-10.98-.18-16.45.09,1.16,1.02,2.25,2.13,3.27,3.3,10.28.26,20.56-.16,30.85.02,7.2.17,14.41-.23,21.6.09,1.27,1.08,1.87,2.78,2.88,4.1l.1.36-.43.1c-.42.14-.85.26-1.28.35.43-.09.86-.2,1.28-.35-16.4-.13-32.81,0-49.21-.07-.63,0-1.88,0-2.5-.01.22.23.66.68.89.91.09.12.25.35.34.46.44.61.89,1.22,1.33,1.84,17.15.22,34.33.12,51.49.12.38,1.53.63,3.09.83,4.66-16.69-.07-33.38-.03-50.06-.05.13.24.39.73.52.98.25.7.48,1.41.69,2.13.13.01.38.03.52.05,16.03.33,32.08.2,48.13.17.11,1.55.26,3.09.42,4.63-15.71,0-31.42-.02-47.14,0l.17.75c.14.57.29,1.15.46,1.73l.2.64.42.21c16.49-.03,33-.16,49.49.11.32.45.64.9.97,1.35.17.26.5.79.67,1.05.12.19.36.55.47.73.22.35.67,1.05.89,1.4-17.36-.07-34.73-.01-52.09-.06l-.5.16c.06,1,.15,2,.28,3,.22.04.66.12.88.16,2.56.03,5.11,0,7.67.13,15.09-.07,30.19.07,45.29-.05.34.55.7,1.1,1.05,1.66.32.54.65,1.08.97,1.63.19.32.56.95.75,1.27-.55,0-1.65,0-2.2,0-16.9-.06-33.81.05-50.7-.08-.59-.01-1.76-.03-2.34-.05l-.57-.04c.13,1.04.24,2.09.37,3.15l.07.54c19.98.02,39.97-.1,59.94.17,1.04.94,2.06,1.92,3.08,2.9.22.2.68.63.91.84t0,0l.52.83c-21.17-.34-42.34-.01-63.5-.3-.4,0-1.21,0-1.61-.01.07,1.23.12,2.46.28,3.69,23.05-.05,46.09.19,69.13.07.79,1.3,1.7,2.51,2.66,3.69l.34.77c-23.93.17-47.86-.15-71.79-.17-.07,1.2-.22,2.41-.57,3.57,23.02.17,46.04.24,69.05.2,1.71,0,3.44-.03,5.14.28.79,1.73,2.02,3.19,3.52,4.36-.24.03-.72.09-.96.12-15.11-.28-30.23.01-45.34-.19-10.26.11-20.51-.38-30.77-.03l.09.71c.32.83.73,1.68.71,2.6l.26-.05c2.84.26,5.7.16,8.54.18,13.67-.09,27.34.24,41.01.03,15.17-.14,30.34.39,45.52.19-.54,1.47-1.04,2.97-1.48,4.47-30.45-.09-60.9-.02-91.35-.09-.5.03-1.51.1-2.02.14,0,1.04-.03,2.09-.07,3.15l.13-.04c3.72.22,7.45.02,11.17.24,26.99-.01,53.99-.03,80.98.14l-.25.85s0,0,0,0c-.24.34-.73,1.04-.96,1.39h0s-.28.36-.28.36c-.22.29-.67.89-.89,1.18l-.4.57c-5.87.38-11.78.03-17.67.13-20.16-.05-40.33-.08-60.5-.13-.24.03-.72.1-.96.13,1.28.13,2.45.65,3.25,1.7.33.4.67.81,1.02,1.22l.91.36c4.88.23,9.76,0,14.64.14,18.74-.07,37.49.34,56.23-.05-.28.89-.63,1.77-.99,2.64-.15.33-.43.98-.57,1.32l-.28.57c-14.59.38-29.2.03-43.8.16-6.49-.13-12.99.09-19.47-.24l-.23.08c1.08,1.01,2.19,2.07,2.56,3.56,10.33.2,20.66-.03,30.99-.02,9.24-.24,18.48.15,27.72.03l-.45.8c-.19.2-.57.6-.77.81-.5.48-.98.99-1.5,1.45-.32.24-.94.71-1.25.95-13.57.46-27.15.19-40.72.17-4.56.1-9.13,0-13.69.07v.68c-.02.5-.04,1.49-.05,1.99l.03.76c10.45.21,20.91.17,31.37.11,6.27-.08,12.56.13,18.82-.24l.42.13c-1.63,1.53-3.55,2.71-5.27,4.14-2.81.97-5.81.56-8.71.67-12.45.16-24.91-.13-37.36-.03-.02,1.17-.04,2.35-.15,3.52,7.15.03,14.3.17,21.45.1,6.69.19,13.38.04,20.08.07-.51.49-1,.98-1.49,1.49-.19.2-.56.61-.75.82-.61.79-1.2,1.62-1.79,2.43-14.85-.39-29.71-.07-44.57-.35v.82c0,.51,0,1.53,0,2.03v.69c13.69-.04,27.4.15,41.1,0l.4.15c-.73.57-1.45,1.14-2.16,1.73-1.14.87-2.13,1.93-3.3,2.74-11.89.2-23.8-.19-35.7.16h0l-.42-.13c.03.87.05,1.76.09,2.64v.59c3.46.18,6.92-.01,10.37.21,8.13.08,16.25-.13,24.38-.14l.14.3c-.82,1.33-1.6,2.69-2.2,4.14l-.07.11c-10.74.2-21.48-.37-32.21-.02h0l-.44-.11c0,1.16.02,2.32.03,3.48l.44-.07c10.04.15,20.08.07,30.11.1-.74,1.38-1.41,2.82-1.64,4.39h0s-.26.22-.26.22c-9.54.17-19.08-.24-28.61.14h-.05c.02,1.04.03,2.09-.19,3.13.18-.04.53-.12.71-.16,9.79.46,19.62.11,29.43.2.46.71.91,1.45,1.38,2.17-.18.8-.34,1.59-.53,2.4-6.37-.13-12.75.01-19.12-.11-3.88.05-7.76-.01-11.63-.01l-.03.81c-.02.5-.06,1.5-.08,2l-.27.74c10.34-.1,20.67,0,31.01-.06,0,1.59.11,3.2.62,4.73-10.71,0-21.45-.37-32.15.09.69.29,1.4.47,2.13.57-.73-.1-1.44-.27-2.13-.57h-.42c.02.82,0,1.65-.05,2.49l-.06.89c11.17-.22,22.36-.04,33.54-.03h0c.25.42.51.85.76,1.29.62,1.03,1.28,2.06,1.91,3.09-.99.05-1.98.09-2.95.14h0c-11.74.13-23.49-.18-35.22.21.01.43.04,1.3.05,1.72-.36.52-.72,1.06-1.08,1.59,12.98-.11,25.97-.1,38.96-.04.07,1.55-.01,3.11-.11,4.66-8.54-.19-17.08.06-25.62-.1-5.07.09-10.15-.2-15.21.09-.63,1.19-1.28,2.38-1.81,3.62,14.15.03,28.31-.19,42.46-.08-.04,1.55-.06,3.09-.07,4.64-11.29-.24-22.59.03-33.87-.12-3.7.03-7.4-.15-11.09.11l-.26-.09c-.33.94-.77,1.84-1.3,2.68l-.91.17c.16.15.49.44.65.58,12.89.12,25.78-.03,38.68.03,2.83.07,5.69-.22,8.5.24-.84,1.46-1.64,2.95-2.68,4.29-13.41.19-26.82.07-40.24.09-3,.03-6.01-.16-8.99.18h0c-.26,0-.77.03-1.03.04-.48.69-.96,1.38-1.43,2.07-.79.27-1.55.57-2.32.89.06.09.18.25.24.33,16.32-.24,32.63.03,48.95-.19h0c.16.11.47.32.63.43-2.55,1.2-5.08,2.44-7.64,3.6-.83.35-1.7.57-2.58.72-15.11.19-30.25-.28-45.35.28l-.41.04c-1.35,1.32-3.03,2.15-4.81,2.7-.05.13-.17.39-.22.52,12.96.2,25.92-.15,38.88-.04,3.03-.05,6.09.22,9.09-.28-1.06,1.49-2.66,2.49-4.42,2.96-.08.03-.24.08-.32.11-.71.47-1.39.96-2.07,1.49-.44.05-1.32.15-1.76.19-15.17.23-30.34.27-45.5.02-1.9-.03-3.78.12-5.66.28l-.11.29c-1.2.5-2.38,1.06-3.58,1.55h0c-1.21.15-2.41.31-3.6.55l-.07.72c20.02.11,40.05.37,60.07.12-.7,1.52-1.26,3.1-1.7,4.71-6.75-.19-13.5.01-20.25-.02-12.52.1-25.05-.36-37.57.05l-.41-.1c0,1.14.02,2.29-.04,3.44.4,0,1.22.02,1.62.03,19.21.15,38.43.04,57.64.07.16,1.51.48,2.99.67,4.51-16.34-.15-32.67.09-49.01-.11-3.51,0-7.02-.13-10.51.08l-.46-.18c0,1.2.01,2.4.02,3.6,1.33.02,2.67.05,4,0h0c18.56.06,37.11.09,55.67-.02-.81-.36-1.66-.58-2.52-.7.86.12,1.71.34,2.52.7l.51.16c-.36.69-.71,1.37-1.06,2.07-.3.57-.59,1.16-.91,1.73l-.37.54c-19.29.33-38.59.1-57.88.07.05,1.09.06,2.19-.04,3.3,16.51.22,33.04.15,49.56.07h0l.04.36c-.75,1.35-1.36,2.78-1.78,4.28-12.85.06-25.69.09-38.53-.03-3.07.1-6.14-.03-9.2.2l-.2-.05c.07,1.07.13,2.15.17,3.22,15.99.36,32,.25,47.99.01-.14-.1-.38-.29-.57-.43.19.14.43.33.57.43l.22.18c-.61,1.54-1.17,3.1-1.7,4.67-13.57,0-27.13.07-40.69-.05-.53.08-1.1.09-1.67.1.57-.01,1.14-.02,1.67-.1-1.96-.06-3.93-.12-5.89-.11.05,1.3.09,2.6-.04,3.9l.23-.22c7.67.34,15.36.09,23.03.32h.11c7.16-.13,14.33-.25,21.5-.37-.3.39-.91,1.16-1.21,1.55-.78.94-1.65,1.8-2.56,2.61l-.23.15c-.2.13-.6.38-.8.5-11.36.17-22.73.12-34.09,0-1.93.03-3.87.07-5.8.08l.02.73c.01.85.03,1.71.05,2.58l.36-.11c12.08.88,24.21-.14,36.3.32-1.32,1.25-2.64,2.51-3.85,3.87l-.39.45c-10.6.36-21.22.23-31.82.13l-.72-.3c.07,1.33.11,2.67.26,4,9.33-.07,18.67.3,27.99-.22.35-.03,1.05-.09,1.39-.12.02.09.07.27.09.36-1.24,1.14-2.52,2.25-3.67,3.5-.78.41-1.61.76-2.51.72-7.87.2-15.76-.13-23.62.24-.37.91-.85,1.78-1.3,2.66-.95.2-1.89.42-2.83.63.77.11,1.53.23,2.31.38,4.3.03,8.58-.38,12.88-.3,2.59,0,5.24.37,7.78-.33-.09.25-.28.75-.37,1.01-1.33.38-2.63.85-3.95,1.25-.79.18-1.61.27-2.42.29-4.18-.05-8.31.67-12.28,1.94-3.34.85-7.32,1.9-10.42-.17-1.32-.79-2.7-1.49-4.1-2.13,1.86,2.39,2.98,5.58,5.97,6.82,7.51,1.41,14.32-3.34,21.77-3.18,3.47,0,6.72-1.37,9.56-3.27.79-.33,1.57-.68,2.36-1.04.92-.6,1.88-1.16,2.85-1.68,2.24-1.93,4.3-4.08,6.25-6.3.49-.78,1-1.54,1.51-2.31.56-.65,1.14-1.28,1.72-1.92,1.47-1.69,3.07-3.27,4.76-4.72.31-.27.92-.81,1.23-1.07.79-.65,1.55-1.34,2.19-2.13,2.13-2.35,3.67-5.13,5.03-7.97,1.78-3.54.43-7.65,2.13-11.19,2.5-1.4,5.29-2.13,7.92-3.26,1.01-1.01,1.9-2.15,2.53-3.44.16-.31.47-.94.63-1.25.67-3.28.75-6.75-.3-9.96-.35-1.27-.95-2.5-.97-3.83.52-2.05,1.34-4,1.84-6.05,1.23-.74,2.49-1.44,3.57-2.39h0c1.72-1.42,3.13-3.21,4.95-4.53,1.75-1,3.77-1.43,5.57-2.33,2.48-1.14,4.55-2.93,6.63-4.66.22-.18.67-.54.9-.73l.69-.57c1.94-1.43,3.33-3.65,3.67-6.05.44-5.46-.14-10.98.65-16.42.54-3.47,0-7.09-1.99-10.03-.65-1.22-1.12-2.52-1.49-3.85-.21-1.72-.5-3.46-.38-5.2.1-2.34.87-4.74-.02-7.02-.3-.32-.9-.94-1.2-1.26-.54-.58-1.08-1.28-.67-2.1.75-2.85,2.92-4.96,4.3-7.48.85-1.63,1.41-3.39,1.97-5.13,1.22-1.51,2.89-2.56,4.29-3.89.31-.25.93-.75,1.24-1,1.02-.98,1.96-2.03,2.84-3.13.74-.91,1.51-1.78,2.28-2.66,1.26-1.49,2.58-2.94,4.08-4.18.37-.32.74-.63,1.12-.93,2.7-2.52,5.93-4.45,8.31-7.31,2.57-1.88,5.12-3.91,6.61-6.81.42-.67.85-1.33,1.31-1.97.94-1.45,1.78-2.98,2.45-4.59.42-1,.61-2.08.83-3.14.86-.47,1.72-.93,2.57-1.41.8-1.22,1.69-2.36,2.58-3.51,1.08-2.79,1.47-5.78,2.5-8.58,1.12-3.05,1.3-6.58-.03-9.58Zm-259.44,23.01c8.97.24,17.93.11,26.9-.15-.33.25-.99.75-1.33.99-3.63,1.49-7.29,4.35-11.43,3.31-5.17-1.72-10.81-2.04-16.1-.62-2.07.46-4.14.97-6.19,1.51l-.09.03c-1.9.93-4.25.97-5.97-.36-2.09-1.55-4.26-3.03-6.17-4.8,6.79.35,13.59-.04,20.38.1Zm177.68-121.96c-.18.13-.35.3-.5.52.15-.22.32-.39.5-.52Zm-43.47-4.61c1.7-.05,2.8-1.74,4.49-1.72,1.53-.09,3.08-.14,4.61.04,2.14,1.41,4,3.25,6.46,4.16-.79.24-1.62.51-2.46.42-4.49,0-8.98-.02-13.47-.01h-.59c.29-.97.6-1.93.94-2.88Zm-2.38,6.26c12.56.13,25.12-.03,37.66.23,1.08.65,2.2,1.49,3.54,1.33,1.96-.1,3.39-1.59,4.92-2.63,1.7,0,3.31.54,4.9,1.09,2.46.89,5.06,0,7.59.16-.07.36-.2,1.07-.26,1.42.2,1.09.43,2.17.69,3.26-20.41-.44-40.83-.28-61.24-.3.93-1.42,1.69-2.94,2.21-4.56Zm-86.26-27.5c-1.3,0-2.63-.07-3.72-.85,1.72-.63,3.34-1.49,5.09-2.04,5.39-1.19,11.35,1.01,16.32-2.08.48.02,1.43.07,1.91.09,7.29.31,14.56-.46,21.84-.35.03,1.68.03,3.36,0,5.05-13.81-.21-27.64-.34-41.45.18Zm-44.37,15.08c1.14-1.55,2.49-3.57,4.66-3.5,19.46.04,38.92-.07,58.38-.03.94.01,1.9.02,2.85.01,5.35-.02,10.71-.05,16.06.26l.45.54c.11.14.34.42.45.55.21.31.64.93.86,1.24h.01c.94.57,1.9,1.12,2.87,1.65-.83.23-1.67.5-2.53.43-28.08-.16-56.17,0-84.26-.01h-.51c.18-.28.54-.85.71-1.13Zm-3.36,7.63c.28-1.06.48-2.13.67-3.2,23.96.22,47.93-.17,71.89.07.13,0,.39,0,.52,0,9.97-.15,19.94-.05,29.92-.09,1.12,1.17,2.27,2.33,3.45,3.44.3.31.89.92,1.19,1.22-36.02-.05-72.05-.03-108.06.07.11-.38.31-1.14.42-1.51Zm-5.02,8.13l.24-.15c.73-.66,1.44-1.34,2.13-2.06.22-.28.67-.87.89-1.16,40.48.48,80.98-.31,121.45,0,1.5.26,2.55,1.55,3.77,2.37.34.15,1.02.44,1.37.59,1.4.56,2.88.89,4.37,1.19-.71.4-1.46.57-2.28.49-42.48-.27-84.96.2-127.44.01-2.1-.04-4.22.22-6.3-.15.46-.28,1.35-.86,1.8-1.15Zm147.88,17.36c-21.17-.19-42.33.09-63.48.04-31.26.11-62.53.03-93.78.08-4,.1-8.02-.15-12.01.24l.12-.85c.54-.68,1.07-1.36,1.59-2.06.42-.59.86-1.18,1.29-1.76,18.42-.36,36.84-.09,55.26-.09,28.18-.28,56.36.06,84.54-.44,21.56.15,43.1.3,64.66.44,3.38.2,6.76.07,10.14.15-.08,1.43-.09,2.89.32,4.29-16.22.01-32.43.1-48.64-.04Zm12.63-6.91c2.55,0,5.11-.01,7.66-.03-2.55.02-5.11.03-7.66.03Zm36.22-.88c-9.21-.24-18.42.09-27.62-.28-29.74-.17-59.47-.22-89.2-.04-31.28.48-62.6.19-93.88.26.34-.22,1-.67,1.33-.9,1.4-.75,2.27-2.11,2.89-3.52,5.6-.55,11.25-.15,16.87-.2,13.44-.06,26.89.07,40.34-.04,22.67.08,45.35-.39,68.02-.3,20.06.09,40.12.03,60.18.29,7.54.11,15.09.36,22.63.05-.75,1.48-1.1,3.11-1.56,4.69Zm4.02,18.58c.16-.02.31-.03.46-.03-.15,0-.3,0-.46.03Zm4.29,8.07c.24,0,.46.01.67.06-.21-.05-.43-.07-.67-.06Zm9.22,18.79h0c.07-.18.14-.35.2-.53-.06.18-.13.36-.2.53Zm-46.6,11.56c1.04-.06,2.09-.11,3.14-.14-1.05.04-2.09.08-3.14.14Zm68.06,25.41c1.53,0,3.06.06,4.59.27-1.52-.2-3.05-.26-4.59-.27Zm-47.4,70.47c.3,0,.59-.02.88-.02-.29,0-.58.01-.88.02Zm1.17-.01c1.14-.03,2.28-.05,3.42-.06-1.14.01-2.28.03-3.42.06Zm23.14,1.86c.36.04.75.04,1.14.06-.39-.02-.78-.02-1.14-.06Zm-12.86,23.95c2.75,0,5.51,0,8.26.03-2.75-.03-5.51-.04-8.26-.03Zm-25.56,21.89c.62.28,1.27.52,1.95.6-.68-.08-1.33-.32-1.95-.6Zm43.13,2.48c.24.03.48.08.71.13-.24-.05-.47-.1-.71-.13Zm-46.37,8c.88,0,1.76,0,2.64-.01-.88,0-1.76.02-2.64.01Zm-34.87,22.49c.4,0,.79-.01,1.17,0-.38,0-.78,0-1.17,0Zm41.52,23.83c.66,0,1.33-.04,1.99-.11-.66.07-1.33.11-1.99.11Zm-57.08,40.18c.21.29.41.61.61.93-.2-.32-.4-.64-.61-.93Zm5.1,3.19c.39.03.78.05,1.18.04-.39,0-.79,0-1.18-.04Zm26.92-5.4c.26-.09.52-.17.78-.24-.26.07-.52.15-.78.24Zm4.11-5.42c.3-.07.59-.15.87-.26-.28.11-.57.2-.87.26Zm2.06-.94c.24-.19.47-.42.68-.69-.21.26-.44.49-.68.69Zm27.46-63.38c2.25,0,4.51-.05,6.74-.34h0c-2.24.29-4.49.34-6.74.34Zm8.05,5.06c.23-1.01.52-2.01,1.08-2.8-.56.79-.85,1.79-1.08,2.8Zm5.48-11.48c-.94-.03-1.87-.06-2.81-.08.94.02,1.87.05,2.81.08h0Zm1.91,2.53c.51-.52,1.04-1.03,1.59-1.51-.55.48-1.08.98-1.59,1.51Zm6.18-6.37c.71-.3,1.41-.63,2.1-.98-.69.35-1.39.68-2.1.98Zm14.48-27.44c-.08.51-.15,1.03-.21,1.54.06-.52.13-1.03.21-1.54Zm-3.52-11.71c-.13-.68-.21-1.36-.26-2.04.05.68.13,1.36.26,2.04Zm10.23-39.4c.35-.06.7-.13,1.05-.21h0c-.35.08-.7.15-1.05.21Zm23.84-47.94c.53.16,1.07.29,1.61.38-.54-.1-1.08-.22-1.61-.38Zm.65-.76c-.05-.31-.16-.93-.21-1.24,3.28-.07,6.56.17,9.85-.05h.36c.03.4.11,1.21.14,1.62-3.37-.26-6.8.3-10.13-.32Zm11.87-3.2c.18.22.34.45.47.69-.14-.24-.29-.47-.47-.69Z"/>
      <path class="cls-1" d="m638.14,627.6c-.4-2.85-.21-5.74-.34-8.61-.05-.94.03-2.25-1.06-2.63-1.51-.52-3.15-.48-4.68-.91l.28.93c.28.87.54,1.75.77,2.65.22,5.07,2.31,10,1.29,15.09.75,2.31,1.3,4.67,1.95,7.02l.05.17c.4,1.13,1.1,2.14,1.91,3.04-.78-5.54-.34-11.19-.17-16.75Z"/>
      <path class="cls-1" d="m793.86,580.23c-.73-1.53-1.2-3.17-1.49-4.84-.96-.05-1.93-.03-2.88-.03-.37.42-.73.85-1.08,1.3-.28.38-.83,1.13-1.12,1.5-.84,2.13-1.77,4.22-2.66,6.33-.15.32-.45.96-.6,1.29-.69.29-1.36.59-2.04.89-.78.75-1.51,1.57-2.18,2.43-2.7,2.92-7.27,2.16-10.04,4.9-.59.57-1.07,1.26-1.56,1.93-.57,1.16-1.18,2.3-1.79,3.44-.17,2.11,0,4.22.3,6.32.39,2.7-.17,5.41-.49,8.09-.17,1.84-1.61,3.18-2.71,4.54-.24.26-.72.77-.96,1.02l-.03.27-.34.12c-2.98,4.71-1.9,10.52-1,15.68.36.63.73,1.26,1.14,1.89.42.6.75,1.25,1.02,1.94.34.34.67.68,1,1.04,4.12,2.7,8.67.04,12.61-1.56,1.76-.88,1.96-3.01,2.48-4.69,2.07-8.83,7.09-16.65,9-25.53.95-4.18,2.95-8.01,4.16-12.1.63-2.41,2.28-4.55,2.17-7.12,0-3.02.48-6.23-.89-9.04h0Zm-18.17,53.22c-3.48.63-7,.91-10.54.73-.09-1.39-.2-2.78-.38-4.16,4.04-.15,8.06-.54,12.11-.48-.53,1.26-.87,2.58-1.19,3.91Zm3.77-11.15c-.57,1.13-1.02,2.32-1.43,3.52-2.94.48-5.92.41-8.87.54-1.57-.01-3.13-.05-4.68-.11.31-1.33.52-2.67.74-4,4.86-.32,9.74-.42,14.6-.67l-.36.73Zm3.33-8.25c-.63,1.4-1.28,2.8-1.93,4.19-3.74,0-7.49.05-11.22.19l-1.33.09c1.03-1.41,1.51-3.1,1.81-4.8,3.78-.03,7.57.03,11.35-.11.38-.01,1.15-.03,1.53-.04l-.21.48Zm1.25-4.08c-4.48.62-9.04.38-13.55.37.09-1.51.06-3.03.04-4.53,4.64.07,9.28-.07,13.93-.08h.82c-.47,1.39-.9,2.8-1.24,4.24Zm2.68-8.18c-.21.03-.64.11-.85.14-5.07.32-10.15.29-15.22.53l-.59.03.19-.69c.36-1.28.65-2.56.96-3.84,5.69-.36,11.4-.1,17.1-.38-.63,1.36-1.3,2.74-1.58,4.22Zm2.57-7.5c-3-.02-6-.08-8.99.19l-.79.05c2-1.41,3.42-3.5,5.41-4.86,1.68.05,3.36.09,5.04.14-.22,1.49-.44,2.98-.67,4.48Zm-1.14-8.25c.61-1.4,1.08-2.87,1.8-4.22.22,1.41.36,2.84.5,4.27-.57-.01-1.73-.04-2.31-.05Z"/>
    </g>
    <g>
      <path class="cls-5" d="m631.73,435.81c.96,1.46,2.11,2.8,3.11,4.25.98-1.13,1.86-2.33,2.74-3.54-1.14-1.24-2.23-2.52-3.05-3.99-1.02.98-2.3,1.93-2.8,3.28Z"/>
      <path class="cls-5" d="m642.41,468.98c.81-1.19,1.73-2.3,2.73-3.34-.81-1.3-1.7-2.55-2.85-3.56-.85,1.26-1.75,2.47-2.73,3.63.88,1.14,1.74,2.32,2.85,3.26Z"/>
      <path class="cls-5" d="m630.75,473.94c1.11-1.14,2.24-2.27,3.38-3.38-.77-1.18-1.63-2.29-2.52-3.36-1.12,1.15-2.25,2.28-3.39,3.4.69.99,1.39,1.98,2.13,2.94l.4.41Z"/>
      <path class="cls-5" d="m639.11,436.45c1.06,1.28,2.1,2.58,3.09,3.93,1.13-1.31,2.21-2.67,3.18-4.1-1.1-1.13-2.09-2.35-2.88-3.71-1.37,1.06-2.35,2.52-3.39,3.89Z"/>
      <path class="cls-5" d="m647.05,436.45c1.06,1.22,2.09,2.46,3.1,3.73,1.39-1.21,2.38-2.78,3.51-4.21-1.07-1.22-2.1-2.46-3.1-3.73-1.45,1.14-2.54,2.64-3.51,4.21Z"/>
      <path class="cls-5" d="m684.59,460.24c-.45-1.13-1.12-2.15-1.86-3.1-.87,1.25-1.72,2.5-2.61,3.75.63.93,1.24,1.86,1.85,2.81.89-1.14,1.76-2.29,2.62-3.46Z"/>
      <path class="cls-5" d="m611.68,441.32c.19-.39.55-1.17.73-1.56l-.19-.48c-1.24-.76-1.89,1.97-.54,2.04Z"/>
      <path class="cls-5" d="m611.67,443.74c.54,1.16,1.16,2.28,1.68,3.46.98-.81,1.66-1.89,2.25-3-.78-1.08-1.49-2.19-2.17-3.33-.88.7-1.75,1.69-1.75,2.87Z"/>
      <path class="cls-5" d="m688.81,447.19c-.68-1.22-1.41-2.42-2.25-3.53-.91,1.14-1.76,2.31-2.57,3.51.7,1.06,1.36,2.16,2.12,3.2,1.32-.48,1.76-2.2,2.7-3.19Z"/>
      <path class="cls-5" d="m678.16,469.04c-.84-1.04-1.51-2.32-2.76-2.93-.69.96-1.4,1.92-2.11,2.87.89,1.06,1.84,2.1,2.95,2.95.63-.96,1.27-1.93,1.92-2.89Z"/>
      <path class="cls-5" d="m612.96,448.14c-.85-1.2-1.54-2.48-2.15-3.8-1.7,1.84-.22,4.32.4,6.28.65-.78,1.24-1.61,1.75-2.48Z"/>
      <path class="cls-5" d="m614.22,448.44c.75,1.24,1.35,2.6,2.48,3.56.63-.98,1.27-1.95,1.92-2.91-.69-1.29-1.45-2.54-2.3-3.73-.83.93-1.51,1.98-2.1,3.08Z"/>
      <path class="cls-5" d="m646.95,408.17c.93-1.09,1.89-2.15,2.68-3.36-1.78-.59-3.98-.92-5.58.28.94,1.04,1.87,2.11,2.89,3.08Z"/>
      <path class="cls-5" d="m656.36,405.47c-1.31-1.7-3.44-1.38-5.14-.54.82,1.14,1.64,2.27,2.46,3.4,1.04-.81,1.86-1.83,2.68-2.85Z"/>
      <path class="cls-5" d="m660.66,408.19c.63-.67,1.25-1.35,1.89-2.02l.52-.56c-1.14-1.26-4.79-2.11-4.51.48.7.69,1.4,1.39,2.1,2.09Z"/>
      <path class="cls-5" d="m642.15,405.3c-.71-.07-1.45-.13-2.15.09-.74.51-1.56,1.01-1.29,2.05,1.16-.69,2.3-1.41,3.44-2.14Z"/>
      <path class="cls-5" d="m669.1,407.21c-1.35-.2-2.83-1.94-4.11-1.01,1.22.77,2.3,1.73,3.39,2.67.24-.56.48-1.11.72-1.66Z"/>
      <path class="cls-5" d="m692.38,440.95c1.1-1.52-.24-3.27-.82-4.71-.2.42-.61,1.24-.81,1.65.55,1.01,1.1,2.03,1.63,3.06Z"/>
      <path class="cls-5" d="m609.93,453.23c.22-.46.44-.91.66-1.35-.38-.92-.77-1.82-1.11-2.75-.03,1.54-.03,3.08.13,4.62l.32-.52Z"/>
      <path class="cls-5" d="m693.51,452.54c.64-1.02.4-1.76-.72-2.25-.62.84-.34,1.96.72,2.25Z"/>
      <path class="cls-5" d="m692.95,470.47c.06-1.43.16-2.85.42-4.26-.57.77-1.2,1.49-1.82,2.23.3.57.61,1.14.93,1.72l.48.31Z"/>
      <path class="cls-5" d="m612.44,471.71c-.52-.83-1.13-1.58-1.74-2.33-.06.87-.11,1.75-.16,2.63.54.09,1.61.28,2.15.38l-.25-.67Z"/>
      <path class="cls-5" d="m692.23,471.99c-.53-.75-.99-1.53-1.45-2.3-.73.94-1.48,1.88-2.27,2.78,1.26.4,2.51-.17,3.73-.48Z"/>
      <path class="cls-5" d="m623.77,481.09c5.88.38,11.76.87,17.66.87,15.15.03,30.34.48,45.46-.89,2.8-.41,5.62-.5,8.4-1.03.28-1.47.59-2.92.98-4.36-2.99.5-6.03.59-9.05.61-12.17.75-24.36.81-36.54,1.39-9.61.11-19.22-.22-28.83-.46-5-.38-10.01-.5-14.99-1.1-.09,1.07-.14,2.14-.17,3.22,3.96.79,8.04,1.28,12.06,1.37,1.68.12,3.36.28,5.04.39Zm70.57-1.51c-1.27.16-2.54.3-3.81.43,1.27-.12,2.54-.26,3.81-.43Zm-15.93-2.26c-.53-.03-1.05-.05-1.57-.04.52,0,1.05,0,1.57.04Zm-31.21,1.31c-1.1.01-2.21-.02-3.31-.07,1.1.05,2.21.08,3.31.07Z"/>
      <path class="cls-4" d="m592.49,518.45c2.31.09,4.62.03,6.93-.13l.5.07c0-5.54-.18-11.08-.07-16.62-.02-1.9,0-3.81.03-5.71-2.82-.05-5.64.05-8.46-.11.17,7.49.13,14.98.07,22.47.25,0,.75.02,1,.03Z"/>
      <path class="cls-5" d="m686.15,496.83c-3.95.21-7.89.56-11.83.89-17.33.98-34.71.75-52.03-.36-4.28-.34-8.56-.58-12.79-1.33-.32-.05-.95-.13-1.27-.17-.03.95-.05,1.91-.07,2.87.8.07,1.61.13,2.41.19,15.96,1.74,32.02,2.87,48.07,2.5,9.05-.4,18.11-.53,27.11-1.64,3.11-.26,6.19-.93,9.3-1.14.2-1.01.36-2.03.54-3.03-3.1.73-6.3.83-9.45,1.23Z"/>
      <path class="cls-4" d="m702.43,495.92c.46,7.47,0,14.97.28,22.45,2.95-.11,5.91-.1,8.87,0,.03-7.2.05-14.41.07-21.62l-.05-.73c-3.05-.05-6.11.04-9.17-.11Z"/>
      <path class="cls-4" d="m584.21,501.65c-.31,3.46-.06,6.95-.17,10.42.86.03,1.72.07,2.58.11.08-3.42-.03-6.83.08-10.24-.83-.09-1.67-.18-2.49-.29Zm1.4,9.66c-.25-2.89-.15-5.8-.04-8.7.36,2.88.17,5.8.04,8.7Z"/>
      <path class="cls-4" d="m601.84,512.57c.27,0,.81-.01,1.08-.01,1.07-.03,2.15-.05,3.22-.09-.07-3.61-.03-7.23,0-10.84-1.67.04-3.34.04-4.99-.13-.05,3.68-.05,7.37-.03,11.06l.71.02Z"/>
      <path class="cls-4" d="m696.87,512.53c1.54-.05,3.09-.04,4.64.03.01-3.64.06-7.29.01-10.92-1.49.08-2.98.15-4.46.07-.43,3.59-.07,7.22-.19,10.82Z"/>
      <path class="cls-5" d="m608.43,518.14c7.63.75,15.26,1.6,22.92,2.04,1.95.24,3.91.4,5.88.26,8.97.38,17.96.2,26.93,0,1.75.11,3.5-.05,5.24-.23,4.86-.29,9.71-.71,14.57-1.06,3.21-.11,6.37-.68,9.56-1.04.46-.07,1.36-.19,1.82-.25,0-1.28-.01-2.56-.03-3.83-.44.08-1.32.23-1.75.31-.91.18-1.82.37-2.72.54-17,2.5-34.23,2.66-51.37,2.47-9.98-.38-19.97-.85-29.89-2.06-.58-.09-1.74-.26-2.33-.34.42.98-.4,3.13,1.17,3.2Z"/>
      <path class="cls-5" d="m599.91,519.82c-1.33-.01-2.66-.02-4-.02.14,9.05.05,18.11.15,27.17.21,7.49.91,15.17,4.02,22.08.02-.19.04-.38.04-.57,0,.19-.01.38-.04.57,4.51,10.53,12.68,19.32,22.49,25.15,4.36,2.6,8.97,4.94,13.94,6.11,10.51,2.88,21.89,2.54,32.27-.76,11.74-3.67,22.16-11.58,29-21.8,4.59-6.58,7.88-14.15,8.81-22.16.06-.57.11-1.14.14-1.7h0c.45-11.37,0-22.77.25-34.14-1.2.04-2.39.08-3.58.12,0,7.49-.04,14.97,0,22.45,0,7.3-.55,14.79-3.34,21.62-1.98,5.12-5.23,9.65-8.8,13.77-.69.67-1.41,1.31-2.1,1.98-5.06,4.98-11.14,8.85-17.64,11.68l-.03.16c-1.78.56-3.54,1.22-5.37,1.65-13.82,3.12-29.08,2.21-41.55-4.94-1.87-1.2-3.77-2.36-5.56-3.67-4.62-3.2-8.92-7.02-11.91-11.84-3.32-4.76-5.23-10.33-6.42-15.97-.89-4.76-.83-9.61-.85-14.43,0-7.51-.03-15.01.07-22.5Zm99.45,47.53c-1.14,2.07-2.39,4.08-3.76,6.01,1.37-1.93,2.62-3.94,3.76-6.01Zm-58.55,33.19c-.53-.13-1.06-.21-1.6-.26.54.05,1.07.13,1.6.26Zm-43.9-61.08c.02-1.36.03-2.72.03-4.07,0,1.35,0,2.71-.03,4.07Zm.72,18.52c.12.75.25,1.5.4,2.25-.15-.75-.28-1.5-.4-2.25Zm1.86-4.22c.15,1.48.39,2.95.79,4.41-.4-1.46-.64-2.93-.79-4.41Z"/>
      <path class="cls-4" d="m708.04,519.84c.03,11.52.22,23.04-.19,34.55-.05.29-.16.88-.21,1.18-.18.89-.32,1.79-.4,2.7-1.55,9.63-6.57,18.38-12.78,25.77-6.03,7.12-14.03,12.25-22.51,15.99-15.57,5.82-33.87,5.02-48.26-3.62-9.32-5.32-17.38-13.02-22.38-22.57-3.23-5.38-4.86-11.52-5.62-17.7-.88-4.88-.19-9.85-.74-14.75.1-7.2-.13-14.41.05-21.6-1.15.04-2.3.09-3.44.13.04,9.89-.04,19.78.05,29.66-.1,9.08,2.22,18.14,6.36,26.21.75,1.65,1.67,3.21,2.61,4.76,5.53,8.45,13.04,15.48,21.79,20.52,6.75,3.62,13.99,6.61,21.65,7.55-.22,8.95.09,17.92-.05,26.88-.34,8.9-.3,17.82.19,26.72.09,3.81.17,7.66.81,11.43.69.58,1.49,1.03,2.26,1.51l.89.13c0-.39,0-1.17,0-1.56-.03-2.03-.16-4.04-.34-6.05-.62-8.95-.9-17.91-.65-26.88.26-10.69-.26-21.38-.01-32.06.48,0,.96-.01,1.45-.02-.23,9.36.22,18.72.12,28.08-.08,7.13-.02,14.27.13,21.4-.24,5.66.77,11.28.57,16.94,1.14,1.26,3.17.5,4.69.75.01-.54.05-1.63.06-2.17-.05-1.47-.12-2.95-.29-4.4-1.06-19.11-.85-38.26-.71-57.4.09-1.1.19-2.19.3-3.27.3.04.89.11,1.18.15-.26,5.37-.09,10.73-.11,16.1-.04,10.88-.18,21.77.24,32.64,0,1.08.05,2.16.09,3.25.17,4.21.24,8.42.59,12.61-.05.48-.14,1.43-.18,1.9,1.53-.25,3.07-1.05,3.85-2.44.33-3.36-.64-6.71-.42-10.08-.02-4.27-.04-8.53-.18-12.79-.3-13.84.11-27.69.03-41.53.34-.04,1.04-.12,1.38-.17,2.02-.47,4-1.1,6.03-1.59,8.95-2.13,17.04-6.87,24.32-12.38,5.55-4.19,9.73-9.87,13.33-15.75.09-.24.26-.74.34-.99,3.44-5.77,5.95-12.14,6.93-18.8.87-5.45.71-10.98.72-16.48-.05-7.51-.1-15.01.07-22.51-1.19,0-2.39.01-3.57.03Zm-.25,39.25c.06.09.12.18.16.24-.04-.07-.1-.15-.16-.24Z"/>
      <path class="cls-5" d="m660.62,523.49c-9.98-.02-19.97.33-29.93-.35-.68-.05-1.35-.1-2.04-.15-4.37-.3-8.74-.68-13.1-1.08-2.47-.14-4.91-.61-7.29-1.28.03.37.09,1.1.13,1.47,8.95,1.41,17.99,2.07,27.03,2.57,18.21.7,36.54.65,54.61-1.94,1.62-.23,3.25-.46,4.9-.4.06-.47.19-1.41.25-1.88-2,.55-4.04.94-6.11,1.13-9.46.92-18.94,1.92-28.46,1.91Z"/>
      <path class="cls-5" d="m636.7,544.03c1.04.16,2.11.42,3.16.14,8.53.46,17.12.54,25.65,0,2.14.27,4.36.23,6.47-.28,7.73-.24,15.46-1.17,23.1-2.37,2.78-.29,2.25-3.82,2.39-5.8-6.17.88-12.36,1.55-18.56,2.11-4.4.05-8.82.47-13.2.83-10.45.21-20.94.66-31.38-.11-.44,0-1.3.02-1.74.03-8.69-.77-17.38-1.61-26.03-2.77-.25,1.74-.64,3.77.39,5.33,9.75,2.13,19.82,2.48,29.76,2.89Z"/>
      <path class="cls-5" d="m642.95,412.09c1-.99,1.96-2.04,2.86-3.13-.83-.94-1.62-1.92-2.53-2.78-1.32,0-2.21,1.43-3.3,2.09.94,1.31,1.93,2.58,2.97,3.82Z"/>
      <path class="cls-5" d="m649.14,470.45c-1.12-1.33-2.16-2.73-3.52-3.82-.87,1.06-1.78,2.07-2.72,3.07,1.13,1.26,2.26,2.53,3.39,3.8.97-1,1.92-2.02,2.85-3.05Z"/>
      <path class="cls-5" d="m675.46,473.57c-.09-.28-.26-.83-.35-1.1-.86-.93-1.76-1.83-2.65-2.72-1.13,1.06-2.25,2.11-3.3,3.24l-.29.68c2.18.51,4.41.25,6.59-.1Z"/>
      <path class="cls-5" d="m647.64,409.33c.82,1.21,1.92,2.19,2.95,3.22.81-1.05,1.62-2.11,2.43-3.17-.85-1.11-1.69-2.22-2.52-3.32-1.02.98-2.35,1.92-2.85,3.26Z"/>
      <path class="cls-5" d="m676.48,417.3c.63-1.01,1.78-1.85,1.91-3.09-.97-1.35-2.38-2.29-3.58-3.42-.67.86-1.32,1.74-1.94,2.64,1.1,1.37,2.31,2.66,3.6,3.86Z"/>
      <path class="cls-5" d="m627.75,430.61c1.07,1.23,1.84,2.83,3.15,3.82,1.04-.72,2.21-1.8,2.59-3-.99-1.47-2.21-2.76-3.28-4.15-.84,1.1-1.66,2.2-2.45,3.33Z"/>
      <path class="cls-4" d="m692.24,502.29c-9.13,1.57-18.4,1.95-27.64,2.24-15.19.61-30.42.17-45.52-1.6-3.78-.46-7.55-1.06-11.35-1.3v10.56c.9.11,1.81.24,2.72.32,3.32.2,6.61.75,9.92,1.05,18.63,1.42,37.38,1.43,56.02.05,1.79-.21,3.58-.4,5.37-.63,1.26-.18,2.52-.31,3.79-.43,2.83-.28,5.64-.71,8.4-1.41.37-.02,1.11-.06,1.48-.08.09-3.1.11-6.19.14-9.28-1.12.17-2.23.33-3.34.52Z"/>
      <path class="cls-5" d="m609.54,544.89c1.39,12.39,8.89,23.78,19.39,30.4,10.1,5.75,22.31,7.65,33.58,4.55,10.62-2.93,20.52-10.1,25.43-20.08,2.9-4.42,4.35-9.71,4.52-14.97-1.02.08-2.02.18-3.03.29-.4-.04-1.2-.13-1.59-.17-.28,6.92-3.3,13.55-8,18.59-5.98,7.08-14.73,11.82-23.97,12.7-8.62.96-17.56-1-24.93-5.59-8.89-5.34-15.19-14.86-16.59-25.14-1.57-.46-3.2-.55-4.82-.59Z"/>
      <path class="cls-5" d="m628.52,564.5c8.02,7.31,19.59,9.73,30.1,7.91,5.24-1.29,10.36-3.51,14.45-7.08,4.98-4.35,9.33-9.96,10.63-16.57-.02-.43-.07-1.3-.09-1.72l-.59-.27c-.26.04-.79.13-1.06.18-6.2.84-12.46.77-18.7.91-15.07,0-30.25.46-45.2-1.64,1.1,7.12,5.32,13.4,10.46,18.29Zm54.19-16.55c-.22-.23-.41-.48-.59-.75.17.26.37.51.59.75Z"/>
      <path class="cls-5" d="m638.29,408.18c-.26-.36-.77-1.08-1.02-1.44-.77.32-1.54.65-2.3.97-.78.38-1.52.84-2.26,1.28.81.87,1.58,1.78,2.36,2.68,1.04-1.19,2.12-2.35,3.22-3.5Z"/>
      <path class="cls-5" d="m681.17,464.91c.04-1.26-1.27-2.08-1.91-3.05-.96,1.15-1.88,2.33-2.78,3.53.79.91,1.56,1.83,2.31,2.78.83-1.06,1.72-2.08,2.38-3.26Z"/>
      <path class="cls-5" d="m657.02,412.14c1.09-.87,1.96-1.96,2.91-2.97-.86-.97-1.75-1.9-2.67-2.81-.86.9-1.76,1.76-2.46,2.79.4,1.18,1.53,1.98,2.23,2.99Z"/>
      <path class="cls-5" d="m631.56,416.68c1.14,1.42,2.13,2.95,3.26,4.38,1.08-1.22,2.15-2.43,3.22-3.64-1.04-1.39-2.09-2.77-3.19-4.11-1.08,1.14-2.18,2.27-3.3,3.37Z"/>
      <path class="cls-5" d="m664.87,412.77c.82-.86,1.66-1.71,2.39-2.66-.76-1.22-1.9-2.13-2.87-3.16-.26-.01-.79-.03-1.06-.05-.57.71-1.16,1.43-1.74,2.13,1.01,1.32,2.11,2.56,3.28,3.73Z"/>
      <path class="cls-5" d="m671.96,412.49c.65-.8,1.3-1.6,1.92-2.42-1.23-.76-2.5-1.44-3.81-2.04-.26.38-.77,1.15-1.03,1.53.95,1,1.92,1.98,2.93,2.93Z"/>
      <path class="cls-5" d="m634.02,412.56c-.8-1.12-1.63-2.21-2.49-3.28-1.31.6-2.48,1.44-3.62,2.31.84,1.41,1.78,2.77,2.93,3.95,1.27-.71,2.09-2.03,3.19-2.98Z"/>
      <path class="cls-5" d="m665.45,451.85c-1.32-1.39-1.99-3.79-3.79-4.5-1.01,1.2-1.9,2.49-2.89,3.71,1.18,1.53,2.34,3.08,3.46,4.66,1.26-1.13,2.23-2.52,3.22-3.87Z"/>
      <path class="cls-5" d="m678.68,460.96c-.74-1.26-1.57-2.45-2.56-3.52-.93,1.22-1.9,2.43-2.9,3.59.85,1.07,1.61,2.2,2.31,3.37,1.24-.96,2.13-2.27,3.15-3.44Z"/>
      <path class="cls-5" d="m635.93,412.68c.91,1.21,1.65,2.66,2.88,3.56,1.21-.8,1.93-2.2,3.09-3.09-.85-1.42-1.74-2.83-2.95-3.98-.93,1.19-2.66,2.03-3.02,3.51Z"/>
      <path class="cls-5" d="m654.72,417.47c.75,1.45,2.02,2.54,3.09,3.75,1.06-1.09,2.14-2.19,2.96-3.48-1.16-1.13-2.21-2.37-3.16-3.67-1.18.91-2.26,2.06-2.89,3.41Z"/>
      <path class="cls-5" d="m661.59,456.56c-1.32-1.39-2.15-3.26-3.67-4.42-1.23,1.3-2.38,2.74-3.3,4.27,1,1.56,2.23,2.96,3.33,4.45,1.28-1.38,2.55-2.77,3.64-4.3Z"/>
      <path class="cls-5" d="m663.69,469.69c-.89-1.13-1.84-2.21-2.92-3.15-1.07,1.16-2.12,2.35-3.14,3.56.89.98,1.76,1.99,2.59,3.03,1.47-.78,2.37-2.25,3.47-3.44Z"/>
      <path class="cls-5" d="m646.4,409.99c-.84,1.04-1.74,2.04-2.69,2.99.95,1.32,2,2.56,3.13,3.73.98-1.02,1.94-2.07,2.85-3.14-1.06-1.24-2.02-2.56-3.3-3.58Z"/>
      <path class="cls-5" d="m658.09,413c1.12,1.34,2.17,2.77,3.51,3.91.78-1,1.61-1.97,2.5-2.89-1.07-1.33-2.17-2.64-3.16-4.03-1.08.88-1.97,1.94-2.85,3.01Z"/>
      <path class="cls-5" d="m627.37,421.51c.95,1.37,1.97,2.7,2.98,4.02,1.18-1.18,2.33-2.41,3.52-3.58-.88-1.55-1.92-3-3-4.41-1.14,1.35-2.29,2.67-3.5,3.96Z"/>
      <path class="cls-5" d="m673.92,442.52c.93,1.26,1.85,2.53,2.97,3.63.76-1.25,1.61-2.45,2.31-3.73-.29-1.52-1.7-2.64-2.39-4.02-1.33,1.08-2.02,2.69-2.89,4.12Z"/>
      <path class="cls-5" d="m651.23,413.47c.85,1.03,1.75,2.03,2.76,2.93.84-1.04,1.68-2.08,2.52-3.13-.85-1.02-1.72-2.02-2.64-2.99-.91,1.04-1.78,2.11-2.64,3.19Z"/>
      <path class="cls-5" d="m638.44,427.77c-1.08,1.37-2.2,2.7-3.34,4,1.06,1.3,2.1,2.62,3.41,3.69.93-1.27,1.96-2.45,2.88-3.72-.42-1.57-1.74-2.89-2.95-3.98Z"/>
      <path class="cls-5" d="m638.2,465.99c-.92-1.3-1.65-2.82-3.02-3.68-.9,1.37-1.9,2.67-2.92,3.95.91,1.12,1.82,2.23,2.72,3.35,1-1.26,2.07-2.48,3.22-3.61Z"/>
      <path class="cls-5" d="m668.17,410.73c-.67,1.12-1.85,2.03-2.23,3.28.7,1.13,1.65,2.07,2.56,3.04.87-1.14,1.79-2.23,2.78-3.27-.67-1.35-1.9-2.23-3.11-3.05Z"/>
      <path class="cls-5" d="m622.44,426.02c-1.14-1.29-2.25-2.6-3.32-3.95-.75,1.28-1.77,2.45-2.23,3.89.63,1.43,1.6,2.66,2.41,3.99,1.32-1.07,2.17-2.56,3.14-3.93Z"/>
      <path class="cls-5" d="m657.17,451.13c-.76-1.61-2.12-3.06-3.56-4.16-.82,1.51-2.28,2.61-2.98,4.15.94,1.41,2.01,2.73,2.92,4.17,1.3-1.3,2.5-2.7,3.61-4.16Z"/>
      <path class="cls-5" d="m671.81,461.02c-.5-1.29-1.57-2.31-2.18-3.56-1.33.93-2.33,2.22-3.4,3.43.88,1.12,1.82,2.2,2.8,3.24.94-1.02,1.96-1.98,2.78-3.11Z"/>
      <path class="cls-5" d="m630.07,416.74c-.5-1.47-1.95-2.54-2.77-3.88-1.29.94-2.33,2.16-3.38,3.36.87,1.5,1.8,2.97,2.84,4.36,1.08-1.3,2.3-2.48,3.3-3.84Z"/>
      <path class="cls-5" d="m642.75,414.05c-1.38.67-2.1,2.25-3.16,3.34.98,1.33,2.04,2.6,3.17,3.83,1.08-1.16,2.17-2.33,3.24-3.49-1.09-1.22-1.91-2.74-3.25-3.68Z"/>
      <path class="cls-5" d="m620.32,439.4c.3,1.65,1.8,2.86,2.66,4.28.95-1.02,1.87-2.06,2.75-3.13-1-1.41-1.98-2.85-3.19-4.12-.75.98-1.55,1.93-2.22,2.97Z"/>
      <path class="cls-5" d="m650.3,414.5c-.86,1.04-1.74,2.07-2.64,3.08.87,1.1,1.8,2.15,2.78,3.16.89-1.1,1.76-2.2,2.64-3.31-.86-1.04-1.76-2.04-2.78-2.93Z"/>
      <path class="cls-5" d="m620.4,430.75c.22,1.47,1.63,2.54,2.37,3.82,1.07-1.33,2.3-2.54,3.34-3.89-.46-1.47-1.91-2.55-3.04-3.59-.87,1.23-1.86,2.38-2.66,3.66Z"/>
      <path class="cls-5" d="m664.87,414.78c-.89,1.04-1.74,2.12-2.53,3.24.93,1.12,1.87,2.24,2.81,3.36.86-1.06,1.69-2.15,2.46-3.27-.81-1.2-1.67-2.35-2.74-3.33Z"/>
      <path class="cls-5" d="m672.01,414.52c-.92,1.16-1.92,2.27-2.7,3.54.71,1.65,2.23,2.84,3.25,4.32,1.04-1.22,2-2.5,3.02-3.75-1.02-1.51-2.23-2.88-3.57-4.11Z"/>
      <path class="cls-5" d="m680.12,421.97c.8-1.08,1.61-2.15,2.42-3.22-.52-.63-1.02-1.27-1.52-1.89-.56-.57-1.17-1.08-1.76-1.61-.61,1.06-1.6,1.96-1.92,3.17.81,1.27,1.83,2.39,2.78,3.55Z"/>
      <path class="cls-5" d="m627.01,461.36c-.77-1.14-1.65-2.19-2.59-3.18-.74,1.18-1.55,2.33-2.22,3.56.28,1.1,1.05,1.97,1.61,2.94,1.25-.93,2.15-2.2,3.2-3.32Z"/>
      <path class="cls-5" d="m626.8,470.75c-.96-1.29-1.86-2.61-2.74-3.95-.96.88-1.88,1.8-2.74,2.78.79,1.26,1.57,2.53,2.34,3.81,1.17-.72,2.18-1.67,3.14-2.64Z"/>
      <path class="cls-5" d="m626.04,421.53c-1.06-1.51-2.06-3.1-3.47-4.31-.77,1.42-1.72,2.74-2.61,4.08,1.08,1.23,2.09,2.52,3.07,3.83,1.12-1.1,2.13-2.3,3.01-3.6Z"/>
      <path class="cls-5" d="m631.14,426.54c1.1,1.43,2.11,2.94,3.4,4.21,1.05-1.38,2.16-2.7,3.32-3.99-1.1-1.3-2.18-2.62-3.23-3.97-1.24,1.18-2.48,2.37-3.5,3.75Z"/>
      <path class="cls-5" d="m635.46,421.75c.85,1.51,2.01,2.78,3.19,4.03,1.09-1.21,2.15-2.44,3.19-3.69-.99-1.31-2-2.6-2.98-3.91-1.06,1.26-2.17,2.48-3.4,3.57Z"/>
      <path class="cls-5" d="m647.39,426.58c.89,1.26,1.92,2.41,2.83,3.67,1.14-1.24,2.78-2.45,3.11-4.14-.92-1.24-1.97-2.36-2.89-3.58-1.04,1.3-2.53,2.46-3.05,4.05Z"/>
      <path class="cls-5" d="m659.03,431.29c.98,1.27,1.98,2.54,2.98,3.79.93-1,1.92-1.97,2.66-3.13-.85-1.48-2.06-2.72-3.11-4.05-.81,1.16-1.65,2.29-2.54,3.39Z"/>
      <path class="cls-5" d="m633.93,451.51c-.89-1.53-2-2.91-3.06-4.32-1.01,1.32-1.98,2.66-2.89,4.05.96,1.45,2.09,2.79,3.36,3.98.76-1.3,2.09-2.32,2.58-3.72Z"/>
      <path class="cls-5" d="m670.68,491.41c-20.41-.05-40.9.92-61.23-1.39-.26-.01-.8-.03-1.06-.05.01,1.04.04,2.09.06,3.15,5.15.72,10.31,1.37,15.5,1.56,3.78.17,7.55.34,11.34.44.94-.12,1.89-.21,2.83-.28-.95.07-1.89.16-2.83.28,2.83.2,5.68.38,8.53.22.62.02,1.86.05,2.48.07,4.91,0,9.83.02,14.74,0,.61-.04,1.84-.11,2.46-.15-.71-.26-1.43-.41-2.16-.5.73.09,1.45.25,2.16.5h.13c3.13.07,6.26-.11,9.4-.24,1.53-.12,3.07-.27,4.61-.3,3.98-.07,7.93-.65,11.89-1.07.81-.11,1.62-.24,2.43-.4,1.19.21,2.33-.31,3.46-.61-.05-1.12-.09-2.25-.11-3.37-6.38,1.17-12.87,1.45-19.33,1.88-1.76.17-3.53.32-5.3.26Z"/>
      <path class="cls-5" d="m646.71,418.67c-1.22,1-2.11,2.37-3.33,3.4.92,1.27,1.97,2.44,3.15,3.48.86-1.39,2.42-2.49,2.82-4.06-.8-.98-1.47-2.29-2.64-2.81Z"/>
      <path class="cls-5" d="m653.55,418.56c-.79,1-1.6,1.98-2.43,2.95,1,1.36,2.09,2.65,3.29,3.85.84-1.08,1.69-2.14,2.55-3.2-1.08-1.26-2.17-2.51-3.42-3.6Z"/>
      <path class="cls-5" d="m676.53,419.51c-1.34.84-2.35,2.5-3.17,3.89.85,1.18,1.88,2.19,2.82,3.3.91-1.35,2.46-2.37,2.98-3.91-.77-1.18-1.61-2.33-2.64-3.28Z"/>
      <path class="cls-5" d="m686.58,432.09c.86-1.14,1.63-2.36,2.45-3.53-.95-.97-1.69-2.11-2.21-3.34-.23.22-.69.65-.92.88-.56.69-1.12,1.4-1.67,2.1.75,1.32,1.54,2.62,2.36,3.89Z"/>
      <path class="cls-5" d="m658.53,422.06c1.01,1.3,2.02,2.6,3.01,3.92,1.14-1.09,2.04-2.39,2.9-3.7-.99-1.16-2-2.31-2.97-3.48-.93,1.14-1.91,2.23-2.95,3.26Z"/>
      <path class="cls-5" d="m648.99,451.01c-.89-1.26-1.86-2.46-2.91-3.58-.85,1.15-1.76,2.25-2.72,3.31.83,1.45,1.71,2.89,2.64,4.28,1.04-1.3,2.03-2.64,2.98-4.01Z"/>
      <path class="cls-5" d="m668.15,419.17c-.77,1.07-1.53,2.15-2.27,3.26,1.2,1.16,1.97,2.79,3.33,3.75,1-.7,1.72-1.71,2.58-2.56-.98-1.67-2.21-3.17-3.65-4.45Z"/>
      <path class="cls-5" d="m623.97,426.04c.98,1.19,1.98,2.37,2.97,3.56.92-1.02,1.82-2.05,2.72-3.09-.96-1.32-1.93-2.62-2.93-3.89-.94,1.13-1.85,2.27-2.76,3.42Z"/>
      <path class="cls-5" d="m623.51,435.64c1.07,1.21,2.02,2.52,2.91,3.87,1.31-1.27,2.49-2.65,3.7-4-1.02-1.36-2.08-2.7-3.2-3.97-1.22,1.3-2.5,2.56-3.42,4.1Z"/>
      <path class="cls-5" d="m639.78,445.94c.95,1.24,1.61,3.01,3.01,3.75,1.05-.9,1.72-2.16,2.59-3.22-1-1.31-1.97-2.64-2.89-4-1.2.9-1.87,2.27-2.72,3.47Z"/>
      <path class="cls-5" d="m676.06,447.19c-.91-1.28-1.78-2.59-2.64-3.91-.96,1.19-1.87,2.42-2.74,3.68.89,1.3,1.69,2.68,2.84,3.79.84-1.2,1.69-2.38,2.54-3.57Z"/>
      <path class="cls-5" d="m630.55,456.26c-1.01-1.37-2.07-2.71-3.35-3.84-.68,1.53-1.4,3.05-2.19,4.52.8,1.12,1.67,2.19,2.58,3.23,1-1.3,2-2.6,2.97-3.91Z"/>
      <path class="cls-5" d="m634.59,461.29c-.93-1.5-2.12-2.81-3.24-4.16-1.02,1.33-2.06,2.65-3.14,3.94,1.16,1.4,2.09,3.07,3.69,4.04.83-1.33,1.86-2.5,2.69-3.83Z"/>
      <path class="cls-5" d="m693.18,463.69c.14-1.48-1.01-2.51-1.89-3.51-.89,1.35-1.77,2.7-2.67,4.05.73,1.12,1.46,2.26,2.18,3.4.93-1.21,2.2-2.35,2.38-3.95Z"/>
      <path class="cls-5" d="m639.37,426.98c1.04,1.14,2.03,2.33,2.95,3.56,1.14-1.37,2.31-2.72,3.22-4.24-1.04-1.08-2.01-2.23-3.18-3.16-1.03,1.26-2.1,2.48-3,3.83Z"/>
      <path class="cls-5" d="m657.63,423.13c-.73,1.2-1.91,2.17-2.35,3.5.87,1.26,1.89,2.43,2.79,3.68,1.16-.96,2.01-2.23,2.82-3.48-1.06-1.26-2.02-2.62-3.26-3.7Z"/>
      <path class="cls-5" d="m685.43,451.58c-.52-1.18-1.3-2.24-1.94-3.36-1.2.96-1.98,2.29-2.83,3.53.7,1.12,1.4,2.24,2.09,3.37,1-1.1,1.97-2.24,2.69-3.54Z"/>
      <path class="cls-5" d="m662.59,426.73c.56,1.59,1.93,2.84,3.03,4.13.89-1.17,1.76-2.35,2.64-3.52-1.04-1.33-2.06-2.68-3.06-4.02-.89,1.12-1.87,2.18-2.61,3.42Z"/>
      <path class="cls-5" d="m658.32,449.95c.75-1.33,1.79-2.47,2.71-3.69-.53-1.63-1.91-2.91-2.69-4.45-1.61.93-2.45,2.69-3.67,4.03,1.17,1.4,2.09,3.08,3.65,4.11Z"/>
      <path class="cls-5" d="m677.17,427.79c.85,1.37,1.92,2.6,2.98,3.81.89-1.16,1.76-2.34,2.62-3.54-.94-1.28-1.8-2.62-2.6-3.98-1.16,1.04-2.6,2.17-2.99,3.71Z"/>
      <path class="cls-5" d="m692.08,442.63l-.25-.42c-.64-1.1-1.33-2.16-2.06-3.2-.81,1.19-1.59,2.39-2.37,3.58.64,1.13,1.28,2.27,1.93,3.4.86-.89,1.63-1.86,2.38-2.85l.37-.51Z"/>
      <path class="cls-5" d="m626.69,451.36c-1.27-1.94-2.5-3.91-3.69-5.9-1,1.16-2.14,2.25-2.77,3.67,1.45,2.19,2.58,4.62,4.36,6.57.64-1.47,1.33-2.93,2.1-4.34Z"/>
      <path class="cls-5" d="m672.53,424.49c-1.13.7-1.78,1.97-2.72,2.89.92,1.22,1.83,2.47,3.03,3.44.67-1.12,1.96-2.02,2.25-3.29-.73-1.1-1.5-2.25-2.56-3.04Z"/>
      <path class="cls-5" d="m643.07,431.48c1.06,1.35,1.91,2.94,3.33,3.97.94-1.45,2.16-2.7,3.12-4.13-.77-1.55-2.08-2.74-3.23-4.01-1.01,1.43-2.09,2.82-3.22,4.17Z"/>
      <path class="cls-5" d="m651.37,431.29c.91,1.33,2.02,2.5,3.19,3.61.96-1.18,1.92-2.37,2.87-3.55-1.04-1.35-2.09-2.7-3.19-4.01-.87,1.35-2.41,2.43-2.88,3.95Z"/>
      <path class="cls-5" d="m630.6,436.47c-1.08,1.33-2.22,2.64-3.31,3.97,1.29,1.63,2.3,3.52,3.95,4.84.93-1.51,1.98-2.94,2.93-4.43-1.18-1.47-2.15-3.12-3.56-4.39Z"/>
      <path class="cls-5" d="m635.6,440.84c1.09,1.5,2.18,3.01,3.52,4.31.81-1.31,1.61-2.62,2.44-3.91-1.08-1.32-2.16-2.63-3.24-3.94-.9,1.19-1.81,2.37-2.72,3.54Z"/>
      <path class="cls-5" d="m657.32,440.87c-.83-1.41-1.74-2.8-3.02-3.85-1.05,1.41-2.15,2.78-3.25,4.15,1.02,1.15,1.68,2.71,2.99,3.58,1.21-1.2,2.08-2.68,3.28-3.88Z"/>
      <path class="cls-5" d="m635.49,460.2c1.26-.71,1.78-2.37,2.54-3.58-1.03-1.39-2.08-2.76-3.2-4.08-1.05,1.18-1.96,2.48-2.8,3.83,1.26,1.15,2.09,2.93,3.46,3.83Z"/>
      <path class="cls-5" d="m668.8,428.42c-.85,1.16-1.71,2.32-2.58,3.46,1.04,1.1,1.67,2.72,2.96,3.5,1.05-.99,1.86-2.22,2.65-3.42-.69-1.38-1.8-2.58-3.03-3.54Z"/>
      <path class="cls-5" d="m655.25,436.22c1.02,1.12,1.92,2.37,3.13,3.31.8-1.24,2.11-2.19,2.74-3.51-.79-1.37-1.83-2.58-2.93-3.71-1.04,1.27-2.11,2.5-2.94,3.91Z"/>
      <path class="cls-5" d="m673.41,431.89c1.08,1.42,2.11,2.89,3.11,4.37,1.08-1.08,1.92-2.37,2.76-3.64-1.04-1.36-2.06-2.74-3.06-4.12-1.12.96-2,2.17-2.82,3.4Z"/>
      <path class="cls-5" d="m680.75,432.74c.87,1.23,1.71,2.5,2.83,3.53.73-1.04,1.48-2.06,2.25-3.05-.81-1.37-1.63-2.74-2.56-4.03-.85,1.18-1.69,2.37-2.52,3.56Z"/>
      <path class="cls-5" d="m664.98,441.15c-1.02-1.33-1.81-2.85-3.04-4-1.2.99-2.02,2.35-3.09,3.47,1.04,1.51,2.09,3.02,3.18,4.51,1.06-1.27,2.02-2.62,2.95-3.98Z"/>
      <path class="cls-5" d="m680.85,442.02c.79,1.35,1.59,2.69,2.41,4.02,1-1.12,1.87-2.34,2.7-3.59-.86-1.4-1.72-2.81-2.76-4.08-.73,1.25-1.52,2.47-2.36,3.65Z"/>
      <path class="cls-5" d="m680.13,450.62c.77-1.23,1.64-2.39,2.56-3.5-.93-1.3-1.78-2.64-2.52-4.04-.98,1.33-1.82,2.75-2.68,4.16.77,1.2,1.52,2.46,2.64,3.39Z"/>
      <path class="cls-5" d="m662.81,435.87c.68,1.61,2.09,2.83,3.08,4.28.85-1.15,1.67-2.33,2.41-3.56-.87-1.31-1.8-2.58-2.85-3.75-.88,1-1.82,1.96-2.63,3.03Z"/>
      <path class="cls-5" d="m653.2,445.83c-.94-1.29-1.92-2.56-3.09-3.64-.98,1.43-2.17,2.7-3.15,4.12.79,1.32,1.78,2.5,2.68,3.75,1.41-1.22,2.48-2.75,3.57-4.24Z"/>
      <path class="cls-5" d="m669.29,446.74c-1.22-1.49-2.27-3.11-3.44-4.65-1.08,1.3-2.1,2.65-3.16,3.97,1.26,1.56,2.25,3.34,3.7,4.74.98-1.35,1.99-2.67,2.89-4.06Z"/>
      <path class="cls-5" d="m657.25,461.72c-1.26-1.48-2.39-3.05-3.61-4.55-1.16,1.46-2.34,2.91-3.5,4.37,1.23,1.33,2.39,2.74,3.46,4.21,1.24-1.32,2.44-2.68,3.65-4.03Z"/>
      <path class="cls-5" d="m683.67,427.17c.47-.59.94-1.18,1.41-1.76,1.67-2.08-1.16-3.93-2.06-5.68-.69,1.1-1.45,2.15-2.21,3.21.89,1.45,1.84,2.86,2.86,4.23Z"/>
      <path class="cls-5" d="m649.4,441.23c-.83-1.46-2.09-2.62-3.03-4-1.29,1.2-2.35,2.6-3.42,3.99,1.12,1.4,1.78,3.38,3.5,4.18.82-1.5,1.96-2.78,2.95-4.16Z"/>
      <path class="cls-5" d="m690.12,447.09c.55.88,1.1,1.76,1.65,2.64.29-.18.88-.54,1.17-.73.3-1.77.35-3.56.03-5.33l-.63.25c-.74,1.06-1.48,2.11-2.22,3.17Z"/>
      <path class="cls-5" d="m618.69,430.75c-.85-1.19-1.72-2.37-2.72-3.43-.56,1.08-1.59,2.04-1.64,3.31.58,1.24,1.46,2.31,2.39,3.3.72-1.02,1.37-2.09,1.97-3.19Z"/>
      <path class="cls-5" d="m690.08,436.83c.38-.69.75-1.39,1.14-2.07-.11-1.66-1-3.19-2.03-4.46-.6.98-1.23,1.94-1.86,2.91.85,1.26,1.76,2.47,2.75,3.63Z"/>
      <path class="cls-5" d="m615.64,434.68c-.48-1-1.24-1.83-1.96-2.65-.43.68-.87,1.36-1.28,2.06-.27,1.62-.03,3.22.67,4.71.95-1.3,2.16-2.53,2.56-4.12Z"/>
      <path class="cls-5" d="m617.28,434.8c.64,1.32,1.41,2.56,2.29,3.74.85-1.01,1.67-2.04,2.45-3.11-.88-1.18-1.7-2.39-2.48-3.63-.79.97-1.55,1.97-2.27,2.99Z"/>
      <path class="cls-5" d="m669.82,436.6c.98,1.55,2.1,3.26,3.37,4.5,1.1-1.1,1.74-2.62,2.69-3.86-1.08-1.5-2.18-2.98-3.28-4.45-.91,1.28-1.91,2.5-2.78,3.81Z"/>
      <path class="cls-5" d="m687.24,464.24c-.57-1.09-1.17-2.17-1.78-3.23-1.24,1.04-2.06,2.44-2.77,3.87.68.87,1.35,1.76,2.02,2.66.83-1.11,1.68-2.21,2.53-3.3Z"/>
      <path class="cls-5" d="m677.3,437.35c.89,1.3,1.8,2.58,2.78,3.83.89-1.28,1.74-2.58,2.57-3.91-.85-1.16-1.66-2.34-2.45-3.53-1.06,1.12-1.97,2.37-2.9,3.6Z"/>
      <path class="cls-5" d="m684.02,437.35c.91,1.34,1.78,2.72,2.61,4.12.98-1.08,1.8-2.31,2.57-3.55-.89-1.26-1.72-2.56-2.52-3.87-.93,1.06-1.82,2.16-2.66,3.3Z"/>
      <path class="cls-5" d="m613.8,439.85c.86,1.08,1.62,2.23,2.33,3.42.99-1.12,1.82-2.35,2.65-3.59-.71-1.26-1.48-2.48-2.37-3.6-.89,1.24-1.75,2.51-2.61,3.78Z"/>
      <path class="cls-5" d="m668.83,437.78c-.57,1.17-1.86,2.15-2.02,3.42,1.19,1.43,1.86,3.52,3.4,4.51.91-1.13,1.63-2.39,2.38-3.61-1.37-1.33-2.27-3.1-3.75-4.32Z"/>
      <path class="cls-5" d="m616.88,444.05c.79,1.31,1.58,2.61,2.37,3.92,1.2-.93,2.15-2.15,2.95-3.44-.79-1.33-1.8-2.51-2.69-3.76-.96,1.02-1.82,2.13-2.62,3.28Z"/>
      <path class="cls-5" d="m623.71,444.51c1.15,1.85,2.35,3.67,3.42,5.57,1.21-1.17,2.17-2.55,3.07-3.96-1.4-1.5-2.56-3.19-3.77-4.83-.96,1.03-1.86,2.1-2.72,3.22Z"/>
      <path class="cls-5" d="m631.79,446.38c1.04,1.47,1.84,3.3,3.44,4.25.81-1.62,2.35-2.92,2.85-4.63-.96-1.43-2.14-2.69-3.22-4.02-.95,1.48-2.46,2.78-3.07,4.4Z"/>
      <path class="cls-5" d="m646.05,464.59c1.17-.81,1.92-2.05,2.74-3.18-1.27-1.32-2.21-2.88-3.01-4.51-1.04,1.2-1.94,2.51-2.82,3.82,1.02,1.29,1.8,2.82,3.09,3.87Z"/>
      <path class="cls-5" d="m641.97,450.76c-1.03-1.19-2.06-2.39-3.05-3.61-1.04,1.47-2.13,2.91-3.32,4.28.96,1.47,2,2.89,3.15,4.24,1.2-1.55,2.23-3.21,3.22-4.9Z"/>
      <path class="cls-5" d="m672.38,451.71c-.48-1.43-1.63-2.54-2.43-3.79-1.13,1.21-2.09,2.56-3,3.94.88,1.26,1.8,2.5,2.8,3.67.86-1.28,1.84-2.49,2.63-3.82Z"/>
      <path class="cls-5" d="m676.48,455.18c.99-1.1,1.83-2.33,2.8-3.46-.78-1.19-1.58-2.37-2.4-3.52-1.08,1.09-1.99,2.32-2.87,3.57.85,1.1,1.29,2.64,2.47,3.4Z"/>
      <path class="cls-5" d="m686.93,451.31c.53.94,1.06,1.86,1.61,2.8,1.02-.91,1.84-2,2.66-3.09-.56-.94-1.12-1.88-1.67-2.8-.88,1.02-1.74,2.06-2.6,3.09Z"/>
      <path class="cls-5" d="m613.11,456.6c.97-1.1,1.82-2.31,2.68-3.49-.75-1.27-1.35-2.68-2.53-3.61-.57,1.39-1.52,2.7-1.69,4.22.42,1,1,1.94,1.54,2.89Z"/>
      <path class="cls-5" d="m674.91,465.17c-.83-1-1.38-2.32-2.48-3.05-1.04.81-1.94,1.8-2.68,2.89.75,1.19,1.78,2.17,2.73,3.2.87-.96,1.69-1.98,2.43-3.05Z"/>
      <path class="cls-5" d="m619.2,450.11c-.75,1.1-1.49,2.2-2.21,3.32.59.92,1.14,1.88,1.73,2.8,1.35-.26,1.78-2.13,2.72-3.06-.65-1.09-1.37-2.14-2.24-3.07Z"/>
      <path class="cls-5" d="m645.15,455.8c-.79-1.41-1.64-2.79-2.72-3.98-.85,1.63-1.83,3.19-2.96,4.63.9,1.17,1.81,2.33,2.75,3.48,1.08-1.3,1.96-2.75,2.93-4.12Z"/>
      <path class="cls-5" d="m649.69,460.57c1.02-1.46,2.1-2.87,3.24-4.24-1-1.51-1.96-3.08-3.36-4.26-1.05,1.37-2.08,2.76-3.01,4.21,1.05,1.41,1.64,3.24,3.13,4.29Z"/>
      <path class="cls-5" d="m688.05,455.15c-.6-.96-1.28-1.87-2.06-2.7-.85,1.26-1.67,2.54-2.52,3.81.61.92,1.23,1.84,1.83,2.78.95-1.28,1.86-2.58,2.74-3.89Z"/>
      <path class="cls-5" d="m693.1,454.26c-.5-.75-1-1.49-1.47-2.24-.75,1-1.49,2-2.18,3.04.68,1,1.37,1.99,2.05,3.01.48-.74.96-1.47,1.46-2.19.03-.4.11-1.21.15-1.61Z"/>
      <path class="cls-5" d="m668.87,456.38c-.89-1.14-1.74-2.31-2.57-3.49-1.16,1.18-2.09,2.55-3.22,3.77.73,1.12,1.52,2.21,2.35,3.27,1.2-1.12,2.34-2.32,3.44-3.55Z"/>
      <path class="cls-5" d="m616.1,460.61c.67-1.1,1.47-2.13,1.99-3.32-.45-1.1-1.13-2.07-1.74-3.07-.92,1.08-1.71,2.27-2.46,3.48.61,1.06,1.17,2.2,2.22,2.91Z"/>
      <path class="cls-5" d="m672.97,459.79c.95-1.06,1.78-2.23,2.67-3.34-.71-1.34-1.51-2.63-2.4-3.85-1,1.26-1.96,2.56-2.89,3.87.86,1.05,1.12,3.11,2.62,3.33Z"/>
      <path class="cls-5" d="m682.12,456.32c-.62-1.28-1.36-2.49-2.27-3.57-.99,1.18-1.92,2.41-2.81,3.67.74,1.22,1.55,2.4,2.48,3.49.83-1.22,1.69-2.43,2.6-3.59Z"/>
      <path class="cls-5" d="m623.87,456.95c-.53-.97-1.14-1.9-1.95-2.65-.86,1.09-1.67,2.21-2.46,3.35.62.97,1.21,1.96,1.78,2.96,1.15-1,1.82-2.4,2.62-3.66Z"/>
      <path class="cls-5" d="m612.68,457.77c-.65-1.06-1.35-2.09-2.07-3.09-.23.39-.69,1.18-.92,1.57-.98,1.59-.04,3.19.94,4.48.65-1.02,1.35-1.99,2.05-2.95Z"/>
      <path class="cls-5" d="m690.69,459.12c-.65-.98-1.28-1.98-1.89-2.97-1.08,1.11-1.93,2.41-2.81,3.69.61,1.16,1.29,2.29,2.09,3.34.89-1.34,1.8-2.66,2.61-4.05Z"/>
      <path class="cls-5" d="m641.65,461.07c-.93-1.13-1.65-2.45-2.8-3.36-1.07,1-1.75,2.36-2.6,3.55.59,1.34,1.78,2.35,2.65,3.53,1.06-1.13,1.93-2.41,2.75-3.71Z"/>
      <path class="cls-5" d="m664.79,460.92c-.72-1.16-1.57-2.23-2.45-3.26-1.3,1.3-2.5,2.68-3.71,4.06.72.97,1.43,1.95,2.12,2.95,1.56-1,2.68-2.51,4.04-3.74Z"/>
      <path class="cls-5" d="m693,457.59c-.82.8-.97,2.05-.13,2.9,1.14-.24,1.3-2.63.13-2.9Z"/>
      <path class="cls-5" d="m613.48,464.35c.55-.89,1.1-1.78,1.66-2.66-.58-.93-1.16-1.88-1.72-2.82-.88.77-1.49,1.76-2.07,2.76.71.91,1.42,1.81,2.14,2.72Z"/>
      <path class="cls-5" d="m620.86,462.02c-.56-1.26-1.25-2.46-2.27-3.4-.66,1.04-1.33,2.08-2.03,3.1.51,1.01,1.06,2.01,1.66,2.97.95-.82,1.82-1.72,2.64-2.67Z"/>
      <path class="cls-5" d="m671.7,469.05c-.95-1.12-1.94-2.21-3.11-3.11-.67.89-1.32,1.78-1.94,2.7-.36-.36-.71-.73-1.06-1.09.94-.75,1.78-1.61,2.57-2.52-.89-1.07-1.73-2.17-2.56-3.28-1.31,1.23-2.97,2.31-3.77,3.94,1.9,2.44,4.1,4.67,6.37,6.79,1.12-1.18,2.3-2.31,3.49-3.42Z"/>
      <path class="cls-5" d="m631.01,465.96c-1.25-1.06-2.35-2.29-3.07-3.77-1.37.92-2.25,2.36-3.3,3.59.96,1.3,1.7,2.78,2.89,3.9,1.48-.81,2.45-2.4,3.48-3.73Z"/>
      <path class="cls-5" d="m612.73,465.56c-.61-.91-1.22-1.8-1.82-2.71-2.18.47-.96,3.57-.22,4.94.65-.77,1.35-1.5,2.04-2.23Z"/>
      <path class="cls-5" d="m616.09,467.8c.54-.69,1.08-1.39,1.63-2.07-.55-.89-1.07-1.78-1.67-2.62-1.23-.11-1.34,1.69-1.86,2.48.63.74,1.28,1.46,1.9,2.21Z"/>
      <path class="cls-5" d="m620.95,468.48c.96-.81,1.67-1.86,2.45-2.83-.65-.99-1.34-1.94-2.14-2.81-.73.98-1.5,1.94-2.33,2.84.66.9.92,2.36,2.02,2.8Z"/>
      <path class="cls-5" d="m650.06,469.5c1-.98,1.96-2,2.81-3.12-1.17-1.28-2.31-2.57-3.43-3.88-.94,1.05-1.94,2.05-2.81,3.17.92,1.46,2.28,2.56,3.43,3.83Z"/>
      <path class="cls-5" d="m660.18,465.64c-.76-1.04-1.45-2.19-2.6-2.84-1.02,1.23-2.06,2.43-3.13,3.61.61,1.07,1.37,2.05,2.2,2.97,1.24-1.18,2.41-2.43,3.53-3.73Z"/>
      <path class="cls-5" d="m687.98,471.34c.75-.78,1.39-1.67,2.07-2.5-.64-1.28-1.32-2.54-2.04-3.77-.98,1.34-3.57,3.06-1.83,4.78.53.47.89,1.93,1.8,1.49Z"/>
      <path class="cls-5" d="m684.03,468.45c-.67-.96-1.35-1.91-2.06-2.83-.79,1.17-1.61,2.31-2.48,3.43.75.89,1.5,1.77,2.25,2.66.77-1.08,1.53-2.17,2.29-3.26Z"/>
      <path class="cls-5" d="m615.28,468.83c-.6-.89-1.21-1.76-1.81-2.63-.67.77-1.3,1.57-1.88,2.41.64.78,1.28,1.56,1.91,2.36.59-.71,1.18-1.43,1.78-2.13Z"/>
      <path class="cls-5" d="m620.07,469.56c-.54-.92-.98-1.94-1.76-2.68-.97.12-1.15,1.43-1.76,2.05.54.86,1.09,1.71,1.63,2.58.62-.66,1.26-1.32,1.89-1.96Z"/>
      <path class="cls-5" d="m641.28,469.65c-.81-.93-1.37-2.15-2.45-2.78-1.32.93-2.13,2.44-3.27,3.58.75,1.04,1.57,2.04,2.44,2.99,1.16-1.21,2.25-2.47,3.28-3.79Z"/>
      <path class="cls-5" d="m653.31,472.99c.96-.79,1.74-1.78,2.56-2.71-.67-1.06-1.45-2.03-2.39-2.83-.87,1-1.75,1.98-2.64,2.96.79.89,1.47,1.9,2.47,2.58Z"/>
      <path class="cls-5" d="m610.24,468.62v.16s0-.1,0-.16Z"/>
      <path class="cls-5" d="m610.24,468.62v-.16s0,.1,0,.16Z"/>
      <path class="cls-5" d="m687.15,472.93c-.74-1.25-1.63-2.4-2.57-3.5-.84,1.16-1.61,2.35-2.31,3.6,1.63.08,3.26.04,4.88-.11Z"/>
      <path class="cls-5" d="m617.16,473.02c-.02-.34-.06-1.03-.08-1.37-.41-.64-.84-1.26-1.28-1.87-.76.96-1.51,1.92-2.27,2.87,1.18.3,2.4.44,3.62.37Z"/>
      <path class="cls-5" d="m680.85,473.18c.24-1.36-1.43-2.15-2.14-3.14-.65,1-1.32,1.99-1.98,2.98,1.33.42,2.75.32,4.12.16Z"/>
      <path class="cls-5" d="m622.53,474.33l-.07-.85c-.63-1.01-1.3-2-1.96-2.97-.56.59-1.12,1.19-1.68,1.78-.75,2.13,2.54,1.51,3.71,2.04Z"/>
      <path class="cls-5" d="m645.28,474.21c-.93-1.34-2.02-2.54-3.2-3.66-1.15,1.26-2.29,2.52-3.56,3.67h.67c2.03.05,4.06.03,6.09-.01Z"/>
      <path class="cls-5" d="m659.63,474.23l-.34-.6c-.85-.94-1.72-1.84-2.6-2.74-.98,1.12-1.94,2.25-2.96,3.32,1.96.05,3.93.08,5.9.02Z"/>
      <path class="cls-5" d="m664.4,470.55c-1.06,1.11-2.15,2.24-2.85,3.63,1.94-.05,3.9-.18,5.82-.52-.94-1.09-1.94-2.12-2.97-3.11Z"/>
      <path class="cls-5" d="m629.58,474.23c-.68-.98-1.42-1.92-2.31-2.7-.79.95-1.63,1.84-2.5,2.7,1.6.02,3.21.04,4.82,0Z"/>
      <path class="cls-5" d="m636.95,474.21c-.65-1-1.37-1.96-2.12-2.87-1,.9-1.94,1.86-2.79,2.9,1.64.05,3.28.04,4.91-.03Z"/>
      <path class="cls-5" d="m652.54,474.23c-.79-1.04-1.63-2.06-2.5-3.03-.96.97-1.9,1.96-2.8,2.97l.71.03c1.53.05,3.06.05,4.59.03Z"/>
      <path class="cls-5" d="m693.92,483.42c-4.51.77-9.1.69-13.65,1.01.45.07.9.15,1.34.24-.45-.09-.89-.17-1.34-.24-1.64.08-3.28.17-4.92.19-2.05.13-4.1.24-6.15.22-1.2,0-2.4.03-3.59.05-5.72,0-11.46-.22-17.17.1-10.31.03-20.6-.63-30.87-1.41-3.26-.3-6.47-.91-9.7-1.33.26,1.46.49,2.93.69,4.4.67.14,1.34.26,2.02.38,7.72.73,15.46,1.61,23.23,1.61.18,0,.53.01.7.01,9.44.3,18.88,0,28.32.05,3.52.2,7.04,0,10.57-.18,3.56-.04,7.11-.26,10.66-.45,2.56-.03,5.11-.43,7.65-.8.45-.07,1.35-.19,1.8-.25.4-.06,1.2-.18,1.6-.24-.03-1.12-.04-2.23-.05-3.34-.28,0-.85-.02-1.12-.03Z"/>
      <path class="cls-4" d="m715.45,501.95c-.1,0-.21.02-.34.03.13,0,.24-.02.34-.03v-.79c-.88.03-1.76.05-2.62.08-.07,3.87-.04,7.75.04,11.62h0c-.02.39-.07,1.17-.09,1.55.87-.01,1.74-.03,2.62-.03v-.59c.1-3.95.04-7.9.06-11.84Z"/>
      <path class="cls-4" d="m718.97,501.97c-.61,0-1.84.02-2.45.03.01,3.4-.1,6.81.05,10.22l1.22.22c.12-3.18.11-6.35.02-9.53.13,0,.4,0,.53,0-.31,3.09.42,6.28-.49,9.3.39.01,1.16.03,1.55.05.07-3.43.03-6.86.09-10.28h-.52Z"/>
      <path class="cls-5" d="m694.55,525.08c-9.63,1.18-19.29,2.15-28.98,2.76-1.28,0-2.56.07-3.84.14h0c-7.84.31-15.71.46-23.54-.02-.54.25-1.06.54-1.57.83.51-.29,1.03-.57,1.57-.83-3.88-.15-7.74-.54-11.61-.69-1.33-.15-2.68-.29-4.02-.31l.45-.15c-.81-.16-1.63-.18-2.44-.07-4.14-.67-8.29-1.28-12.45-1.76v2.74c.79.15,1.58.28,2.37.42,7.58,1.14,15.23,1.58,22.88,2.06,1.07.05,2.15.07,3.22.07h0c7.84.43,15.69.16,23.53.03,1.78.05,3.56-.07,5.33-.17,2.87-.07,5.74-.27,8.62-.43,1.07-.03,2.15-.1,3.22-.19,5.94-.31,11.81-1.46,17.75-1.71.13-.85.27-1.69.42-2.52-.23-.05-.69-.15-.92-.2Z"/>
      <path class="cls-5" d="m616.16,531.78c-2.64-.21-5.27-.66-7.84-1.3-.03.71-.91,2.07.24,2.29,7.04.92,14.08,1.92,21.18,2.36.64.03,1.28.07,1.93.12,6.1.51,12.21,1.02,18.34.87,13.86-.2,27.76-.83,41.5-2.81,1.3-.18,2.6-.34,3.9-.48.01-.82.03-1.64.05-2.45h-.92c-25.96,3.31-52.32,4.07-78.37,1.4Z"/>
      <path class="cls-4" d="m590.48,501.22c-.89.02-1.76.04-2.64.07v.75c.14,4.09-.09,8.19,0,12.28l.05.22c.89,0,1.78,0,2.67-.01-.06-4.21-.03-8.41-.05-12.62v-.67Z"/>
    </g>
  </g>
  <g>
    <g>
      <path class="cls-2" d="m347.29,841.19h6.88c4.65,0,7.44,2.79,9.29,6.51,7.25,14.69,23.98,24.35,45.36,24.35s40.15-8.18,40.15-27.14c0-43.13-96.11-20.63-96.11-76.59,0-23.42,20.82-37.92,47.96-37.92,36.06,0,56.7,21.94,60.23,43.87h-6.88c-4.65,0-7.44-2.79-9.29-6.51-7.25-14.69-22.68-24.35-44.06-24.35s-34.02,9.48-34.02,24.91c0,43.31,96.11,21.19,96.11,76.59,0,25.28-21.19,40.15-54.1,40.15-36.06,0-58-21.94-61.53-43.87Z"/>
      <path class="cls-2" d="m461.06,739.31v-5.95h66.18v141.1c0,4.28-2.97,7.62-6.88,7.62h-7.06v-135.7h-44.61c-4.28,0-7.62-2.97-7.62-7.06Zm80.12-5.95h38.29v5.95c0,4.09-3.35,7.06-7.62,7.06h-23.05c-4.28,0-7.62-2.97-7.62-7.06v-5.95Z"/>
      <path class="cls-2" d="m605.5,740.99v86.26c0,27.51,17.29,44.8,44.62,44.8s44.61-17.29,44.61-44.8v-86.26c0-4.28,2.97-7.62,7.06-7.62h6.88v93.88c0,35.51-22.49,57.81-58.56,57.81s-58.56-22.31-58.56-57.81v-93.88h6.88c4.09,0,7.06,3.35,7.06,7.62Z"/>
      <path class="cls-2" d="m825.41,824.27v-33.09c0-27.51-17.29-44.8-44.61-44.8h-37.74v47.22c0,4.28-2.97,7.62-6.88,7.62h-7.06v-67.85h51.68c36.06,0,58.56,22.31,58.56,57.81v33.09c0,35.51-22.49,57.81-58.56,57.81h-48.52v-5.95c0-4.09,3.35-7.06,7.62-7.06h40.9c27.33,0,44.61-17.29,44.61-44.8Z"/>
      <path class="cls-2" d="m856.08,733.37h6.88c4.09,0,7.06,3.35,7.06,7.62v133.47c0,4.28-2.97,7.62-6.88,7.62h-7.06v-148.72Z"/>
      <path class="cls-2" d="m886.75,788.21c0-35.51,22.49-57.81,58.56-57.81s58.56,22.31,58.56,57.81v39.04c0,35.51-22.49,57.81-58.56,57.81s-58.56-22.31-58.56-57.81v-39.04Zm58.56,83.84c27.33,0,44.62-17.29,44.62-44.8v-39.04c0-27.51-17.29-44.8-44.62-44.8s-44.61,17.29-44.61,44.8v39.04c0,27.51,17.29,44.8,44.61,44.8Z"/>
    </g>
    <g>
      <path class="cls-3" d="m395.43,946.69v1.23c-.95.18-1.77.43-2.45.77-.68.33-1.27.77-1.78,1.3-.51.53-.96,1.17-1.35,1.91s-.78,1.59-1.18,2.55l-15.75,38.42h-1.23l-16.91-38.92c-.89-2.04-1.5-3.26-1.83-3.66-.55-.69-1.23-1.23-2.03-1.61-.8-.39-1.9-.64-3.3-.75v-1.23h18.44v1.23c-1.07.11-1.93.26-2.58.43-.65.18-1.16.39-1.51.65-.36.26-.59.54-.72.87-.12.32-.18.68-.18,1.08,0,1.13.51,2.86,1.53,5.19l11.49,26.47,10.65-26.13c1.04-2.6,1.56-4.38,1.56-5.36,0-.69-.36-1.34-1.08-1.95-.72-.61-1.96-1.03-3.71-1.25v-1.23h13.92Z"/>
      <path class="cls-3" d="m428.97,945.66c5.84,0,10.91,2.23,15.21,6.69,4.31,4.44,6.46,9.99,6.46,16.64s-2.16,12.55-6.49,17.08c-4.33,4.53-9.57,6.79-15.71,6.79s-11.46-2.21-15.68-6.63c-4.22-4.42-6.32-10.13-6.32-17.14s2.44-13.02,7.32-17.54c4.24-3.93,9.31-5.89,15.21-5.89Zm-.63,2.43c-2.29,0-4.32.49-6.09,1.47s-3.27,2.37-4.48,4.18c-1.21,1.81-2.13,4-2.76,6.57-.63,2.58-.95,5.46-.95,8.66s.31,6.08.93,8.72c.62,2.64,1.54,4.91,2.75,6.81,1.21,1.9,2.7,3.37,4.48,4.43,1.78,1.05,3.83,1.58,6.16,1.58,2.09,0,4.02-.4,5.81-1.2,1.79-.8,3.33-2.04,4.64-3.71,1.31-1.68,2.34-3.81,3.08-6.41.74-2.6,1.12-5.69,1.12-9.29s-.31-6.51-.92-9.2c-.61-2.7-1.53-4.98-2.76-6.84-1.23-1.86-2.76-3.29-4.59-4.28-1.83-.99-3.97-1.48-6.41-1.48Z"/>
      <path class="cls-3" d="m482.09,990.6v1.23h-19.34v-1.23h1.6c1.89,0,3.24-.54,4.06-1.63.53-.69.8-2.4.8-5.13v-29.16c0-1.06-.02-1.93-.07-2.6s-.13-1.22-.25-1.65c-.12-.43-.3-.77-.53-1.01s-.55-.48-.95-.7c-.98-.53-2-.8-3.06-.8h-1.6v-1.23h19.34v1.23h-1.63c-1.86,0-3.21.54-4.03,1.63-.55.69-.83,2.4-.83,5.13v29.16c0,1.07.02,1.93.07,2.6s.13,1.21.25,1.63c.12.42.3.76.55,1.02.24.25.57.49.97.72.95.53,1.96.8,3.03.8h1.63Z"/>
      <path class="cls-3" d="m519.35,966.83l9.69,14.45c1.35,2.02,2.52,3.66,3.51,4.91.99,1.25,1.8,2.15,2.45,2.68,1.29,1.04,2.94,1.62,4.96,1.73v1.23h-19.37v-1.23c1.53-.04,2.66-.28,3.38-.7.72-.42,1.08-1.04,1.08-1.86,0-.29,0-.52.02-.68.01-.17-.05-.38-.17-.65-.12-.27-.33-.63-.63-1.1s-.75-1.14-1.35-2.03l-7.66-11.58-9.45,12.12c-.53.67-.94,1.2-1.22,1.6-.28.4-.48.73-.62,1-.13.27-.21.49-.23.68-.02.19-.03.41-.03.65,0,.36.07.68.2.98.13.3.37.56.7.78.33.22.78.4,1.33.55.55.14,1.25.23,2.1.25v1.23h-16.01v-1.23c1.4-.11,2.64-.44,3.71-1,1.08-.55,2.12-1.23,3.15-2.03,1.26-1,2.69-2.5,4.26-4.49l10.65-13.45-8.89-13.02c-2.44-3.53-4.49-5.84-6.16-6.92-1.71-1.11-3.65-1.7-5.83-1.76v-1.23h20.87v1.23c-.89.05-1.63.14-2.23.3-.6.16-1.08.35-1.43.58-.36.23-.6.49-.75.78-.14.29-.22.59-.22.9,0,.84.53,2.04,1.6,3.6l6.92,10.35,8.02-10.15c.49-.62.87-1.12,1.15-1.5.28-.38.48-.7.62-.97.13-.27.21-.5.23-.7.02-.2.03-.42.03-.67,0-.51-.17-.97-.5-1.37-.33-.4-.72-.68-1.17-.83-.24-.09-.63-.16-1.17-.22-.53-.06-1.2-.09-2-.12v-1.23h16.01v1.23c-.75.05-1.43.14-2.03.28-.6.14-1.15.33-1.65.55-.5.22-.97.49-1.41.8-.44.31-.88.65-1.3,1.03-.95.84-2.36,2.44-4.23,4.79l-8.96,11.45Z"/>
      <path class="cls-3" d="m574.51,991.83v-1.23h1.7c1.89,0,3.24-.61,4.06-1.83.49-.71.73-2.35.73-4.93v-29.16c0-2.84-.31-4.6-.93-5.29-.87-.98-2.15-1.47-3.86-1.47h-1.7v-1.23h18.38c6.75,0,11.87.77,15.38,2.3,3.53,1.53,6.36,4.08,8.49,7.66,2.15,3.55,3.23,7.68,3.23,12.38,0,3.33-.54,6.39-1.61,9.19-1.08,2.8-2.67,5.2-4.79,7.21-2.12,2.01-4.76,3.58-7.92,4.71s-6.82,1.7-10.97,1.7h-20.17Zm12.88-3.26c2.77.62,5.14.93,7.09.93,2.55,0,4.92-.47,7.11-1.42,2.19-.94,4.08-2.29,5.68-4.03,1.6-1.74,2.85-3.86,3.76-6.34.91-2.49,1.36-5.27,1.36-8.36s-.45-5.9-1.35-8.39c-.9-2.49-2.15-4.6-3.76-6.34-1.61-1.74-3.53-3.08-5.76-4.01s-4.67-1.4-7.31-1.4c-1,0-2.06.08-3.2.25s-2.34.41-3.63.72v38.38Z"/>
      <path class="cls-3" d="m638.28,962.9v-1.56c1-.6,1.85-1.16,2.55-1.68.7-.52,1.27-1.05,1.71-1.58.44-.53.77-1.09.97-1.66.2-.58.3-1.21.3-1.9s-.13-1.23-.38-1.55-.54-.48-.85-.48c-.13,0-.3.03-.52.08-.21.06-.43.12-.67.18-.23.07-.46.13-.68.18-.22.06-.4.08-.53.08-.44,0-.87-.09-1.28-.27-.41-.18-.77-.42-1.08-.73s-.56-.68-.75-1.1c-.19-.42-.28-.89-.28-1.4,0-.64.13-1.2.38-1.68s.59-.88,1-1.2c.41-.32.88-.57,1.4-.73.52-.17,1.05-.25,1.58-.25.73,0,1.45.17,2.15.52.7.34,1.32.81,1.85,1.4s.97,1.28,1.3,2.08c.33.8.5,1.65.5,2.56,0,1.07-.17,2.11-.5,3.15-.33,1.03-.85,2.01-1.55,2.95-.7.93-1.59,1.79-2.68,2.58-1.09.79-2.4,1.46-3.93,2.01Z"/>
      <path class="cls-3" d="m692.02,976.72h-17.48l-3.06,7.12c-.75,1.73-1.13,3.04-1.13,3.93,0,.36.06.68.18.98.12.3.37.58.75.83.38.26.91.47,1.6.63.69.17,1.59.29,2.7.38v1.23h-14.22v-1.23c1.86-.33,3.08-.77,3.66-1.3.58-.53,1.17-1.34,1.78-2.41.61-1.08,1.27-2.44,1.98-4.08l15.88-37.15h1.17l15.71,37.55c.64,1.55,1.24,2.8,1.78,3.74.54.94,1.1,1.68,1.68,2.2.58.52,1.2.88,1.88,1.08s1.48.32,2.41.37v1.23h-17.81v-1.23c.89-.04,1.63-.14,2.23-.3.6-.15,1.07-.35,1.41-.6.34-.24.59-.52.73-.83.14-.31.22-.65.22-1.03.02-.49-.08-1.12-.32-1.88-.23-.77-.57-1.68-1.02-2.75l-2.73-6.49Zm-.93-2.46l-7.66-18.24-7.86,18.24h15.51Z"/>
      <path class="cls-3" d="m731.79,949.15v17.74h8.22c.95,0,1.77-.09,2.45-.27.68-.18,1.25-.5,1.71-.97s.83-1.1,1.1-1.9c.27-.8.48-1.82.63-3.06h1.23v15.28h-1.23c-.02-1.13-.13-2.1-.33-2.9-.2-.8-.52-1.45-.97-1.96s-1.04-.88-1.78-1.12-1.68-.35-2.81-.35h-8.22v14.18c0,1.07.02,1.93.07,2.6s.13,1.21.25,1.63c.12.42.3.76.55,1.02s.57.49.97.72c.95.53,1.98.8,3.06.8h1.63v1.23h-19.37v-1.23h1.6c1.89,0,3.24-.54,4.06-1.63.53-.69.8-2.4.8-5.13v-29.16c0-1.06-.02-1.93-.07-2.6s-.13-1.22-.25-1.65c-.12-.43-.3-.77-.53-1.01s-.55-.48-.95-.7c-.98-.53-2-.8-3.06-.8h-1.6v-1.23h33.59v9.92h-.73c-.44-1.62-.94-2.92-1.48-3.89-.54-.98-1.21-1.73-2-2.26-.79-.53-1.71-.88-2.78-1.05-1.06-.17-2.33-.25-3.79-.25h-9.95Z"/>
      <path class="cls-3" d="m809.6,991.83h-12.05l-15.28-21.11c-.58.02-1.09.04-1.55.05-.46.01-.86.02-1.22.02-.29,0-.6,0-.93-.02-.33-.01-.68-.03-1.03-.05v13.12c0,2.84.31,4.61.93,5.29.84.98,2.11,1.47,3.8,1.47h1.76v1.23h-19.34v-1.23h1.7c1.89,0,3.25-.62,4.09-1.86.47-.69.7-2.32.7-4.89v-29.16c0-2.84-.31-4.6-.93-5.29-.87-.98-2.15-1.47-3.86-1.47h-1.7v-1.23h16.45c4.75,0,8.28.36,10.59,1.07,1.13.33,2.19.83,3.18,1.5.99.67,1.85,1.45,2.6,2.36s1.33,1.93,1.76,3.06.65,2.34.65,3.63c0,1.4-.22,2.7-.67,3.91-.44,1.21-1.13,2.31-2.05,3.31-.92,1-2.08,1.86-3.48,2.6-1.4.73-3.04,1.31-4.93,1.73l9.32,12.95c2.15,3,3.98,4.97,5.49,5.93,1.55.98,3.55,1.6,5.99,1.86v1.23Zm-32.06-23.2c.42,0,.79,0,1.1.02s.57.02.77.02c2.15,0,4.04-.25,5.68-.75,1.63-.5,2.99-1.19,4.08-2.08,1.09-.89,1.9-1.94,2.45-3.15.54-1.21.82-2.52.82-3.95s-.23-2.68-.7-3.84c-.47-1.17-1.13-2.17-1.98-3.01-.86-.84-1.88-1.5-3.06-1.96-1.19-.47-2.49-.7-3.91-.7-.64,0-1.4.05-2.26.15-.87.1-1.85.26-2.96.48v18.78Z"/>
      <path class="cls-3" d="m837.81,990.6v1.23h-19.34v-1.23h1.6c1.89,0,3.24-.54,4.06-1.63.53-.69.8-2.4.8-5.13v-29.16c0-1.06-.02-1.93-.07-2.6s-.13-1.22-.25-1.65c-.12-.43-.3-.77-.53-1.01s-.55-.48-.95-.7c-.98-.53-2-.8-3.06-.8h-1.6v-1.23h19.34v1.23h-1.63c-1.86,0-3.21.54-4.03,1.63-.55.69-.83,2.4-.83,5.13v29.16c0,1.07.02,1.93.07,2.6s.13,1.21.25,1.63c.12.42.3.76.55,1.02.24.25.57.49.97.72.95.53,1.96.8,3.03.8h1.63Z"/>
      <path class="cls-3" d="m877.28,992.33c2.29,3.95,4.73,6.82,7.32,8.62,2.64,1.84,5.64,2.9,8.99,3.16v1.07c-3.02-.09-6.29-.71-9.82-1.86-3.44-1.09-6.75-2.64-9.92-4.66-3.06-1.95-5.75-4.06-8.06-6.32-3.2-1.29-5.73-2.65-7.59-4.09-2.75-2.15-4.87-4.79-6.34-7.92-1.48-3.13-2.21-6.85-2.21-11.15,0-6.72,2.19-12.33,6.56-16.81,4.35-4.46,9.64-6.69,15.88-6.69s11.03,2.24,15.31,6.72c2.15,2.26,3.77,4.79,4.86,7.57,1.09,2.79,1.63,5.9,1.63,9.34,0,5.55-1.54,10.4-4.63,14.55-3.06,4.17-7.06,7-11.98,8.49Zm-5.59-44.11c-2.29,0-4.32.47-6.11,1.4-1.79.93-3.3,2.29-4.53,4.08-1.23,1.79-2.17,3.98-2.81,6.57-.64,2.6-.97,5.56-.97,8.89,0,3.15.31,6.04.93,8.66.62,2.62,1.54,4.88,2.75,6.77,1.21,1.9,2.71,3.37,4.51,4.43,1.8,1.05,3.87,1.58,6.23,1.58s4.33-.46,6.13-1.38c1.8-.92,3.32-2.26,4.58-4.01,1.25-1.75,2.21-3.9,2.88-6.44s1-5.42,1-8.64c0-3.6-.35-6.76-1.05-9.49-.7-2.73-1.69-5.02-2.98-6.86-1.29-1.84-2.82-3.23-4.61-4.16-1.79-.93-3.77-1.4-5.94-1.4Z"/>
      <path class="cls-3" d="m936.78,947.92v-1.23h15.98v1.23h-1.7c-1.78,0-3.14.74-4.1,2.23-.47.71-.7,2.31-.7,4.79v18.31c0,4.51-.45,8.02-1.36,10.55-.58,1.62-1.4,3-2.46,4.15-1.07,1.14-2.3,2.08-3.69,2.81-1.4.73-2.94,1.27-4.61,1.61-1.68.34-3.42.52-5.24.52-4.91,0-8.64-.86-11.22-2.56-1.62-1.06-2.87-2.19-3.75-3.38-.88-1.19-1.52-2.5-1.93-3.93-.41-1.43-.65-3.02-.72-4.76-.07-1.74-.1-3.72-.1-5.94v-17.64c0-1.4-.1-2.54-.28-3.43-.19-.89-.48-1.58-.88-2.06-.4-.49-.9-.82-1.51-1-.61-.18-1.34-.27-2.18-.27h-1.7v-1.23h19.51v1.23h-1.73c-1.07,0-1.92.15-2.56.45-.64.3-1.13.74-1.46,1.32-.33.58-.55,1.29-.65,2.13s-.15,1.8-.15,2.86v19.67c0,1.11.03,2.21.1,3.3s.2,2.14.4,3.15c.2,1.01.47,1.96.82,2.86s.79,1.73,1.35,2.48c.87,1.2,2.03,2.15,3.48,2.85,1.45.7,3.31,1.05,5.58,1.05,1.46,0,2.87-.17,4.21-.52s2.57-.82,3.7-1.43c1.12-.61,2.09-1.33,2.91-2.16.82-.83,1.44-1.75,1.86-2.75.87-2.02,1.3-5.43,1.3-10.22v-18.28c0-2.84-.31-4.6-.93-5.29-.87-.98-2.15-1.47-3.86-1.47h-1.7Z"/>
      <path class="cls-3" d="m975.52,949.15v17.84h9.92c1.44,0,2.61-.13,3.51-.38s1.6-.65,2.11-1.2c.51-.54.87-1.23,1.07-2.05.2-.82.33-1.8.4-2.93h1.23v15.71h-1.23c-.16-1.11-.31-2.01-.47-2.71s-.31-1.2-.47-1.51c-.2-.4-.45-.75-.77-1.05-.31-.3-.71-.56-1.2-.78-.49-.22-1.08-.39-1.76-.5-.69-.11-1.5-.17-2.43-.17h-9.92v14.88c0,1.98.09,3.2.27,3.66.09.2.2.39.33.57.13.18.33.33.58.45.25.12.59.22,1,.28.41.07.93.1,1.55.1h7.66c1.31,0,2.4-.04,3.28-.12.88-.08,1.64-.21,2.3-.4s1.23-.45,1.73-.8c.5-.34,1.03-.78,1.58-1.32.69-.67,1.39-1.52,2.1-2.56.71-1.04,1.42-2.26,2.13-3.66h1.33l-3.9,11.32h-34.79v-1.23h1.6c.42,0,.87-.04,1.33-.13.47-.09.9-.23,1.32-.43.41-.2.78-.45,1.12-.75.33-.3.57-.65.7-1.05.27-.69.4-2.14.4-4.36v-29.33c0-2.84-.29-4.6-.87-5.29-.8-.89-2.13-1.33-3.99-1.33h-1.6v-1.23h34.79v9.89h-.8c-.24-1.2-.49-2.19-.73-2.96s-.52-1.42-.83-1.93c-.31-.51-.67-.92-1.07-1.21-.4-.3-.88-.57-1.43-.82-.91-.33-2.48-.5-4.69-.5h-12.38Z"/>
    </g>
    <line class="cls-6" x1="347.29" y1="915.36" x2="1001.35" y2="915.36"/>
  </g>
</svg>