<?xml version="1.0" encoding="UTF-8"?>
<svg id="Calque_1" data-name="Calque 1" xmlns="http://www.w3.org/2000/svg" viewBox="0 0 1280 1280">
  <defs>
    <style>
      .cls-1 {
        fill: #fff;
        stroke-width: 0px;
      }
    </style>
  </defs>
  <g>
    <path class="cls-1" d="m893.36,543.45c-2.59-2.24-6.16-.9-9.2-.86-6.94.86-14.34-.73-20.82,2.55-1.33-.72-2.65-1.44-3.97-2.14-1.62-2.74-3.13-5.55-4.67-8.34-2.09-3.71-3.67-7.93-7.17-10.59-1.36-.85-2.63-1.83-3.72-2.97-3.58-3.23-6.58-7.07-10.32-10.12-1.56-.68-3.19-1.24-4.64-2.11-1.86-2.84-3.12-6.05-5.12-8.81-3.05-4.29-4.72-9.37-7.86-13.6-1.54-2.15-4.15-3.14-5.82-5.14-.58-2.79-.46-5.66-.4-8.48.43-3.9-.28-7.77-1.53-11.46-1.11-2.67-2.41-5.27-4-7.68l-.53-.76h0c-.39-.63-.76-1.26-1.14-1.87-1.28-2.85-3.79-4.72-5.83-6.95-1.11-2.82-1.59-5.83-2.56-8.68-.93-1.74-2-3.41-3.01-5.09h0c-1.64-3.37-2.92-6.89-4.64-10.21-.28-.52-.84-1.56-1.12-2.09l-.26,1.9h0s.26-1.9.26-1.9c-.66-4.7-.23-9.49,1.52-13.91,2.46-8.44,2.49-19.11-4.02-25.73-3.59.95-7.43,1.78-11.07.62-4.27-1.29-8.77-2.29-13.24-1.39-.88.55-1.72,1.14-2.57,1.72-2.99,2.44-6.69,0-9.92-.59-5.8-2.22-12.11-1.11-18.07-2.48-4.82-.96-9.3-3.09-13.55-5.49-.93-.77-1.84-1.54-2.78-2.28-.26-.14-.8-.43-1.05-.57-.3-.16-.89-.48-1.19-.63-1.52-.15-3.05-.24-4.58-.26,1.53.02,3.06.12,4.58.26-7.09-4.01-15.76-.98-22.73,1.97-4.32,1.31-3.34,6.59-5.27,9.79-.99,2.38-1.97,4.76-2.96,7.15-3.45-.27-6.61-1.74-8.76-4.5l-.76-.4c-3.27-1.97-6.97-3.33-10.83-3.29-5.14-.18-11.27-1.37-14.19-6.08-1.33-1.78-2.7-3.53-4.2-5.17-.27-.13-.82-.38-1.1-.51-1.99-1.11-3.8-3.09-6.25-2.87-3.43.2-6.97.67-10.2-.89-.71-.25-1.42-.5-2.11-.75-2.39-.94-4.65-2.12-6.84-3.43,1.68-4.65,2.58-9.53,4.3-14.17,2.06-5.93,1.86-12.44.18-18.43-.4-.18-1.19-.56-1.59-.74-5.41-.67-10.88-.42-16.25.45-7.1.81-14.28.22-21.36-.56-3.94-.44-7.32,2.01-10.88,3.22-7.52,2.83-15.67,1.19-23.45,2.27-1.66.8-3.3,1.65-4.91,2.56-8.06,6.45-18.8,4.68-28.18,7.06-2.27.4-4.53.87-6.82,1.08-1.21.93-2.4,1.86-3.59,2.8.28.48.83,1.44,1.11,1.93l.67.03c27.23,1.17,54.47-.73,81.71-.36,2.35.83,4.87.23,7.3.27,6.49-.33,12.97.27,19.45.49-1.43,2.38-2.81,4.81-3.57,7.49-23.96-1.13-47.96-.48-71.94-.54-15.85.28-31.71.85-47.56.13.08-.23.22-.69.29-.91.97-.67,1.94-1.33,2.91-1.99,1.16-1,2.26-2.08,3.36-3.14,2.4-3.13,6.66-3.93,8.85-7.19.59-.8,1.19-1.57,1.82-2.34,1.16-1.42,2.36-2.82,3.45-4.28l-.38-1.13c-1.81-.75-3.78-1.8-5.78-1.11-2.75,1.58-4.93,3.99-6.99,6.37-1.86,2.12-3.67,4.32-5.84,6.12-4.38,4.02-9.39,7.25-14.71,9.92-.71.33-2.15,1.02-2.87,1.37-2.93,3.16-4.76,7.12-7.23,10.62-3.4,5.33-2.42,12.34-6.62,17.29-.9,1.26-2.1,2.27-3.3,3.23-1.07.59-2.12,1.19-3.17,1.8-4.41,2.96-10.47,3.59-13.67,8.18-2.82,4.11-7.2,6.77-11.39,9.31-.97.98-1.97,1.94-2.86,2.99-3.29,4.62-5.7,9.85-9.67,13.97-.14.18-.42.57-.56.75-.51.68-1.51,2.02-2,2.7-4.04,5.08-8.5,9.79-12.66,14.77-4.72,3.72-3.62,10.56-2.79,15.78,1.51,6.14,2.59,12.47,1.64,18.81-.83,8.24-1.1,16.72-4.14,24.52-.15.17-.44.53-.59.71-1.38,1.76-2.73,3.55-4.15,5.29-.1.2-.29.59-.39.79-2.86,4.71-1.68,10.63.32,15.44.97,2.8,3.08,5.79,1.18,8.71-2.07,3.27.42,6.35,2.86,8.49,7.01,4.56,13.41,10.24,17.7,17.53,1.97,3.42,3.62,7.02,5.55,10.45.87,2.29,1.53,4.66,2.16,7.03,2.4,2.08,4.95,3.96,7.54,5.78,3.08,2.3,6.27,4.42,9.43,6.6.33.37,1.01,1.11,1.35,1.47.58.44,1.73,1.32,2.31,1.75.27.22.81.62,1.08.83,4.96,4.81,12.4,7.68,19.14,5.1,10.36-3.68,21.93-6.25,32.6-2.18,6.5,2.56,13.37-.18,19.15-3.24,1.08-.59,2.14-1.18,3.22-1.76,1.02-.54,2.04-1.07,3.08-1.59,3.2-1.78,6.39-3.59,9.78-4.98,1.68-.68,3.48-1.01,5.24-1.38,5.54.38,12.02-.7,16.43,3.5.79-2.06,1.45-4.15,2.42-6.13,1.12-.73,2.27-1.42,3.43-2.1l-.56-.1c-2.13.09-4.28.04-6.38-.36-1.13-.18-2.26-.37-3.38-.56-7.88-2.29-15.72.98-23.65.71-27.97-.06-55.95-.12-83.91.09-2.06.01-4.11-.08-6.13-.37-2.17-1.15-4.2-2.56-6.18-4.01-.59-1.09-1.09-2.22-1.46-3.39,49.32.31,98.65.33,147.96.14,1.02-.04,3.07-.12,4.09-.15l.13-.41c.08-1.68.05-3.35.04-5-.29.01-.87.04-1.16.05-51.04.04-102.08-.01-153.13.01-1.09-2.54-2.4-4.99-4.08-7.19l.31-.33c18.37.25,36.73-.01,55.1-.03,25.12.17,50.22.28,75.34,0,9.17-.16,18.37.32,27.53-.29l.71-.02c-.2-1.71.43-3.31,1.33-4.73l-2.63-.56c-53.71.34-107.42.18-161.13.15-1.72-2.99-3.94-5.7-6.95-7.48l1.33-.22c20.24.49,40.5.18,60.76.16.97.01,1.96.01,2.94,0,35.53.08,71.08.25,106.61-.18-.23-.46-.69-1.38-.91-1.84.02-1.38.11-2.75.25-4.11-17.82.26-35.65.1-53.46.58-41.24-.72-82.47.03-123.71-.25-2.38-1.58-4.29-3.98-3.88-7.02,60.39-.51,120.78-.31,181.17-.48-.16-1.95-.23-3.9-.23-5.83-6.42-.19-12.86-.06-19.29.11-53.93,0-107.87-.09-161.8.3-.74-2.57-1.71-5.08-3.01-7.41,5.53.42,11.07.06,16.6.01,13.9-.19,27.8.02,41.7-.13,9.43-.59,18.86-.14,28.3-.25,32.11-.12,64.23.25,96.33-.18.11-1.89.24-3.78.54-5.64-36.94.36-73.9.01-110.84.23-24.13.29-48.27-.14-72.39.66.97-1.02,1.92-2.06,2.84-3.11,1.12-1.45,2.1-3,3.03-4.56,59.46-.66,118.91-.31,178.37-.53-.1-.39-.3-1.16-.4-1.55.36-1.27.71-2.55,1.07-3.81-59.15.08-118.31-.41-177.45.31.81-2.51,1.35-5.09,1.86-7.66,56.41-.37,112.83-.26,169.25-.12,2.54-.08,5.07-.24,7.61-.38l.42.11c.3-1.93.76-3.83,1.45-5.65l-.96.44c-59.04-.18-118.07-.05-177.11-.04l-.17-.46c.16-2.37.34-4.72.53-7.08,56.93,0,113.85.1,170.78.09,3.08.01,6.17-.11,9.23-.47h.72c.04-1.7.84-3.22,1.49-4.73l-.25-.2h-.79c-31.7-.24-63.4.05-95.1-.16-1.33.04-2.67.05-3.99.06-27.15.04-54.31-.01-81.46.01-.03-2.56-.19-5.12-.55-7.65,60.47.25,120.91.15,181.38.13,1.81-.14,3.95.3,5.41-1.09.57-.96,1.09-1.95,1.66-2.91.44-.15,1.3-.47,1.74-.63-.55-.19-1.66-.58-2.21-.77-62.88.08-125.75.02-188.63-.03-.15-.32-.45-.98-.6-1.3-.4-2.1-.81-4.18-1.23-6.25,19.66.04,39.33.59,59,.06,46.53,0,93.07.33,139.6-.12.29-.17.87-.52,1.16-.69.84-1.1,1.69-2.18,2.61-3.21.44-.36,1.32-1.04,1.76-1.39-7.6-.08-15.18.08-22.78-.11-58.95.75-117.91-.85-176.87.27-.58-.05-1.74-.17-2.31-.23.55-.6,1.1-1.22,1.65-1.82,1.6-1.81,3.06-3.76,4.51-5.68,49.71.23,99.42-.19,149.13.22h.04c15.23-.33,30.45-.1,45.68-.3,4.97-.18,10.6,1.12,14.67-2.6.28-.12.85-.37,1.13-.5,1.67-.7,3.36-1.32,5.06-1.95.16-.24.48-.7.65-.94-6.42.61-12.88.23-19.32.33-61.69.56-123.4.09-185.09.37-2.32-.01-4.71.2-6.94-.58,1.99-2,3.86-4.16,5.1-6.73,55.86-.81,111.74-.02,167.61-.36,64.64-.3,129.28.18,193.91-.16,1.22,2.55,2.26,5.17,3.49,7.72-28.17-.14-56.36.04-84.54-.23-6.25.14-12.52.06-18.75-.48-.09.06-.27.18-.37.25.53.2,1.58.61,2.11.83,4.18,1.03,7.58,4.06,11.65,5.12,31.24.08,62.49.06,93.74,0,.45,2.08.88,4.14,1.3,6.23.05.33.18,1.02.25,1.37-19.81-.24-39.61.09-59.41-.14-8.93.29-17.87-.29-26.8.14,1.89,1.66,3.66,3.47,5.33,5.37,16.73.43,33.49-.26,50.24.03,11.72.28,23.46-.38,35.18.15,2.07,1.75,3.05,4.53,4.69,6.68l.16.58-.7.16c-.69.24-1.38.42-2.08.56.7-.14,1.4-.33,2.08-.56-26.71-.2-53.43-.01-80.14-.11-1.02-.01-3.06-.01-4.07-.02.36.38,1.08,1.11,1.44,1.47.14.19.41.57.55.75.72.99,1.45,1.99,2.17,3,27.94.37,55.9.19,83.85.19.62,2.49,1.03,5.03,1.35,7.59-27.17-.11-54.35-.05-81.53-.09.22.4.63,1.19.85,1.59.41,1.14.77,2.3,1.12,3.48.2.02.62.05.84.08,26.11.54,52.25.32,78.37.27.18,2.52.42,5.04.69,7.54-25.58-.01-51.17-.03-76.76-.01l.28,1.23c.23.94.47,1.87.74,2.82l.33,1.04.68.34c26.86-.05,53.74-.26,80.6.17.52.73,1.04,1.46,1.58,2.2.28.43.82,1.28,1.09,1.71.19.3.58.89.76,1.19.37.57,1.09,1.71,1.44,2.28-28.27-.12-56.55-.02-84.83-.1l-.82.26c.1,1.62.25,3.26.45,4.89.36.06,1.08.19,1.43.26,4.16.05,8.32-.01,12.48.22,24.58-.12,49.17.11,73.75-.09.56.89,1.14,1.8,1.71,2.7.53.88,1.05,1.76,1.58,2.66.3.52.91,1.55,1.23,2.07-.89,0-2.69.01-3.58.01-27.53-.1-55.05.08-82.57-.13-.96-.02-2.86-.05-3.81-.08l-.94-.06c.2,1.7.4,3.41.6,5.12l.11.88c32.54.03,65.08-.16,97.61.27,1.7,1.54,3.35,3.13,5.01,4.72.37.33,1.11,1.02,1.48,1.37t0,0l.85,1.35c-34.47-.56-68.95-.02-103.4-.49-.66,0-1.97-.01-2.63-.02.11,2,.19,4.01.45,6.02,37.53-.08,75.06.3,112.58.12,1.28,2.11,2.77,4.09,4.34,6l.56,1.25c-38.97.27-77.93-.24-116.91-.28-.12,1.96-.37,3.92-.93,5.81,37.48.27,74.97.4,112.45.33,2.79,0,5.61-.05,8.37.45,1.28,2.82,3.29,5.19,5.72,7.1-.4.04-1.17.14-1.57.19-24.6-.45-49.22.02-73.83-.3-16.7.18-33.4-.62-50.1-.05l.14,1.15c.53,1.36,1.18,2.73,1.15,4.24l.42-.09c4.63.43,9.28.26,13.91.29,22.26-.14,44.52.39,66.78.04,24.71-.23,49.41.63,74.12.3-.87,2.4-1.7,4.83-2.41,7.29-49.59-.14-99.17-.03-148.76-.15-.82.05-2.46.16-3.28.23-.01,1.7-.05,3.4-.12,5.12l.2-.06c6.06.36,12.14.03,18.2.39,43.96-.02,87.92-.04,131.88.23l-.41,1.38s0,0,0,0c-.39.56-1.18,1.69-1.57,2.26h0s-.45.59-.45.59c-.37.47-1.09,1.44-1.44,1.92l-.66.93c-9.57.62-19.19.04-28.78.22-32.83-.08-65.67-.13-98.52-.2-.39.05-1.17.16-1.57.22,2.09.22,3.98,1.07,5.29,2.77.54.66,1.1,1.32,1.67,1.99l1.49.59c7.94.38,15.89,0,23.85.23,30.52-.12,61.05.56,91.57-.09-.45,1.45-1.02,2.88-1.61,4.29-.24.54-.7,1.6-.93,2.14l-.46.93c-23.76.62-47.55.04-71.32.26-10.57-.2-21.15.15-31.7-.4l-.38.13c1.75,1.65,3.56,3.37,4.18,5.8,16.82.32,33.65-.05,50.47-.03,15.04-.4,30.1.25,45.14.04l-.73,1.3c-.31.33-.94.98-1.25,1.31-.82.79-1.6,1.61-2.44,2.37-.52.39-1.53,1.16-2.03,1.55-22.09.74-44.21.3-66.31.28-7.43.16-14.86.01-22.29.11l-.02,1.11c-.01.82-.04,2.43-.05,3.24l.05,1.24c17.02.34,34.06.28,51.08.18,10.21-.13,20.45.22,30.65-.39l.69.2c-2.66,2.5-5.78,4.41-8.58,6.74-4.57,1.58-9.46.9-14.18,1.1-20.27.26-40.56-.22-60.83-.05-.03,1.9-.06,3.82-.24,5.72,11.64.04,23.29.27,34.93.16,10.89.3,21.79.06,32.69.11-.83.8-1.64,1.6-2.42,2.43-.3.33-.91,1-1.22,1.33-1,1.29-1.95,2.64-2.92,3.96-24.18-.63-48.38-.11-72.57-.57v1.33c0,.83,0,2.49.01,3.3v1.12c22.3-.06,44.62.24,66.92-.01l.65.24c-1.18.93-2.36,1.86-3.52,2.82-1.85,1.42-3.47,3.14-5.38,4.47-19.37.32-38.76-.3-58.13.26h0l-.68-.22c.04,1.42.09,2.86.14,4.3l.02.97c5.62.3,11.25-.02,16.86.34,13.24.13,26.46-.2,39.7-.23l.23.5c-1.33,2.16-2.6,4.38-3.58,6.74l-.12.17c-17.49.32-34.98-.6-52.46-.03h0l-.72-.17c.01,1.88.03,3.78.04,5.67l.71-.11c16.35.25,32.69.12,49.04.16-1.21,2.25-2.3,4.58-2.67,7.15h0s-.42.36-.42.36c-15.53.27-31.08-.39-46.6.23h-.09c.03,1.69.04,3.4-.31,5.09.29-.06.86-.19,1.15-.26,15.94.74,31.95.18,47.92.33.75,1.16,1.49,2.36,2.25,3.54-.29,1.3-.56,2.59-.86,3.91-10.37-.22-20.76.02-31.13-.17-6.32.09-12.63-.02-18.94-.02l-.04,1.32c-.03.82-.1,2.44-.13,3.25l-.44,1.21c16.83-.16,33.66,0,50.49-.1-.01,2.59.18,5.21,1.01,7.7-17.44.01-34.93-.6-52.35.15,1.12.48,2.28.76,3.46.92-1.18-.16-2.34-.44-3.46-.92h-.68c.03,1.33.01,2.69-.08,4.06l-.1,1.44c18.2-.36,36.42-.06,54.62-.04h0c.41.69.83,1.39,1.24,2.1,1.01,1.68,2.08,3.35,3.11,5.04-1.61.08-3.22.15-4.81.23h0c-19.11.2-38.26-.29-57.36.34.02.7.06,2.11.09,2.81-.58.85-1.17,1.72-1.76,2.58,21.15-.18,42.29-.16,63.45-.06.12,2.53-.02,5.06-.18,7.59-13.9-.3-27.82.1-41.72-.16-8.25.15-16.53-.33-24.77.15-1.03,1.94-2.09,3.87-2.95,5.9,23.05.04,46.1-.31,69.15-.13-.06,2.52-.1,5.04-.11,7.55-18.38-.4-36.78.04-55.16-.19-6.03.04-12.05-.25-18.06.18l-.42-.14c-.54,1.53-1.25,2.99-2.12,4.37l-1.47.28c.26.24.8.71,1.05.95,20.99.19,41.99-.04,63,.04,4.61.11,9.27-.37,13.85.4-1.37,2.38-2.67,4.81-4.37,6.98-21.85.3-43.68.11-65.52.15-4.89.04-9.78-.26-14.65.3h0c-.42.01-1.26.04-1.68.06-.79,1.12-1.56,2.25-2.34,3.38-1.28.44-2.53.93-3.78,1.44.1.14.29.41.39.54,26.57-.39,53.14.04,79.71-.31h0c.26.17.76.53,1.02.7-4.15,1.95-8.26,3.97-12.44,5.86-1.35.57-2.77.93-4.2,1.17-24.61.3-49.25-.46-73.84.46l-.67.06c-2.2,2.14-4.93,3.51-7.83,4.4-.09.22-.28.63-.37.84,21.1.33,42.22-.24,63.32-.06,4.93-.09,9.91.36,14.8-.46-1.72,2.43-4.34,4.06-7.2,4.82-.13.04-.39.13-.52.18-1.15.76-2.27,1.57-3.37,2.42-.71.08-2.14.24-2.86.31-24.7.38-49.4.44-74.1.03-3.09-.05-6.16.19-9.21.46l-.17.47c-1.96.81-3.87,1.73-5.83,2.52h0c-1.97.24-3.93.51-5.86.89l-.12,1.17c32.61.17,65.21.6,97.82.19-1.14,2.48-2.06,5.05-2.77,7.67-10.99-.3-21.98.02-32.97-.03-20.39.16-40.8-.59-61.18.09l-.67-.16c.01,1.85.03,3.73-.06,5.6.66.01,1.98.03,2.64.04,31.28.25,62.58.06,93.86.12.26,2.45.79,4.87,1.1,7.34-26.6-.24-53.2.14-79.8-.17-5.71.01-11.43-.2-17.12.13l-.75-.3c-.01,1.95.02,3.91.03,5.86,2.16.03,4.35.08,6.52-.01h0c30.22.1,60.43.14,90.66-.03-1.32-.58-2.7-.94-4.1-1.14,1.4.2,2.78.56,4.1,1.14l.83.26c-.58,1.12-1.15,2.24-1.72,3.37-.49.94-.97,1.88-1.47,2.82l-.6.88c-31.41.54-62.84.16-94.26.11.09,1.78.1,3.57-.06,5.37,26.89.36,53.81.25,80.71.11h0l.06.59c-1.22,2.21-2.22,4.53-2.91,6.96-20.92.1-41.83.15-62.75-.05-4.99.16-10-.05-14.98.32l-.32-.08c.11,1.74.2,3.5.28,5.25,26.04.59,52.11.41,78.16.02-.23-.17-.62-.47-.92-.7.31.23.7.53.92.7l.37.29c-.99,2.51-1.9,5.05-2.78,7.6-22.09,0-44.17.11-66.27-.09-.86.13-1.79.14-2.72.16.93-.02,1.86-.03,2.72-.16-3.2-.1-6.39-.19-9.59-.18.08,2.11.15,4.23-.06,6.35l.38-.37c12.49.55,25.01.15,37.5.53h.17c11.67-.2,23.33-.41,35.01-.6-.49.63-1.47,1.89-1.97,2.53-1.27,1.53-2.69,2.93-4.16,4.25l-.38.25c-.33.2-.98.61-1.3.82-18.5.28-37.01.19-55.52.01-3.14.04-6.3.12-9.44.13l.03,1.18c.02,1.39.04,2.79.08,4.2l.59-.18c19.67,1.43,39.42-.23,59.11.52-2.15,2.03-4.29,4.09-6.27,6.3l-.63.73c-17.26.58-34.55.38-51.83.22l-1.17-.48c.11,2.16.17,4.35.43,6.52,15.19-.12,30.41.48,45.58-.36.57-.04,1.71-.14,2.27-.19.03.15.11.44.14.59-2.02,1.85-4.1,3.67-5.97,5.69-1.27.67-2.61,1.24-4.09,1.17-12.82.33-25.67-.2-38.47.4-.6,1.48-1.38,2.89-2.11,4.34-1.54.33-3.08.68-4.62,1.03,1.25.18,2.5.38,3.76.62,6.99.05,13.97-.62,20.97-.49,4.22-.01,8.53.6,12.68-.54-.15.41-.45,1.23-.6,1.65-2.16.61-4.28,1.38-6.42,2.03-1.29.3-2.63.44-3.94.47-6.8-.08-13.54,1.1-20,3.16-5.45,1.39-11.91,3.1-16.97-.28-2.15-1.29-4.39-2.43-6.67-3.48,3.02,3.88,4.85,9.08,9.72,11.11,12.24,2.29,23.32-5.43,35.45-5.18,5.65,0,10.94-2.24,15.57-5.33,1.29-.54,2.56-1.11,3.84-1.69,1.5-.98,3.06-1.88,4.64-2.73,3.65-3.14,6.99-6.64,10.18-10.26.8-1.27,1.64-2.51,2.45-3.77.91-1.07,1.86-2.08,2.8-3.12,2.39-2.75,4.99-5.33,7.76-7.69.51-.44,1.5-1.31,2-1.74,1.29-1.05,2.52-2.18,3.56-3.48,3.47-3.82,5.98-8.35,8.19-12.98,2.91-5.77.7-12.46,3.47-18.22,4.07-2.28,8.62-3.47,12.89-5.32,1.65-1.65,3.09-3.51,4.12-5.6.26-.51.76-1.53,1.02-2.03,1.1-5.34,1.23-11-.49-16.22-.57-2.07-1.55-4.08-1.58-6.24.84-3.34,2.18-6.52,3-9.85,2-1.21,4.06-2.35,5.82-3.9h0c2.81-2.31,5.1-5.23,8.06-7.38,2.85-1.64,6.13-2.34,9.07-3.8,4.04-1.85,7.41-4.78,10.8-7.59.37-.29,1.1-.88,1.46-1.18l1.12-.93c3.16-2.32,5.42-5.94,5.97-9.85.71-8.89-.23-17.87,1.05-26.74.87-5.65.01-11.55-3.24-16.34-1.05-1.99-1.83-4.11-2.43-6.26-.34-2.81-.81-5.63-.62-8.47.16-3.81,1.41-7.72-.03-11.43-.48-.52-1.46-1.54-1.96-2.06-.87-.95-1.76-2.09-1.09-3.42,1.23-4.64,4.76-8.07,7.01-12.18,1.38-2.66,2.29-5.52,3.21-8.35,1.98-2.45,4.71-4.18,6.98-6.33.51-.41,1.51-1.22,2.01-1.62,1.66-1.59,3.2-3.3,4.63-5.09,1.21-1.47,2.46-2.89,3.71-4.33,2.04-2.42,4.2-4.79,6.65-6.8.6-.52,1.21-1.02,1.83-1.51,4.4-4.1,9.65-7.24,13.54-11.9,4.19-3.07,8.34-6.36,10.76-11.08.68-1.09,1.38-2.16,2.13-3.21,1.54-2.37,2.91-4.85,3.99-7.47.68-1.64.99-3.39,1.36-5.11,1.4-.76,2.8-1.52,4.19-2.29,1.3-1.98,2.75-3.84,4.2-5.71,1.75-4.54,2.4-9.41,4.07-13.97,1.82-4.96,2.11-10.71-.04-15.59Zm-422.49,37.47c14.6.39,29.21.17,43.8-.25-.54.41-1.61,1.22-2.16,1.61-5.92,2.43-11.87,7.08-18.61,5.39-8.43-2.8-17.61-3.31-26.21-1.01-3.38.74-6.74,1.58-10.08,2.46l-.15.04c-3.09,1.51-6.92,1.58-9.73-.59-3.41-2.53-6.94-4.93-10.04-7.82,11.05.57,22.12-.06,33.19.16Zm289.35-198.61c-.3.21-.57.49-.81.85.24-.36.51-.64.81-.85Zm-70.79-7.51c2.77-.08,4.55-2.83,7.32-2.8,2.5-.14,5.01-.23,7.51.06,3.49,2.29,6.52,5.29,10.52,6.77-1.29.39-2.64.83-4,.68-7.31-.01-14.62-.03-21.93-.02h-.96c.47-1.58.98-3.14,1.54-4.69Zm-3.87,10.2c20.45.2,40.9-.04,61.33.38,1.75,1.05,3.58,2.42,5.76,2.17,3.2-.16,5.52-2.59,8.02-4.28,2.77.01,5.39.87,7.97,1.78,4.01,1.45,8.23,0,12.35.26-.11.58-.32,1.74-.42,2.31.33,1.78.7,3.54,1.12,5.31-33.24-.72-66.48-.46-99.72-.49,1.52-2.31,2.75-4.79,3.59-7.43Zm-140.46-44.79c-2.11.01-4.28-.11-6.06-1.38,2.8-1.02,5.45-2.43,8.3-3.31,8.78-1.94,18.49,1.65,26.57-3.39.79.03,2.34.11,3.11.14,11.87.51,23.71-.75,35.57-.57.05,2.73.05,5.48.01,8.22-22.49-.34-45-.55-67.49.29Zm-72.26,24.56c1.85-2.53,4.06-5.81,7.59-5.7,31.69.06,63.38-.12,95.07-.05,1.54.02,3.09.03,4.64.02,8.72-.03,17.44-.08,26.15.42l.73.88c.18.23.55.68.73.89.34.51,1.04,1.51,1.4,2.01h.02c1.54.94,3.09,1.83,4.67,2.69-1.35.38-2.71.81-4.12.7-45.73-.26-91.47.01-137.21-.02h-.83c.29-.46.87-1.38,1.16-1.84Zm-5.47,12.42c.45-1.72.77-3.48,1.1-5.22,39.02.36,78.05-.27,117.07.12.22,0,.63-.01.85-.01,16.24-.25,32.48-.08,48.73-.14,1.83,1.9,3.69,3.79,5.62,5.61.48.51,1.45,1.5,1.94,1.99-58.66-.09-117.33-.05-175.98.12.17-.61.51-1.85.68-2.46Zm-8.17,13.24l.4-.24c1.19-1.08,2.35-2.18,3.47-3.35.37-.46,1.09-1.41,1.45-1.88,65.92.79,131.87-.51,197.78,0,2.44.43,4.15,2.52,6.13,3.86.56.24,1.67.72,2.23.97,2.28.91,4.69,1.45,7.11,1.94-1.15.66-2.38.93-3.71.8-69.17-.44-138.36.33-207.53.02-3.42-.06-6.88.37-10.27-.25.74-.46,2.21-1.4,2.94-1.87Zm240.81,28.27c-34.47-.3-68.92.15-103.38.06-50.91.18-101.82.05-152.72.13-6.52.16-13.06-.24-19.56.4l.19-1.39c.87-1.11,1.74-2.22,2.59-3.35.69-.96,1.4-1.92,2.1-2.86,29.99-.58,59.99-.14,89.98-.15,45.89-.46,91.78.1,137.67-.71,35.1.24,70.19.48,105.3.71,5.5.32,11.01.12,16.52.24-.13,2.34-.14,4.71.53,6.98-26.41.02-52.82.16-79.21-.06Zm20.57-11.26c4.16,0,8.32-.02,12.47-.05-4.16.04-8.32.05-12.47.05Zm58.98-1.43c-14.99-.4-30,.14-44.98-.46-48.42-.28-96.85-.37-145.26-.06-50.94.77-101.94.3-152.87.42.55-.37,1.62-1.1,2.16-1.46,2.28-1.22,3.69-3.43,4.71-5.72,9.13-.89,18.32-.25,27.47-.33,21.89-.1,43.79.11,65.69-.06,36.92.13,73.84-.63,110.77-.48,32.67.15,65.34.05,98,.47,12.28.17,24.57.59,36.85.08-1.22,2.41-1.79,5.06-2.54,7.63Zm6.55,30.25c.26-.04.51-.05.75-.05-.24,0-.49,0-.75.05Zm6.99,13.14c.38-.01.75.02,1.09.1-.34-.07-.71-.11-1.09-.1Zm15.01,30.6h0c.11-.29.22-.58.32-.87-.1.29-.2.58-.32.87Zm-75.89,18.82c1.7-.1,3.4-.18,5.11-.23-1.7.06-3.41.13-5.11.23Zm110.84,41.38c2.5.01,4.99.1,7.47.44-2.48-.33-4.97-.42-7.47-.44Zm-77.19,114.75c.48-.02.96-.03,1.43-.03-.47,0-.95.02-1.43.03Zm1.9-.02c1.85-.05,3.71-.08,5.56-.1-1.85.02-3.71.05-5.56.1Zm37.69,3.03c.59.06,1.23.06,1.86.09-.63-.03-1.27-.03-1.86-.09Zm-20.95,39c4.48,0,8.97,0,13.45.05-4.48-.05-8.97-.06-13.45-.05Zm-41.62,35.65c1.02.46,2.08.84,3.18.98-1.11-.13-2.17-.52-3.18-.98Zm70.24,4.04c.39.06.78.13,1.16.22-.39-.09-.77-.16-1.16-.22Zm-75.51,13.02c1.43,0,2.87,0,4.3-.02-1.44.02-2.87.03-4.3.02Zm-56.78,36.62c.64,0,1.29-.02,1.91,0-.63-.01-1.27,0-1.91,0Zm67.61,38.81c1.08,0,2.16-.06,3.24-.18-1.08.12-2.16.18-3.24.18Zm-92.95,65.44c.35.47.66.99,1,1.51-.33-.51-.65-1.04-1-1.51Zm8.3,5.19c.64.06,1.28.08,1.92.07-.64,0-1.28-.01-1.92-.07Zm43.83-8.79c.42-.15.84-.28,1.27-.39-.43.11-.85.24-1.27.39Zm6.69-8.83c.49-.11.96-.25,1.42-.43-.46.18-.93.32-1.42.43Zm3.35-1.53c.4-.32.77-.69,1.11-1.12-.34.43-.71.8-1.11,1.12Zm44.71-103.22c3.67,0,7.34-.08,10.98-.56h0c-3.64.48-7.31.56-10.98.56Zm13.11,8.24c.37-1.64.85-3.27,1.76-4.56-.92,1.29-1.39,2.91-1.76,4.56Zm8.92-18.7c-1.52-.05-3.05-.1-4.57-.14,1.52.04,3.05.08,4.57.14h0Zm3.11,4.12c.83-.85,1.69-1.68,2.6-2.45-.9.78-1.76,1.6-2.6,2.45Zm10.06-10.37c1.16-.49,2.3-1.02,3.42-1.6-1.12.58-2.26,1.11-3.42,1.6Zm23.58-44.69c-.13.84-.24,1.67-.34,2.51.09-.84.2-1.68.34-2.51Zm-5.74-19.07c-.21-1.11-.34-2.21-.42-3.33.08,1.11.21,2.22.42,3.33Zm16.67-64.16c.57-.1,1.14-.22,1.7-.34h0c-.56.13-1.13.24-1.7.34Zm38.82-78.06c.86.26,1.74.47,2.62.63-.88-.16-1.76-.36-2.62-.63Zm1.07-1.24c-.09-.51-.26-1.52-.34-2.02,5.35-.11,10.69.28,16.03-.09l.58-.02c.05.67.17,1.99.23,2.66-5.49-.43-11.07.49-16.5-.53Zm19.34-5.21c.29.36.55.73.77,1.12-.22-.39-.48-.77-.77-1.12Z"/>
    <path class="cls-1" d="m632.22,800.31c-.66-4.65-.34-9.35-.56-14.02-.08-1.54.05-3.66-1.72-4.28-2.45-.84-5.12-.79-7.62-1.49l.45,1.52c.46,1.42.88,2.85,1.26,4.32.37,8.25,3.77,16.29,2.1,24.58,1.22,3.76,2.12,7.61,3.17,11.43l.08.28c.66,1.84,1.79,3.49,3.11,4.95-1.27-9.03-.55-18.23-.27-27.28Z"/>
    <path class="cls-1" d="m885.81,723.16c-1.19-2.5-1.96-5.17-2.43-7.88-1.57-.08-3.14-.05-4.69-.05-.6.69-1.19,1.39-1.76,2.11-.45.61-1.36,1.84-1.82,2.44-1.37,3.47-2.88,6.88-4.34,10.31-.25.53-.73,1.57-.98,2.1-1.12.47-2.22.97-3.33,1.44-1.27,1.23-2.45,2.55-3.55,3.95-4.39,4.76-11.84,3.52-16.35,7.98-.97.94-1.74,2.06-2.54,3.14-.94,1.88-1.92,3.74-2.92,5.61-.28,3.43.01,6.88.48,10.29.63,4.4-.28,8.8-.8,13.17-.28,3-2.63,5.18-4.41,7.39-.39.42-1.17,1.26-1.56,1.67l-.04.44-.56.19c-4.85,7.67-3.09,17.13-1.62,25.54.58,1.03,1.19,2.06,1.85,3.08.68.98,1.23,2.03,1.67,3.16.55.55,1.09,1.11,1.62,1.69,6.7,4.4,14.12.06,20.53-2.54,2.86-1.43,3.2-4.9,4.04-7.63,3.38-14.38,11.55-27.12,14.66-41.57,1.55-6.8,4.8-13.04,6.77-19.7,1.02-3.93,3.71-7.4,3.54-11.59-.01-4.92.79-10.15-1.45-14.72v-.02Zm-29.58,86.66c-5.66,1.02-11.41,1.48-17.16,1.18-.14-2.27-.32-4.53-.61-6.77,6.58-.24,13.13-.87,19.71-.79-.86,2.04-1.41,4.21-1.94,6.37Zm6.13-18.16c-.94,1.84-1.66,3.78-2.34,5.72-4.79.79-9.64.67-14.45.88-2.55-.02-5.09-.09-7.62-.17.51-2.16.85-4.35,1.21-6.52,7.92-.53,15.86-.68,23.78-1.1l-.58,1.18Zm5.42-13.43c-1.03,2.28-2.09,4.55-3.14,6.82-6.09,0-12.19.08-18.27.31l-2.17.15c1.68-2.3,2.45-5.05,2.95-7.81,6.16-.04,12.33.04,18.49-.18.62-.02,1.87-.05,2.5-.06l-.34.77Zm2.03-6.64c-7.3,1.01-14.72.62-22.07.6.15-2.46.1-4.93.06-7.38,7.55.12,15.12-.11,22.68-.13h1.33c-.76,2.26-1.46,4.56-2.01,6.91Zm4.36-13.32c-.34.05-1.04.17-1.39.23-8.25.53-16.53.47-24.78.86l-.96.04.3-1.13c.58-2.08,1.05-4.18,1.56-6.25,9.27-.59,18.56-.16,27.84-.62-1.03,2.22-2.11,4.46-2.57,6.88Zm4.19-12.21c-4.89-.03-9.77-.13-14.64.3l-1.29.09c3.25-2.29,5.56-5.7,8.81-7.91,2.73.08,5.47.14,8.21.23-.37,2.42-.72,4.85-1.1,7.3Zm-1.85-13.43c.99-2.28,1.75-4.67,2.94-6.87.36,2.3.58,4.63.82,6.95-.94-.02-2.82-.06-3.76-.09Z"/>
  </g>
  <g>
    <path class="cls-1" d="m621.79,487.98c1.57,2.38,3.44,4.55,5.07,6.92,1.59-1.84,3.03-3.8,4.47-5.77-1.85-2.01-3.64-4.11-4.97-6.5-1.67,1.6-3.74,3.14-4.56,5.35Z"/>
    <path class="cls-1" d="m639.16,542c1.32-1.94,2.82-3.74,4.44-5.43-1.32-2.11-2.77-4.15-4.64-5.8-1.39,2.04-2.85,4.02-4.44,5.92,1.43,1.86,2.83,3.78,4.64,5.32Z"/>
    <path class="cls-1" d="m620.18,550.07c1.81-1.86,3.65-3.7,5.51-5.51-1.25-1.92-2.65-3.72-4.11-5.48-1.82,1.87-3.66,3.71-5.52,5.53,1.12,1.61,2.27,3.22,3.47,4.79l.66.67Z"/>
    <path class="cls-1" d="m633.8,489.02c1.73,2.08,3.42,4.21,5.04,6.39,1.84-2.13,3.59-4.35,5.18-6.68-1.79-1.84-3.41-3.83-4.69-6.04-2.24,1.73-3.82,4.1-5.52,6.33Z"/>
    <path class="cls-1" d="m646.73,489.02c1.72,1.98,3.41,4.01,5.05,6.08,2.26-1.97,3.87-4.52,5.71-6.85-1.74-1.99-3.42-4.01-5.05-6.08-2.37,1.86-4.14,4.3-5.71,6.85Z"/>
    <path class="cls-1" d="m707.85,527.77c-.73-1.84-1.82-3.5-3.03-5.05-1.41,2.03-2.81,4.08-4.25,6.1,1.02,1.51,2.02,3.03,3.01,4.57,1.45-1.86,2.87-3.73,4.27-5.63Z"/>
    <path class="cls-1" d="m589.14,496.95c.3-.63.89-1.9,1.18-2.54l-.31-.77c-2.01-1.24-3.08,3.21-.87,3.31Z"/>
    <path class="cls-1" d="m589.12,500.9c.88,1.88,1.88,3.71,2.73,5.63,1.6-1.31,2.7-3.08,3.66-4.89-1.27-1.75-2.43-3.57-3.54-5.42-1.43,1.14-2.85,2.74-2.85,4.68Z"/>
    <path class="cls-1" d="m714.74,506.51c-1.11-1.99-2.29-3.94-3.67-5.75-1.47,1.85-2.86,3.76-4.19,5.71,1.14,1.73,2.22,3.52,3.45,5.22,2.15-.79,2.86-3.58,4.4-5.19Z"/>
    <path class="cls-1" d="m697.39,542.09c-1.37-1.7-2.46-3.78-4.5-4.77-1.13,1.56-2.28,3.12-3.43,4.67,1.45,1.73,2.99,3.42,4.81,4.8,1.02-1.57,2.07-3.14,3.12-4.7Z"/>
    <path class="cls-1" d="m591.21,508.06c-1.38-1.95-2.51-4.04-3.51-6.19-2.78,2.99-.36,7.03.66,10.23,1.07-1.27,2.02-2.61,2.85-4.05Z"/>
    <path class="cls-1" d="m593.27,508.54c1.22,2.01,2.2,4.24,4.04,5.8,1.02-1.59,2.07-3.17,3.13-4.75-1.12-2.1-2.37-4.13-3.74-6.07-1.35,1.52-2.45,3.23-3.42,5.01Z"/>
    <path class="cls-1" d="m646.57,442.96c1.52-1.78,3.08-3.51,4.37-5.47-2.91-.96-6.48-1.5-9.08.45,1.54,1.7,3.05,3.43,4.71,5.01Z"/>
    <path class="cls-1" d="m661.88,438.57c-2.14-2.77-5.61-2.25-8.37-.88,1.33,1.85,2.67,3.69,4.01,5.53,1.69-1.31,3.03-2.98,4.36-4.65Z"/>
    <path class="cls-1" d="m668.9,443.01c1.02-1.1,2.03-2.2,3.08-3.28l.84-.91c-1.86-2.04-7.8-3.43-7.34.79,1.14,1.13,2.28,2.27,3.42,3.41Z"/>
    <path class="cls-1" d="m638.75,438.3c-1.16-.12-2.37-.2-3.5.15-1.21.83-2.54,1.65-2.1,3.34,1.89-1.12,3.74-2.3,5.6-3.49Z"/>
    <path class="cls-1" d="m682.64,441.41c-2.2-.33-4.62-3.15-6.69-1.65,1.98,1.25,3.74,2.82,5.52,4.35.39-.9.77-1.81,1.17-2.7Z"/>
    <path class="cls-1" d="m720.55,496.35c1.8-2.48-.39-5.33-1.33-7.67-.32.68-.99,2.02-1.31,2.69.89,1.65,1.8,3.3,2.65,4.98Z"/>
    <path class="cls-1" d="m586.27,516.34c.36-.74.71-1.47,1.08-2.2-.62-1.5-1.25-2.97-1.81-4.48-.04,2.51-.04,5.01.22,7.52l.52-.85Z"/>
    <path class="cls-1" d="m722.38,515.22c1.04-1.66.66-2.87-1.17-3.66-1.01,1.37-.55,3.2,1.17,3.66Z"/>
    <path class="cls-1" d="m721.48,544.42c.1-2.32.26-4.65.69-6.93-.94,1.25-1.96,2.43-2.97,3.63.49.93.99,1.86,1.51,2.8l.77.51Z"/>
    <path class="cls-1" d="m590.37,546.44c-.85-1.35-1.84-2.57-2.83-3.8-.1,1.42-.18,2.85-.26,4.28.88.15,2.63.46,3.5.61l-.41-1.1Z"/>
    <path class="cls-1" d="m720.3,546.9c-.86-1.22-1.61-2.49-2.37-3.74-1.19,1.54-2.41,3.06-3.7,4.52,2.06.65,4.09-.27,6.07-.77Z"/>
    <path class="cls-1" d="m608.82,561.72c9.58.62,19.14,1.42,28.75,1.42,24.68.05,49.41.79,74.03-1.45,4.55-.67,9.16-.82,13.68-1.68.45-2.39.97-4.76,1.59-7.1-4.87.81-9.81.96-14.74,1-19.82,1.23-39.68,1.32-59.51,2.26-15.66.18-31.3-.37-46.95-.75-8.14-.62-16.3-.82-24.41-1.8-.15,1.74-.23,3.49-.28,5.24,6.46,1.28,13.09,2.09,19.64,2.23,2.73.19,5.47.45,8.2.63Zm114.93-2.45c-2.06.27-4.13.49-6.2.7,2.07-.2,4.14-.43,6.2-.7Zm-25.93-3.68c-.86-.06-1.71-.07-2.56-.06.85-.01,1.71,0,2.56.06Zm-50.83,2.13c-1.8.02-3.59-.03-5.39-.12,1.8.08,3.59.13,5.39.12Z"/>
    <path class="cls-1" d="m557.88,622.55c3.76.14,7.52.05,11.28-.2l.81.11c-.01-9.02-.29-18.05-.12-27.06-.03-3.1-.01-6.2.05-9.3-4.58-.09-9.19.09-13.77-.18.27,12.19.22,24.4.12,36.6.41.01,1.23.03,1.64.04Z"/>
    <path class="cls-1" d="m710.39,587.36c-6.42.34-12.85.91-19.26,1.45-28.22,1.6-56.53,1.23-84.72-.58-6.96-.55-13.95-.95-20.83-2.17-.52-.08-1.55-.22-2.07-.28-.04,1.55-.08,3.11-.12,4.67,1.3.11,2.61.2,3.93.31,25.99,2.83,52.14,4.67,78.29,4.07,14.73-.66,29.5-.86,44.14-2.67,5.07-.42,10.07-1.51,15.15-1.86.32-1.65.59-3.3.88-4.94-5.05,1.18-10.26,1.35-15.39,2Z"/>
    <path class="cls-1" d="m736.91,585.86c.75,12.17,0,24.38.45,36.57,4.81-.17,9.63-.16,14.44,0,.04-11.73.09-23.47.11-35.2l-.08-1.18c-4.97-.08-9.95.06-14.93-.18Z"/>
    <path class="cls-1" d="m544.4,595.2c-.51,5.64-.1,11.31-.28,16.97,1.4.05,2.8.11,4.21.17.13-5.56-.04-11.12.13-16.67-1.36-.14-2.71-.29-4.06-.47Zm2.28,15.73c-.41-4.7-.25-9.45-.06-14.16.59,4.69.27,9.45.06,14.16Z"/>
    <path class="cls-1" d="m573.1,612.98c.44-.01,1.32-.02,1.76-.02,1.74-.04,3.5-.09,5.24-.14-.12-5.89-.05-11.77,0-17.66-2.71.06-5.43.06-8.12-.22-.09,5.99-.09,12-.04,18l1.16.03Z"/>
    <path class="cls-1" d="m727.86,612.92c2.51-.08,5.04-.06,7.55.04.02-5.93.1-11.87.02-17.79-2.42.13-4.85.25-7.26.12-.7,5.84-.11,11.75-.31,17.63Z"/>
    <path class="cls-1" d="m583.84,622.05c12.43,1.22,24.85,2.6,37.32,3.31,3.17.39,6.37.66,9.58.43,14.61.62,29.25.32,43.86,0,2.85.18,5.69-.09,8.53-.38,7.91-.47,15.82-1.16,23.73-1.72,5.23-.18,10.37-1.11,15.56-1.7.74-.11,2.22-.31,2.96-.41,0-2.09-.02-4.18-.04-6.24-.71.13-2.14.38-2.85.51-1.48.29-2.96.6-4.43.87-27.68,4.07-55.74,4.34-83.66,4.02-16.25-.61-32.52-1.38-48.67-3.36-.95-.14-2.84-.42-3.79-.55.68,1.59-.66,5.1,1.9,5.21Z"/>
    <path class="cls-1" d="m569.96,624.79c-2.17-.02-4.34-.03-6.51-.03.23,14.74.08,29.5.25,44.25.34,12.19,1.49,24.71,6.54,35.96.04-.31.06-.62.06-.93,0,.31-.02.62-.06.93,7.35,17.15,20.65,31.47,36.62,40.96,7.1,4.23,14.61,8.04,22.71,9.94,17.12,4.69,35.64,4.13,52.55-1.24,19.11-5.98,36.09-18.85,47.22-35.5,7.47-10.71,12.84-23.05,14.34-36.08.1-.93.17-1.85.23-2.78h0c.73-18.52.01-37.07.41-55.6-1.96.06-3.9.13-5.83.19.01,12.19-.06,24.37.01,36.57.01,11.89-.89,24.08-5.45,35.2-3.23,8.34-8.51,15.71-14.33,22.43-1.13,1.09-2.29,2.13-3.42,3.22-8.23,8.11-18.14,14.41-28.72,19.01l-.05.26c-2.91.91-5.77,1.98-8.74,2.68-22.5,5.08-47.35,3.6-67.65-8.05-3.05-1.95-6.14-3.84-9.05-5.98-7.52-5.21-14.53-11.44-19.39-19.27-5.41-7.76-8.51-16.82-10.45-26-1.45-7.75-1.36-15.66-1.38-23.49-.01-12.22-.05-24.44.11-36.64Zm161.95,77.4c-1.85,3.37-3.89,6.64-6.12,9.78,2.23-3.14,4.27-6.41,6.12-9.78Zm-95.35,54.05c-.86-.21-1.73-.35-2.6-.42.88.08,1.75.21,2.6.42Zm-71.49-99.46c.03-2.21.05-4.42.04-6.63,0,2.21-.02,4.42-.04,6.63Zm1.17,30.16c.19,1.22.4,2.44.65,3.66-.24-1.22-.46-2.44-.65-3.66Zm3.03-6.88c.24,2.41.64,4.81,1.28,7.18-.65-2.37-1.04-4.77-1.28-7.18Z"/>
    <path class="cls-1" d="m746.04,624.83c.04,18.76.36,37.52-.31,56.27-.09.47-.26,1.43-.34,1.92-.29,1.44-.52,2.92-.66,4.4-2.53,15.69-10.7,29.94-20.81,41.97-9.82,11.6-22.85,19.95-36.66,26.03-25.35,9.47-55.15,8.17-78.59-5.9-15.17-8.66-28.3-21.2-36.45-36.75-5.26-8.76-7.92-18.77-9.16-28.83-1.43-7.94-.31-16.03-1.21-24.02.16-11.73-.2-23.46.08-35.18-1.87.06-3.74.14-5.61.22.06,16.1-.06,32.21.08,48.31-.16,14.79,3.62,29.54,10.35,42.68,1.22,2.68,2.71,5.23,4.25,7.75,9.01,13.75,21.23,25.21,35.48,33.41,11,5.9,22.78,10.77,35.26,12.3-.36,14.58.14,29.18-.08,43.78-.55,14.5-.48,29.02.31,43.52.15,6.2.27,12.47,1.32,18.61,1.13.95,2.42,1.68,3.68,2.46l1.44.22c0-.63.01-1.9.01-2.54-.04-3.3-.26-6.59-.56-9.86-1.01-14.57-1.46-29.17-1.07-43.78.43-17.4-.43-34.81-.02-52.21.79-.01,1.56-.02,2.36-.03-.38,15.24.37,30.49.19,45.72-.13,11.61-.03,23.23.22,34.84-.4,9.21,1.25,18.37.94,27.59,1.85,2.06,5.17.81,7.63,1.23.02-.88.08-2.66.1-3.54-.08-2.4-.19-4.8-.47-7.17-1.72-31.12-1.39-62.31-1.16-93.47.14-1.79.3-3.56.48-5.33.48.06,1.45.18,1.93.25-.43,8.74-.15,17.48-.18,26.22-.06,17.71-.3,35.45.39,53.16,0,1.75.08,3.52.15,5.29.27,6.85.39,13.71.97,20.54-.08.77-.23,2.32-.3,3.1,2.5-.41,4.99-1.71,6.27-3.97.54-5.48-1.04-10.92-.68-16.41-.03-6.95-.06-13.89-.3-20.82-.48-22.54.17-45.09.04-67.63.56-.06,1.69-.19,2.25-.27,3.29-.76,6.52-1.8,9.81-2.59,14.57-3.48,27.75-11.18,39.6-20.16,9.04-6.82,15.84-16.07,21.71-25.64.14-.4.42-1.21.56-1.61,5.6-9.39,9.7-19.77,11.29-30.62,1.41-8.87,1.16-17.88,1.17-26.84-.08-12.22-.16-24.45.11-36.66-1.94.01-3.88.02-5.81.04Zm-.4,63.92c.1.15.19.29.26.4-.07-.11-.16-.25-.26-.4Z"/>
    <path class="cls-1" d="m668.83,630.77c-16.25-.03-32.52.54-48.75-.57-1.11-.09-2.21-.16-3.31-.24-7.11-.5-14.23-1.11-21.33-1.75-4.02-.23-8-.99-11.87-2.09.05.6.15,1.8.2,2.4,14.58,2.29,29.3,3.37,44.02,4.19,29.66,1.14,59.5,1.07,88.93-3.16,2.64-.38,5.29-.75,7.98-.66.1-.76.31-2.3.41-3.07-3.26.89-6.59,1.53-9.94,1.84-15.41,1.5-30.84,3.13-46.35,3.11Z"/>
    <path class="cls-1" d="m629.88,664.21c1.69.26,3.43.68,5.14.23,13.89.74,27.87.87,41.77.01,3.49.44,7.1.38,10.54-.45,12.59-.4,25.17-1.9,37.61-3.85,4.53-.47,3.66-6.22,3.88-9.45-10.05,1.43-20.13,2.52-30.23,3.43-7.17.09-14.36.76-21.5,1.35-17.02.34-34.1,1.08-51.09-.17-.71.01-2.12.03-2.83.04-14.15-1.26-28.3-2.61-42.39-4.51-.41,2.83-1.04,6.13.63,8.67,15.87,3.47,32.27,4.04,48.46,4.7Z"/>
    <path class="cls-1" d="m640.05,449.36c1.64-1.61,3.19-3.33,4.66-5.1-1.36-1.53-2.64-3.12-4.12-4.52-2.15-.01-3.59,2.34-5.37,3.4,1.53,2.13,3.14,4.21,4.83,6.22Z"/>
    <path class="cls-1" d="m650.13,544.4c-1.82-2.16-3.52-4.44-5.72-6.22-1.41,1.72-2.91,3.38-4.43,5,1.84,2.06,3.68,4.12,5.52,6.19,1.58-1.62,3.13-3.28,4.64-4.97Z"/>
    <path class="cls-1" d="m692.99,549.48c-.14-.45-.43-1.35-.57-1.8-1.4-1.52-2.86-2.98-4.32-4.43-1.84,1.72-3.67,3.44-5.38,5.28l-.47,1.11c3.55.83,7.18.41,10.74-.16Z"/>
    <path class="cls-1" d="m647.69,444.86c1.33,1.97,3.12,3.57,4.8,5.25,1.32-1.71,2.64-3.43,3.95-5.15-1.38-1.81-2.74-3.62-4.11-5.41-1.67,1.59-3.82,3.12-4.64,5.32Z"/>
    <path class="cls-1" d="m694.66,457.83c1.03-1.65,2.91-3.01,3.11-5.03-1.58-2.2-3.87-3.73-5.82-5.56-1.1,1.4-2.15,2.84-3.15,4.3,1.8,2.23,3.77,4.33,5.86,6.28Z"/>
    <path class="cls-1" d="m615.3,479.51c1.74,2,2.99,4.62,5.12,6.22,1.69-1.17,3.59-2.94,4.22-4.89-1.61-2.39-3.59-4.49-5.35-6.76-1.37,1.79-2.7,3.58-3.99,5.42Z"/>
    <path class="cls-1" d="m720.31,596.24c-14.86,2.55-29.97,3.17-45,3.65-24.74,1-49.54.28-74.12-2.6-6.16-.75-12.29-1.73-18.48-2.12v17.2c1.46.17,2.95.39,4.43.52,5.41.32,10.76,1.23,16.15,1.71,30.35,2.31,60.88,2.32,91.22.09,2.92-.34,5.83-.65,8.75-1.03,2.04-.29,4.1-.51,6.17-.7,4.61-.46,9.19-1.16,13.68-2.3.6-.03,1.81-.1,2.41-.13.14-5.05.18-10.08.23-15.12-1.82.27-3.64.54-5.43.85Z"/>
    <path class="cls-1" d="m585.64,665.61c2.26,20.18,14.48,38.73,31.58,49.51,16.44,9.36,36.33,12.45,54.69,7.41,17.29-4.78,33.42-16.44,41.42-32.69,4.72-7.2,7.09-15.81,7.36-24.37-1.66.13-3.29.29-4.93.47-.66-.06-1.95-.2-2.59-.27-.45,11.27-5.37,22.07-13.02,30.27-9.74,11.53-23.99,19.24-39.04,20.68-14.03,1.57-28.6-1.64-40.6-9.1-14.47-8.69-24.74-24.2-27.01-40.95-2.56-.74-5.22-.89-7.86-.97Z"/>
    <path class="cls-1" d="m616.55,697.55c13.06,11.9,31.9,15.85,49.02,12.88,8.53-2.1,16.87-5.71,23.53-11.54,8.1-7.08,15.19-16.22,17.3-26.99-.03-.7-.11-2.11-.15-2.81l-.96-.44c-.43.06-1.29.22-1.72.29-10.09,1.37-20.3,1.26-30.45,1.49-24.54.01-49.25.75-73.61-2.67,1.8,11.6,8.66,21.82,17.03,29.79Zm88.25-26.95c-.35-.38-.67-.79-.96-1.21.28.43.6.84.96,1.21Z"/>
    <path class="cls-1" d="m632.46,442.98c-.42-.58-1.26-1.76-1.67-2.35-1.26.53-2.51,1.05-3.74,1.58-1.27.62-2.48,1.37-3.68,2.09,1.31,1.41,2.57,2.89,3.84,4.37,1.7-1.94,3.45-3.83,5.25-5.69Z"/>
    <path class="cls-1" d="m702.29,535.37c.06-2.04-2.07-3.39-3.11-4.96-1.56,1.87-3.06,3.8-4.52,5.75,1.28,1.47,2.54,2.98,3.76,4.53,1.35-1.72,2.8-3.39,3.87-5.32Z"/>
    <path class="cls-1" d="m662.96,449.44c1.78-1.42,3.2-3.19,4.73-4.84-1.4-1.58-2.85-3.1-4.35-4.57-1.4,1.46-2.86,2.87-4.01,4.54.65,1.93,2.5,3.22,3.63,4.87Z"/>
    <path class="cls-1" d="m621.5,456.83c1.85,2.31,3.48,4.8,5.32,7.13,1.75-1.98,3.51-3.95,5.25-5.93-1.69-2.26-3.41-4.51-5.19-6.69-1.76,1.86-3.55,3.69-5.38,5.49Z"/>
    <path class="cls-1" d="m675.75,450.46c1.33-1.4,2.7-2.79,3.88-4.33-1.24-1.98-3.1-3.47-4.67-5.14-.43-.02-1.29-.05-1.72-.08-.94,1.16-1.88,2.32-2.84,3.47,1.65,2.14,3.44,4.16,5.35,6.08Z"/>
    <path class="cls-1" d="m687.3,450.01c1.05-1.3,2.11-2.6,3.12-3.94-2-1.24-4.08-2.35-6.21-3.33-.42.62-1.26,1.87-1.68,2.5,1.55,1.62,3.13,3.22,4.77,4.77Z"/>
    <path class="cls-1" d="m625.51,450.12c-1.3-1.83-2.66-3.6-4.06-5.35-2.13.98-4.04,2.35-5.9,3.77,1.37,2.29,2.89,4.51,4.77,6.44,2.07-1.15,3.41-3.3,5.19-4.85Z"/>
    <path class="cls-1" d="m676.7,514.09c-2.14-2.27-3.24-6.18-6.17-7.33-1.65,1.95-3.1,4.06-4.71,6.05,1.93,2.5,3.81,5.01,5.63,7.59,2.04-1.84,3.64-4.1,5.25-6.31Z"/>
    <path class="cls-1" d="m698.23,528.94c-1.21-2.04-2.56-3.99-4.18-5.72-1.52,1.99-3.09,3.95-4.72,5.84,1.38,1.74,2.61,3.58,3.77,5.49,2.01-1.57,3.48-3.7,5.13-5.61Z"/>
    <path class="cls-1" d="m628.62,450.31c1.48,1.97,2.68,4.34,4.69,5.8,1.97-1.3,3.14-3.58,5.04-5.04-1.39-2.31-2.84-4.62-4.81-6.48-1.52,1.94-4.33,3.3-4.92,5.71Z"/>
    <path class="cls-1" d="m659.21,458.11c1.22,2.37,3.29,4.13,5.03,6.1,1.73-1.78,3.49-3.56,4.82-5.67-1.89-1.84-3.59-3.85-5.14-5.98-1.92,1.49-3.68,3.35-4.7,5.55Z"/>
    <path class="cls-1" d="m670.4,521.78c-2.14-2.27-3.5-5.32-5.98-7.2-2,2.11-3.87,4.47-5.37,6.95,1.64,2.54,3.63,4.82,5.42,7.25,2.08-2.25,4.15-4.51,5.93-7.01Z"/>
    <path class="cls-1" d="m673.83,543.16c-1.45-1.84-2.99-3.6-4.76-5.13-1.74,1.89-3.45,3.82-5.11,5.79,1.45,1.6,2.86,3.24,4.22,4.94,2.4-1.27,3.85-3.66,5.65-5.6Z"/>
    <path class="cls-1" d="m645.66,445.93c-1.37,1.7-2.84,3.33-4.38,4.87,1.55,2.14,3.26,4.16,5.1,6.07,1.6-1.66,3.15-3.37,4.65-5.11-1.72-2.01-3.29-4.18-5.37-5.83Z"/>
    <path class="cls-1" d="m664.71,450.83c1.82,2.18,3.53,4.51,5.71,6.36,1.27-1.64,2.63-3.21,4.07-4.7-1.74-2.16-3.54-4.29-5.14-6.56-1.75,1.43-3.21,3.16-4.64,4.91Z"/>
    <path class="cls-1" d="m614.68,464.69c1.55,2.24,3.21,4.39,4.85,6.55,1.93-1.93,3.79-3.92,5.74-5.82-1.43-2.53-3.13-4.89-4.89-7.18-1.85,2.2-3.73,4.35-5.7,6.45Z"/>
    <path class="cls-1" d="m690.48,498.91c1.51,2.06,3.01,4.12,4.84,5.92,1.24-2.03,2.61-3.99,3.76-6.08-.47-2.48-2.78-4.3-3.9-6.55-2.16,1.76-3.28,4.38-4.7,6.71Z"/>
    <path class="cls-1" d="m653.54,451.6c1.39,1.68,2.85,3.3,4.49,4.77,1.37-1.69,2.73-3.39,4.11-5.09-1.38-1.67-2.81-3.29-4.29-4.86-1.47,1.7-2.91,3.43-4.3,5.19Z"/>
    <path class="cls-1" d="m632.71,474.89c-1.75,2.23-3.58,4.39-5.45,6.52,1.72,2.12,3.42,4.27,5.55,6.02,1.51-2.07,3.19-3.99,4.69-6.06-.68-2.55-2.83-4.71-4.8-6.48Z"/>
    <path class="cls-1" d="m632.31,537.13c-1.5-2.11-2.68-4.58-4.92-5.99-1.46,2.23-3.09,4.35-4.76,6.42,1.49,1.82,2.96,3.63,4.42,5.46,1.64-2.06,3.38-4.04,5.25-5.89Z"/>
    <path class="cls-1" d="m681.12,447.14c-1.1,1.82-3.01,3.3-3.63,5.34,1.14,1.84,2.69,3.38,4.18,4.95,1.42-1.85,2.92-3.64,4.52-5.33-1.09-2.2-3.1-3.64-5.07-4.96Z"/>
    <path class="cls-1" d="m606.64,472.04c-1.86-2.1-3.67-4.24-5.4-6.44-1.23,2.09-2.88,3.99-3.64,6.33,1.02,2.32,2.6,4.34,3.93,6.5,2.15-1.74,3.54-4.16,5.11-6.39Z"/>
    <path class="cls-1" d="m663.21,512.93c-1.24-2.61-3.45-4.98-5.79-6.77-1.33,2.45-3.71,4.25-4.85,6.76,1.53,2.3,3.27,4.44,4.76,6.79,2.12-2.11,4.07-4.4,5.89-6.78Z"/>
    <path class="cls-1" d="m687.04,529.04c-.82-2.1-2.56-3.77-3.55-5.8-2.16,1.52-3.8,3.62-5.53,5.59,1.43,1.82,2.96,3.58,4.56,5.27,1.54-1.66,3.19-3.23,4.52-5.06Z"/>
    <path class="cls-1" d="m619.07,456.92c-.81-2.39-3.17-4.13-4.51-6.32-2.1,1.54-3.8,3.52-5.5,5.47,1.41,2.44,2.93,4.83,4.63,7.1,1.76-2.11,3.74-4.05,5.38-6.25Z"/>
    <path class="cls-1" d="m639.72,452.55c-2.25,1.09-3.42,3.67-5.14,5.45,1.6,2.16,3.33,4.24,5.15,6.23,1.76-1.89,3.53-3.79,5.28-5.68-1.78-1.98-3.11-4.47-5.29-5.99Z"/>
    <path class="cls-1" d="m603.2,493.82c.48,2.68,2.94,4.66,4.33,6.96,1.55-1.66,3.05-3.35,4.48-5.1-1.64-2.3-3.23-4.65-5.19-6.7-1.22,1.6-2.53,3.14-3.62,4.84Z"/>
    <path class="cls-1" d="m652.01,453.28c-1.4,1.7-2.83,3.37-4.29,5.01,1.42,1.79,2.94,3.5,4.52,5.14,1.44-1.79,2.87-3.58,4.29-5.39-1.4-1.69-2.86-3.33-4.52-4.77Z"/>
    <path class="cls-1" d="m603.33,479.74c.36,2.4,2.65,4.13,3.85,6.22,1.74-2.17,3.74-4.13,5.43-6.34-.75-2.39-3.11-4.15-4.95-5.84-1.42,2-3.03,3.87-4.34,5.96Z"/>
    <path class="cls-1" d="m675.74,453.73c-1.45,1.7-2.83,3.45-4.12,5.27,1.52,1.82,3.05,3.65,4.57,5.48,1.4-1.73,2.74-3.5,4-5.33-1.31-1.95-2.72-3.83-4.46-5.42Z"/>
    <path class="cls-1" d="m687.37,453.3c-1.5,1.89-3.13,3.7-4.4,5.77,1.15,2.69,3.63,4.63,5.29,7.03,1.7-1.98,3.26-4.08,4.92-6.1-1.66-2.46-3.64-4.69-5.81-6.69Z"/>
    <path class="cls-1" d="m700.58,465.44c1.3-1.75,2.61-3.51,3.94-5.25-.84-1.03-1.66-2.07-2.48-3.08-.91-.93-1.9-1.76-2.87-2.61-1,1.73-2.6,3.2-3.12,5.17,1.32,2.07,2.98,3.88,4.53,5.78Z"/>
    <path class="cls-1" d="m614.09,529.59c-1.25-1.85-2.68-3.57-4.22-5.18-1.21,1.93-2.52,3.8-3.62,5.8.46,1.79,1.71,3.21,2.61,4.79,2.03-1.51,3.51-3.58,5.22-5.41Z"/>
    <path class="cls-1" d="m613.76,544.88c-1.56-2.1-3.03-4.25-4.47-6.44-1.57,1.43-3.06,2.94-4.46,4.53,1.28,2.06,2.55,4.12,3.81,6.21,1.9-1.17,3.55-2.71,5.11-4.3Z"/>
    <path class="cls-1" d="m612.51,464.72c-1.73-2.46-3.35-5.05-5.65-7.02-1.26,2.31-2.8,4.46-4.25,6.65,1.75,2,3.4,4.1,5,6.23,1.82-1.8,3.47-3.74,4.9-5.86Z"/>
    <path class="cls-1" d="m620.82,472.89c1.8,2.32,3.43,4.79,5.54,6.85,1.71-2.25,3.52-4.4,5.41-6.5-1.8-2.11-3.55-4.27-5.26-6.47-2.02,1.92-4.04,3.86-5.69,6.11Z"/>
    <path class="cls-1" d="m627.86,465.08c1.38,2.45,3.27,4.53,5.19,6.56,1.78-1.97,3.51-3.97,5.2-6.02-1.61-2.13-3.25-4.24-4.85-6.37-1.73,2.04-3.53,4.04-5.53,5.82Z"/>
    <path class="cls-1" d="m647.29,472.95c1.44,2.06,3.13,3.93,4.61,5.97,1.86-2.02,4.53-3.98,5.07-6.74-1.5-2.01-3.21-3.84-4.71-5.83-1.69,2.12-4.12,4.01-4.96,6.6Z"/>
    <path class="cls-1" d="m666.23,480.62c1.6,2.07,3.22,4.13,4.85,6.18,1.51-1.64,3.13-3.21,4.34-5.1-1.39-2.41-3.35-4.42-5.06-6.6-1.32,1.88-2.69,3.72-4.13,5.52Z"/>
    <path class="cls-1" d="m625.36,513.54c-1.45-2.49-3.26-4.73-4.98-7.03-1.65,2.14-3.22,4.34-4.7,6.6,1.57,2.36,3.4,4.54,5.48,6.49,1.24-2.11,3.4-3.78,4.21-6.06Z"/>
    <path class="cls-1" d="m685.2,578.53c-33.24-.08-66.6,1.5-99.71-2.27-.43-.02-1.3-.05-1.73-.08.02,1.7.06,3.41.1,5.12,8.38,1.17,16.79,2.23,25.25,2.54,6.16.28,12.3.55,18.47.71,1.53-.2,3.07-.34,4.62-.46-1.54.12-3.08.26-4.62.46,4.62.32,9.25.62,13.89.36,1.01.03,3.03.09,4.05.12,8-.01,16,.03,24.01,0,1-.06,3-.18,4-.25-1.16-.42-2.33-.67-3.52-.82,1.19.15,2.36.4,3.52.82h.2c5.1.11,10.2-.18,15.3-.39,2.5-.19,4.99-.44,7.5-.49,6.49-.12,12.91-1.05,19.36-1.74,1.32-.17,2.64-.39,3.96-.65,1.94.34,3.8-.51,5.64-.99-.08-1.83-.14-3.66-.17-5.49-10.38,1.9-20.96,2.37-31.48,3.07-2.87.28-5.75.53-8.63.43Z"/>
    <path class="cls-1" d="m646.18,460.07c-1.99,1.64-3.43,3.86-5.42,5.53,1.5,2.07,3.21,3.97,5.13,5.66,1.4-2.26,3.94-4.06,4.6-6.62-1.3-1.59-2.4-3.73-4.3-4.57Z"/>
    <path class="cls-1" d="m657.32,459.89c-1.29,1.62-2.6,3.22-3.95,4.8,1.62,2.22,3.41,4.32,5.36,6.27,1.37-1.75,2.75-3.49,4.15-5.21-1.76-2.06-3.53-4.09-5.56-5.86Z"/>
    <path class="cls-1" d="m694.74,461.43c-2.18,1.37-3.83,4.08-5.15,6.34,1.38,1.92,3.07,3.57,4.59,5.37,1.47-2.21,4-3.86,4.85-6.37-1.25-1.92-2.61-3.79-4.29-5.34Z"/>
    <path class="cls-1" d="m711.1,481.93c1.4-1.86,2.65-3.84,3.98-5.75-1.55-1.58-2.74-3.43-3.6-5.45-.38.36-1.12,1.07-1.5,1.43-.91,1.13-1.82,2.28-2.72,3.42,1.23,2.14,2.51,4.26,3.84,6.34Z"/>
    <path class="cls-1" d="m665.42,465.59c1.65,2.11,3.28,4.24,4.91,6.38,1.85-1.78,3.31-3.88,4.72-6.03-1.61-1.88-3.25-3.76-4.83-5.66-1.52,1.85-3.11,3.63-4.8,5.31Z"/>
    <path class="cls-1" d="m649.89,512.74c-1.44-2.06-3.02-4-4.73-5.83-1.38,1.87-2.86,3.66-4.42,5.39,1.36,2.37,2.79,4.7,4.3,6.97,1.7-2.12,3.3-4.3,4.85-6.53Z"/>
    <path class="cls-1" d="m681.09,460.89c-1.26,1.74-2.5,3.51-3.69,5.31,1.95,1.89,3.21,4.54,5.42,6.11,1.62-1.14,2.8-2.79,4.21-4.18-1.59-2.71-3.59-5.17-5.94-7.24Z"/>
    <path class="cls-1" d="m609.14,472.07c1.6,1.94,3.22,3.86,4.83,5.8,1.5-1.67,2.97-3.34,4.42-5.04-1.56-2.14-3.14-4.26-4.77-6.34-1.53,1.84-3.01,3.69-4.49,5.57Z"/>
    <path class="cls-1" d="m608.39,487.7c1.74,1.97,3.29,4.1,4.75,6.31,2.13-2.07,4.06-4.32,6.03-6.52-1.66-2.22-3.39-4.39-5.21-6.47-1.98,2.12-4.07,4.18-5.56,6.68Z"/>
    <path class="cls-1" d="m634.89,504.47c1.55,2.02,2.63,4.91,4.91,6.11,1.71-1.46,2.8-3.52,4.22-5.25-1.64-2.13-3.21-4.29-4.7-6.51-1.95,1.46-3.05,3.7-4.42,5.65Z"/>
    <path class="cls-1" d="m693.97,506.51c-1.49-2.09-2.91-4.22-4.3-6.36-1.56,1.94-3.05,3.94-4.46,5.99,1.45,2.12,2.75,4.37,4.63,6.18,1.37-1.95,2.74-3.87,4.13-5.81Z"/>
    <path class="cls-1" d="m619.86,521.28c-1.65-2.24-3.38-4.41-5.46-6.25-1.11,2.5-2.28,4.96-3.57,7.36,1.3,1.82,2.71,3.56,4.2,5.26,1.64-2.11,3.25-4.23,4.83-6.37Z"/>
    <path class="cls-1" d="m626.43,529.47c-1.51-2.44-3.45-4.57-5.28-6.77-1.66,2.17-3.36,4.32-5.11,6.41,1.89,2.28,3.41,5,6.02,6.59,1.35-2.16,3.03-4.08,4.38-6.23Z"/>
    <path class="cls-1" d="m721.84,533.39c.23-2.41-1.65-4.09-3.08-5.71-1.45,2.21-2.88,4.4-4.35,6.6,1.19,1.83,2.38,3.68,3.55,5.54,1.52-1.97,3.58-3.82,3.87-6.42Z"/>
    <path class="cls-1" d="m634.23,473.6c1.7,1.85,3.3,3.79,4.81,5.8,1.85-2.23,3.76-4.42,5.25-6.9-1.69-1.75-3.27-3.63-5.18-5.14-1.68,2.04-3.42,4.04-4.89,6.24Z"/>
    <path class="cls-1" d="m663.96,467.34c-1.18,1.95-3.11,3.53-3.83,5.7,1.42,2.06,3.08,3.95,4.54,5.99,1.89-1.57,3.27-3.63,4.6-5.67-1.72-2.06-3.29-4.26-5.31-6.03Z"/>
    <path class="cls-1" d="m709.23,513.66c-.85-1.93-2.12-3.65-3.16-5.47-1.95,1.56-3.22,3.72-4.62,5.75,1.14,1.82,2.28,3.65,3.4,5.49,1.62-1.79,3.21-3.65,4.38-5.77Z"/>
    <path class="cls-1" d="m672.04,473.19c.9,2.59,3.14,4.63,4.93,6.73,1.44-1.9,2.87-3.82,4.3-5.74-1.7-2.16-3.35-4.36-4.98-6.55-1.45,1.82-3.05,3.55-4.25,5.56Z"/>
    <path class="cls-1" d="m665.09,511.01c1.23-2.17,2.92-4.02,4.41-6-.86-2.66-3.11-4.75-4.38-7.25-2.61,1.52-3.98,4.38-5.97,6.56,1.9,2.28,3.41,5.01,5.94,6.69Z"/>
    <path class="cls-1" d="m695.78,474.91c1.39,2.24,3.12,4.23,4.85,6.21,1.45-1.89,2.87-3.81,4.26-5.76-1.53-2.09-2.93-4.27-4.24-6.49-1.88,1.7-4.23,3.53-4.87,6.04Z"/>
    <path class="cls-1" d="m720.06,499.09l-.41-.68c-1.04-1.79-2.17-3.52-3.35-5.22-1.31,1.94-2.59,3.88-3.86,5.83,1.04,1.84,2.09,3.69,3.14,5.54,1.4-1.45,2.66-3.03,3.87-4.65l.6-.83Z"/>
    <path class="cls-1" d="m613.58,513.3c-2.07-3.16-4.08-6.37-6.02-9.61-1.62,1.88-3.49,3.67-4.51,5.98,2.36,3.56,4.2,7.52,7.1,10.7,1.04-2.4,2.16-4.78,3.42-7.07Z"/>
    <path class="cls-1" d="m688.22,469.54c-1.84,1.14-2.89,3.21-4.42,4.71,1.5,1.98,2.98,4.02,4.94,5.6,1.09-1.83,3.2-3.29,3.66-5.36-1.19-1.8-2.44-3.66-4.18-4.95Z"/>
    <path class="cls-1" d="m640.24,480.93c1.73,2.21,3.11,4.79,5.42,6.47,1.54-2.36,3.52-4.39,5.08-6.73-1.26-2.53-3.39-4.47-5.26-6.53-1.65,2.34-3.4,4.59-5.24,6.79Z"/>
    <path class="cls-1" d="m653.77,480.62c1.48,2.16,3.29,4.08,5.2,5.88,1.57-1.93,3.12-3.85,4.68-5.78-1.7-2.21-3.4-4.4-5.19-6.53-1.42,2.21-3.92,3.95-4.69,6.44Z"/>
    <path class="cls-1" d="m619.93,489.05c-1.76,2.17-3.62,4.29-5.39,6.47,2.1,2.66,3.74,5.74,6.42,7.89,1.52-2.45,3.22-4.79,4.77-7.21-1.93-2.39-3.5-5.08-5.8-7.15Z"/>
    <path class="cls-1" d="m628.08,496.17c1.78,2.44,3.55,4.91,5.74,7.02,1.31-2.13,2.63-4.26,3.97-6.37-1.76-2.14-3.52-4.28-5.27-6.41-1.46,1.94-2.95,3.85-4.43,5.77Z"/>
    <path class="cls-1" d="m663.45,496.22c-1.35-2.3-2.84-4.56-4.92-6.26-1.71,2.29-3.5,4.52-5.29,6.76,1.67,1.87,2.73,4.41,4.86,5.82,1.97-1.95,3.39-4.37,5.35-6.32Z"/>
    <path class="cls-1" d="m627.9,527.7c2.04-1.16,2.91-3.85,4.13-5.82-1.68-2.26-3.39-4.5-5.22-6.64-1.71,1.93-3.2,4.05-4.55,6.23,2.06,1.87,3.4,4.77,5.64,6.23Z"/>
    <path class="cls-1" d="m682.14,475.95c-1.38,1.89-2.79,3.78-4.21,5.63,1.7,1.79,2.71,4.43,4.82,5.7,1.71-1.61,3.02-3.62,4.32-5.57-1.13-2.25-2.93-4.21-4.93-5.76Z"/>
    <path class="cls-1" d="m660.08,488.65c1.67,1.82,3.12,3.86,5.09,5.39,1.3-2.02,3.43-3.57,4.47-5.71-1.29-2.24-2.98-4.21-4.77-6.05-1.69,2.07-3.44,4.07-4.79,6.37Z"/>
    <path class="cls-1" d="m689.66,481.6c1.75,2.31,3.43,4.7,5.07,7.11,1.75-1.76,3.13-3.85,4.5-5.93-1.7-2.22-3.36-4.46-4.98-6.71-1.83,1.57-3.25,3.54-4.58,5.53Z"/>
    <path class="cls-1" d="m701.61,482.98c1.42,2,2.79,4.07,4.62,5.75,1.18-1.69,2.41-3.35,3.66-4.97-1.32-2.23-2.65-4.46-4.16-6.56-1.38,1.93-2.74,3.85-4.11,5.79Z"/>
    <path class="cls-1" d="m675.92,496.67c-1.66-2.17-2.95-4.65-4.95-6.52-1.95,1.61-3.29,3.82-5.03,5.65,1.69,2.46,3.41,4.92,5.18,7.35,1.73-2.07,3.29-4.26,4.8-6.48Z"/>
    <path class="cls-1" d="m701.77,498.09c1.28,2.2,2.58,4.38,3.93,6.54,1.62-1.83,3.05-3.81,4.4-5.84-1.4-2.28-2.8-4.57-4.49-6.65-1.19,2.03-2.48,4.02-3.84,5.95Z"/>
    <path class="cls-1" d="m700.6,512.1c1.26-2,2.67-3.9,4.18-5.7-1.52-2.11-2.91-4.29-4.1-6.59-1.59,2.16-2.97,4.48-4.37,6.77,1.26,1.96,2.48,4.01,4.29,5.52Z"/>
    <path class="cls-1" d="m672.38,488.08c1.11,2.63,3.41,4.61,5.01,6.96,1.39-1.87,2.71-3.8,3.92-5.79-1.42-2.13-2.94-4.21-4.65-6.1-1.43,1.64-2.97,3.2-4.28,4.93Z"/>
    <path class="cls-1" d="m656.75,504.3c-1.54-2.1-3.12-4.16-5.04-5.93-1.6,2.32-3.54,4.39-5.13,6.71,1.29,2.14,2.89,4.08,4.36,6.11,2.29-1.99,4.04-4.48,5.81-6.9Z"/>
    <path class="cls-1" d="m682.95,505.79c-1.98-2.43-3.7-5.07-5.6-7.57-1.75,2.12-3.42,4.32-5.14,6.47,2.06,2.54,3.66,5.43,6.03,7.72,1.59-2.2,3.24-4.35,4.71-6.62Z"/>
    <path class="cls-1" d="m663.35,530.18c-2.04-2.41-3.9-4.97-5.89-7.41-1.89,2.38-3.81,4.75-5.7,7.12,2,2.17,3.9,4.46,5.64,6.85,2.02-2.15,3.98-4.36,5.95-6.56Z"/>
    <path class="cls-1" d="m706.36,473.91c.76-.96,1.53-1.92,2.3-2.86,2.72-3.39-1.89-6.39-3.36-9.25-1.12,1.8-2.37,3.51-3.6,5.23,1.44,2.37,3,4.66,4.66,6.89Z"/>
    <path class="cls-1" d="m650.55,496.81c-1.35-2.38-3.4-4.27-4.93-6.52-2.1,1.95-3.83,4.23-5.56,6.5,1.83,2.28,2.89,5.5,5.69,6.8,1.33-2.44,3.19-4.53,4.8-6.78Z"/>
    <path class="cls-1" d="m716.86,506.36c.89,1.43,1.8,2.86,2.69,4.3.47-.29,1.43-.88,1.9-1.18.49-2.88.57-5.8.04-8.68l-1.02.41c-1.21,1.72-2.41,3.43-3.62,5.15Z"/>
    <path class="cls-1" d="m600.54,479.74c-1.39-1.94-2.8-3.85-4.43-5.59-.91,1.75-2.58,3.33-2.67,5.39.95,2.02,2.38,3.76,3.9,5.38,1.17-1.67,2.23-3.41,3.21-5.19Z"/>
    <path class="cls-1" d="m716.81,489.63c.61-1.13,1.23-2.26,1.85-3.38-.17-2.7-1.62-5.2-3.3-7.26-.98,1.59-2,3.16-3.02,4.73,1.38,2.04,2.87,4.02,4.48,5.91Z"/>
    <path class="cls-1" d="m595.58,486.14c-.77-1.64-2.01-2.98-3.19-4.32-.7,1.11-1.42,2.22-2.08,3.36-.44,2.64-.04,5.25,1.09,7.67,1.55-2.11,3.52-4.12,4.18-6.71Z"/>
    <path class="cls-1" d="m598.24,486.33c1.04,2.14,2.3,4.18,3.73,6.09,1.39-1.65,2.72-3.33,3.99-5.06-1.43-1.92-2.77-3.9-4.04-5.91-1.29,1.58-2.52,3.21-3.69,4.87Z"/>
    <path class="cls-1" d="m683.8,489.27c1.59,2.52,3.42,5.31,5.49,7.33,1.8-1.8,2.83-4.26,4.38-6.28-1.75-2.44-3.55-4.85-5.35-7.25-1.47,2.09-3.11,4.07-4.52,6.21Z"/>
    <path class="cls-1" d="m712.17,534.27c-.94-1.78-1.9-3.53-2.89-5.26-2.01,1.7-3.35,3.97-4.51,6.31,1.11,1.42,2.21,2.87,3.28,4.34,1.36-1.81,2.73-3.59,4.12-5.38Z"/>
    <path class="cls-1" d="m695.98,490.49c1.44,2.11,2.94,4.21,4.52,6.24,1.44-2.09,2.84-4.21,4.19-6.36-1.38-1.88-2.7-3.81-3.98-5.75-1.72,1.83-3.21,3.86-4.72,5.86Z"/>
    <path class="cls-1" d="m706.94,490.49c1.49,2.18,2.89,4.43,4.25,6.7,1.6-1.76,2.94-3.76,4.19-5.78-1.44-2.06-2.8-4.16-4.11-6.3-1.52,1.73-2.96,3.52-4.33,5.37Z"/>
    <path class="cls-1" d="m592.58,494.56c1.4,1.75,2.64,3.64,3.8,5.56,1.61-1.82,2.97-3.83,4.32-5.85-1.15-2.04-2.41-4.04-3.86-5.86-1.45,2.02-2.85,4.09-4.25,6.16Z"/>
    <path class="cls-1" d="m682.2,491.19c-.93,1.9-3.03,3.5-3.29,5.57,1.94,2.32,3.02,5.74,5.53,7.34,1.47-1.84,2.65-3.88,3.87-5.89-2.24-2.17-3.69-5.05-6.11-7.03Z"/>
    <path class="cls-1" d="m597.59,501.41c1.29,2.13,2.57,4.25,3.85,6.38,1.96-1.52,3.51-3.5,4.8-5.6-1.28-2.17-2.93-4.09-4.38-6.12-1.56,1.67-2.96,3.48-4.27,5.34Z"/>
    <path class="cls-1" d="m608.72,502.15c1.87,3.01,3.82,5.98,5.57,9.07,1.97-1.9,3.54-4.15,5-6.45-2.28-2.44-4.18-5.19-6.14-7.87-1.56,1.68-3.03,3.42-4.43,5.24Z"/>
    <path class="cls-1" d="m621.87,505.19c1.7,2.4,3,5.37,5.61,6.92,1.32-2.64,3.83-4.76,4.64-7.54-1.56-2.34-3.49-4.38-5.25-6.54-1.55,2.41-4.01,4.53-4.99,7.17Z"/>
    <path class="cls-1" d="m645.09,534.85c1.9-1.32,3.12-3.34,4.47-5.18-2.07-2.14-3.6-4.69-4.9-7.35-1.69,1.96-3.15,4.09-4.59,6.22,1.67,2.1,2.93,4.59,5.03,6.31Z"/>
    <path class="cls-1" d="m638.45,512.32c-1.68-1.94-3.35-3.88-4.96-5.88-1.69,2.4-3.48,4.75-5.4,6.96,1.57,2.4,3.25,4.71,5.12,6.9,1.95-2.53,3.64-5.23,5.24-7.98Z"/>
    <path class="cls-1" d="m687.98,513.87c-.79-2.32-2.65-4.13-3.95-6.18-1.84,1.97-3.41,4.16-4.89,6.41,1.43,2.04,2.93,4.07,4.55,5.98,1.4-2.09,2.99-4.06,4.28-6.22Z"/>
    <path class="cls-1" d="m694.65,519.52c1.61-1.8,2.98-3.79,4.55-5.63-1.27-1.94-2.57-3.85-3.91-5.74-1.75,1.78-3.24,3.78-4.67,5.82,1.38,1.79,2.1,4.3,4.02,5.54Z"/>
    <path class="cls-1" d="m711.67,513.22c.86,1.53,1.72,3.03,2.61,4.55,1.67-1.47,3-3.26,4.33-5.03-.91-1.53-1.82-3.06-2.71-4.56-1.43,1.66-2.83,3.35-4.23,5.04Z"/>
    <path class="cls-1" d="m591.46,521.84c1.58-1.8,2.96-3.76,4.37-5.68-1.23-2.07-2.21-4.37-4.12-5.89-.94,2.27-2.48,4.39-2.75,6.87.69,1.64,1.62,3.15,2.51,4.7Z"/>
    <path class="cls-1" d="m692.1,535.79c-1.36-1.64-2.25-3.78-4.05-4.97-1.7,1.32-3.15,2.94-4.36,4.71,1.23,1.94,2.91,3.53,4.44,5.22,1.42-1.57,2.75-3.22,3.96-4.96Z"/>
    <path class="cls-1" d="m601.38,511.26c-1.23,1.79-2.43,3.58-3.59,5.41.97,1.5,1.85,3.06,2.82,4.56,2.2-.43,2.91-3.48,4.42-4.98-1.07-1.78-2.23-3.49-3.65-4.99Z"/>
    <path class="cls-1" d="m643.63,520.54c-1.28-2.29-2.67-4.54-4.43-6.49-1.39,2.65-2.98,5.19-4.82,7.54,1.46,1.9,2.95,3.8,4.48,5.66,1.75-2.12,3.19-4.48,4.78-6.71Z"/>
    <path class="cls-1" d="m651.03,528.3c1.66-2.38,3.42-4.68,5.27-6.91-1.62-2.45-3.19-5.01-5.47-6.93-1.71,2.23-3.39,4.49-4.9,6.85,1.71,2.3,2.67,5.27,5.09,6.98Z"/>
    <path class="cls-1" d="m713.49,519.47c-.98-1.57-2.09-3.05-3.35-4.39-1.38,2.06-2.72,4.14-4.1,6.21,1,1.5,2,3,2.98,4.52,1.55-2.08,3.02-4.2,4.47-6.34Z"/>
    <path class="cls-1" d="m721.72,518.02c-.82-1.22-1.62-2.43-2.4-3.65-1.23,1.62-2.42,3.26-3.55,4.95,1.11,1.62,2.24,3.24,3.34,4.9.77-1.21,1.57-2.39,2.38-3.57.05-.66.17-1.97.24-2.63Z"/>
    <path class="cls-1" d="m682.26,521.48c-1.44-1.86-2.84-3.76-4.19-5.68-1.88,1.93-3.41,4.15-5.24,6.13,1.19,1.83,2.48,3.6,3.83,5.33,1.95-1.83,3.81-3.78,5.6-5.78Z"/>
    <path class="cls-1" d="m596.33,528.37c1.1-1.79,2.39-3.48,3.24-5.4-.73-1.79-1.84-3.37-2.84-4.99-1.5,1.76-2.79,3.69-4.01,5.66.99,1.72,1.9,3.58,3.62,4.73Z"/>
    <path class="cls-1" d="m688.93,527.03c1.55-1.73,2.89-3.63,4.35-5.45-1.16-2.18-2.45-4.28-3.91-6.27-1.62,2.06-3.19,4.16-4.71,6.3,1.4,1.71,1.82,5.07,4.27,5.42Z"/>
    <path class="cls-1" d="m703.84,521.38c-1.01-2.08-2.22-4.06-3.7-5.82-1.61,1.93-3.13,3.93-4.57,5.98,1.21,1.98,2.53,3.91,4.04,5.68,1.35-1.99,2.75-3.95,4.24-5.84Z"/>
    <path class="cls-1" d="m608.98,522.41c-.86-1.58-1.85-3.09-3.17-4.32-1.4,1.78-2.72,3.59-4,5.46,1.01,1.58,1.97,3.19,2.91,4.82,1.87-1.64,2.96-3.91,4.27-5.96Z"/>
    <path class="cls-1" d="m590.76,523.74c-1.07-1.72-2.2-3.4-3.38-5.04-.38.63-1.12,1.92-1.5,2.55-1.6,2.59-.06,5.19,1.54,7.3,1.05-1.66,2.2-3.24,3.34-4.81Z"/>
    <path class="cls-1" d="m717.8,525.94c-1.07-1.59-2.09-3.22-3.08-4.84-1.75,1.81-3.14,3.93-4.57,6,1,1.88,2.1,3.72,3.4,5.43,1.45-2.18,2.93-4.34,4.25-6.6Z"/>
    <path class="cls-1" d="m637.93,529.12c-1.51-1.84-2.69-3.98-4.55-5.48-1.74,1.64-2.85,3.84-4.24,5.78.96,2.18,2.91,3.82,4.32,5.75,1.72-1.84,3.14-3.93,4.48-6.05Z"/>
    <path class="cls-1" d="m675.62,528.87c-1.17-1.89-2.55-3.64-3.98-5.32-2.11,2.12-4.07,4.37-6.05,6.61,1.17,1.58,2.32,3.17,3.45,4.8,2.54-1.64,4.36-4.09,6.58-6.09Z"/>
    <path class="cls-1" d="m721.56,523.46c-1.33,1.3-1.58,3.34-.2,4.72,1.86-.4,2.11-4.28.2-4.72Z"/>
    <path class="cls-1" d="m592.05,534.45c.89-1.45,1.8-2.89,2.7-4.34-.95-1.52-1.88-3.06-2.81-4.58-1.43,1.25-2.43,2.86-3.38,4.5,1.15,1.47,2.31,2.95,3.49,4.42Z"/>
    <path class="cls-1" d="m604.07,530.66c-.9-2.06-2.03-4-3.69-5.53-1.08,1.7-2.16,3.39-3.3,5.05.83,1.65,1.72,3.27,2.7,4.83,1.55-1.33,2.97-2.8,4.29-4.35Z"/>
    <path class="cls-1" d="m686.87,542.1c-1.55-1.82-3.16-3.6-5.06-5.07-1.09,1.44-2.15,2.91-3.16,4.4-.59-.59-1.16-1.18-1.72-1.78,1.53-1.23,2.91-2.63,4.19-4.11-1.44-1.74-2.82-3.53-4.16-5.35-2.13,2-4.83,3.76-6.13,6.41,3.1,3.97,6.68,7.61,10.37,11.05,1.83-1.92,3.74-3.76,5.68-5.56Z"/>
    <path class="cls-1" d="m620.6,537.08c-2.03-1.73-3.82-3.73-5-6.13-2.24,1.5-3.66,3.84-5.37,5.85,1.57,2.11,2.78,4.53,4.71,6.35,2.41-1.32,3.98-3.91,5.66-6.07Z"/>
    <path class="cls-1" d="m590.84,536.42c-.99-1.47-1.99-2.94-2.96-4.41-3.55.76-1.56,5.81-.37,8.04,1.07-1.25,2.2-2.44,3.33-3.63Z"/>
    <path class="cls-1" d="m596.3,540.08c.87-1.13,1.76-2.26,2.66-3.37-.89-1.44-1.74-2.89-2.72-4.27-2-.17-2.18,2.74-3.03,4.05,1.02,1.21,2.08,2.38,3.1,3.59Z"/>
    <path class="cls-1" d="m604.22,541.19c1.56-1.32,2.71-3.03,3.99-4.62-1.05-1.61-2.18-3.16-3.49-4.57-1.18,1.6-2.44,3.15-3.79,4.63,1.08,1.46,1.5,3.84,3.28,4.56Z"/>
    <path class="cls-1" d="m651.64,542.85c1.64-1.59,3.2-3.26,4.57-5.08-1.9-2.08-3.76-4.19-5.59-6.32-1.53,1.71-3.16,3.34-4.57,5.15,1.5,2.38,3.71,4.18,5.59,6.24Z"/>
    <path class="cls-1" d="m668.1,536.55c-1.24-1.69-2.37-3.56-4.23-4.63-1.66,2-3.36,3.96-5.1,5.88,1,1.74,2.23,3.34,3.58,4.83,2.01-1.93,3.93-3.96,5.75-6.08Z"/>
    <path class="cls-1" d="m713.37,545.84c1.23-1.27,2.26-2.71,3.38-4.08-1.04-2.09-2.14-4.13-3.33-6.13-1.6,2.18-5.81,4.98-2.98,7.78.86.76,1.44,3.14,2.93,2.43Z"/>
    <path class="cls-1" d="m706.95,541.14c-1.09-1.57-2.2-3.11-3.36-4.62-1.28,1.9-2.63,3.77-4.04,5.58,1.22,1.44,2.44,2.88,3.66,4.34,1.26-1.76,2.5-3.53,3.73-5.31Z"/>
    <path class="cls-1" d="m594.99,541.76c-.98-1.44-1.97-2.86-2.95-4.28-1.09,1.26-2.12,2.55-3.07,3.92,1.04,1.27,2.09,2.54,3.11,3.84.96-1.16,1.93-2.32,2.91-3.48Z"/>
    <path class="cls-1" d="m602.79,542.94c-.88-1.5-1.59-3.15-2.87-4.36-1.58.19-1.87,2.32-2.86,3.34.87,1.4,1.78,2.79,2.66,4.21,1.01-1.08,2.04-2.14,3.08-3.19Z"/>
    <path class="cls-1" d="m637.32,543.09c-1.31-1.52-2.24-3.5-3.99-4.52-2.15,1.52-3.47,3.97-5.33,5.82,1.23,1.7,2.55,3.33,3.97,4.87,1.88-1.97,3.67-4.02,5.35-6.18Z"/>
    <path class="cls-1" d="m656.92,548.53c1.57-1.29,2.84-2.89,4.16-4.41-1.09-1.72-2.36-3.3-3.9-4.62-1.42,1.62-2.85,3.23-4.29,4.82,1.28,1.44,2.4,3.1,4.02,4.21Z"/>
    <path class="cls-1" d="m586.79,541.41v.27c0-.07,0-.17,0-.27Z"/>
    <path class="cls-1" d="m586.79,541.41v-.26c0,.06,0,.16,0,.26Z"/>
    <path class="cls-1" d="m712.03,548.43c-1.21-2.03-2.65-3.91-4.19-5.69-1.37,1.88-2.63,3.83-3.77,5.86,2.65.13,5.31.06,7.95-.17Z"/>
    <path class="cls-1" d="m598.05,548.58c-.03-.56-.1-1.68-.13-2.24-.67-1.04-1.37-2.06-2.08-3.05-1.24,1.56-2.45,3.13-3.69,4.68,1.93.48,3.91.71,5.9.6Z"/>
    <path class="cls-1" d="m701.77,548.84c.4-2.22-2.32-3.51-3.49-5.11-1.07,1.62-2.15,3.24-3.22,4.85,2.16.68,4.48.52,6.7.26Z"/>
    <path class="cls-1" d="m606.8,550.7l-.12-1.39c-1.03-1.65-2.11-3.25-3.2-4.84-.9.97-1.82,1.94-2.73,2.91-1.23,3.48,4.14,2.45,6.05,3.33Z"/>
    <path class="cls-1" d="m643.85,550.52c-1.51-2.18-3.29-4.14-5.22-5.96-1.87,2.04-3.73,4.11-5.79,5.98l1.09.02c3.3.05,6.61.03,9.92-.04Z"/>
    <path class="cls-1" d="m667.22,550.54l-.56-.98c-1.38-1.53-2.8-2.99-4.23-4.46-1.59,1.82-3.15,3.66-4.82,5.4,3.2.09,6.4.13,9.61.03Z"/>
    <path class="cls-1" d="m674.98,544.56c-1.73,1.81-3.5,3.65-4.64,5.91,3.16-.08,6.35-.29,9.48-.84-1.53-1.78-3.16-3.45-4.84-5.07Z"/>
    <path class="cls-1" d="m618.28,550.54c-1.11-1.59-2.31-3.12-3.77-4.39-1.28,1.55-2.65,3-4.08,4.4,2.6.03,5.23.06,7.84-.01Z"/>
    <path class="cls-1" d="m630.29,550.51c-1.05-1.62-2.23-3.19-3.45-4.67-1.62,1.46-3.15,3.03-4.54,4.72,2.67.08,5.34.06,8-.05Z"/>
    <path class="cls-1" d="m655.66,550.55c-1.29-1.7-2.66-3.35-4.08-4.93-1.56,1.58-3.09,3.19-4.55,4.84l1.15.04c2.49.08,4.98.09,7.48.04Z"/>
    <path class="cls-1" d="m723.06,565.51c-7.35,1.25-14.82,1.12-22.23,1.65.73.11,1.46.24,2.19.39-.73-.15-1.46-.28-2.19-.39-2.67.13-5.35.28-8.02.31-3.34.2-6.67.39-10.01.37-1.95,0-3.91.05-5.84.09-9.32,0-18.66-.36-27.97.16-16.79.04-33.55-1.02-50.28-2.29-5.31-.5-10.54-1.47-15.8-2.17.43,2.38.8,4.77,1.12,7.17,1.09.23,2.18.43,3.29.61,12.58,1.19,25.18,2.61,37.84,2.61.29.01.86.02,1.14.02,15.37.48,30.74.01,46.11.09,5.74.32,11.47,0,17.21-.29,5.79-.06,11.58-.43,17.36-.73,4.18-.05,8.32-.7,12.45-1.3.73-.11,2.2-.3,2.93-.41.66-.1,1.95-.29,2.6-.4-.04-1.82-.06-3.63-.08-5.43-.46-.01-1.38-.03-1.83-.04Z"/>
    <path class="cls-1" d="m758.12,595.7c-.16.01-.34.03-.55.04.21-.02.39-.03.55-.04v-1.29c-1.43.04-2.86.09-4.27.13-.11,6.31-.06,12.62.06,18.93h0c-.03.64-.12,1.9-.15,2.53,1.41-.02,2.83-.04,4.26-.05v-.96c.16-6.42.06-12.86.1-19.28Z"/>
    <path class="cls-1" d="m763.84,595.73c-.99.01-2.99.03-3.98.04.02,5.54-.16,11.09.08,16.65l1.98.37c.19-5.18.17-10.34.03-15.52.22,0,.65,0,.86-.01-.51,5.04.69,10.23-.8,15.14.63.02,1.89.05,2.53.08.12-5.58.04-11.17.14-16.74h-.84Z"/>
    <path class="cls-1" d="m724.08,633.35c-15.69,1.92-31.41,3.5-47.19,4.5-2.09-.01-4.18.11-6.25.23h0c-12.77.51-25.58.75-38.34-.03-.87.41-1.72.87-2.56,1.34.84-.47,1.68-.93,2.56-1.34-6.32-.24-12.6-.88-18.91-1.12-2.17-.24-4.36-.47-6.54-.51l.73-.25c-1.32-.26-2.65-.29-3.97-.12-6.74-1.1-13.49-2.08-20.27-2.87v4.47c1.28.24,2.57.46,3.86.68,12.34,1.85,24.8,2.57,37.25,3.36,1.74.09,3.5.12,5.25.12h0c12.77.7,25.55.26,38.32.05,2.89.08,5.79-.11,8.68-.28,4.68-.11,9.35-.44,14.03-.7,1.74-.05,3.5-.16,5.24-.3,9.67-.51,19.23-2.38,28.9-2.79.22-1.38.44-2.75.69-4.11-.38-.08-1.12-.25-1.5-.32Z"/>
    <path class="cls-1" d="m596.42,644.27c-4.3-.34-8.58-1.08-12.77-2.12-.05,1.15-1.47,3.38.4,3.73,11.47,1.5,22.93,3.13,34.49,3.84,1.04.05,2.09.12,3.14.19,9.93.83,19.89,1.66,29.86,1.41,22.58-.33,45.21-1.35,67.58-4.57,2.11-.29,4.23-.55,6.35-.77.02-1.33.04-2.67.08-3.99h-1.5c-42.28,5.39-85.2,6.63-127.63,2.28Z"/>
    <path class="cls-1" d="m554.6,594.5c-1.44.03-2.87.06-4.3.11v1.22c.23,6.66-.14,13.33-.01,19.99l.08.36c1.45,0,2.89,0,4.35-.02-.1-6.85-.04-13.7-.09-20.55l-.02-1.1Z"/>
  </g>
</svg>