<?xml version="1.0" encoding="UTF-8"?>
<svg id="Calque_1" data-name="Calque 1" xmlns="http://www.w3.org/2000/svg" viewBox="0 0 1280 1280">
  <defs>
    <style>
      .cls-1 {
        stroke: #fff;
        stroke-miterlimit: 10;
        stroke-width: 11px;
      }

      .cls-1, .cls-2 {
        fill: #fff;
      }

      .cls-2 {
        stroke-width: 0px;
      }
    </style>
  </defs>
  <g>
    <path class="cls-2" d="m536,682.88v1.03c-.8.15-1.49.36-2.06.64-.57.28-1.07.64-1.5,1.09-.43.45-.81.98-1.13,1.61s-.66,1.34-.99,2.14l-13.23,32.29h-1.03l-14.21-32.7c-.75-1.72-1.26-2.74-1.54-3.08-.47-.58-1.03-1.03-1.71-1.36-.67-.33-1.59-.54-2.77-.63v-1.03h15.5v1.03c-.9.09-1.62.21-2.17.36-.55.15-.97.33-1.27.55-.3.21-.5.46-.6.73-.1.27-.15.57-.15.91,0,.95.43,2.41,1.29,4.36l9.65,22.24,8.95-21.96c.88-2.18,1.31-3.68,1.31-4.5,0-.58-.3-1.12-.91-1.64-.61-.51-1.65-.86-3.12-1.05v-1.03h11.69Z"/>
    <path class="cls-2" d="m564.19,682.01c4.91,0,9.17,1.87,12.79,5.62,3.62,3.73,5.43,8.39,5.43,13.99s-1.82,10.55-5.46,14.35c-3.64,3.81-8.04,5.71-13.2,5.71s-9.63-1.86-13.18-5.57c-3.54-3.71-5.32-8.51-5.32-14.41s2.05-10.94,6.15-14.74c3.56-3.3,7.82-4.95,12.79-4.95Zm-.53,2.04c-1.92,0-3.63.41-5.12,1.23s-2.75,1.99-3.76,3.51c-1.02,1.52-1.79,3.36-2.32,5.53-.53,2.16-.8,4.59-.8,7.27s.26,5.11.78,7.33c.52,2.22,1.29,4.13,2.31,5.72,1.02,1.59,2.27,2.84,3.76,3.72,1.49.89,3.22,1.33,5.18,1.33,1.75,0,3.38-.34,4.88-1.01,1.5-.67,2.8-1.71,3.9-3.12,1.1-1.41,1.96-3.2,2.59-5.39.62-2.18.94-4.78.94-7.81s-.26-5.47-.77-7.74c-.51-2.27-1.29-4.18-2.32-5.75-1.03-1.57-2.32-2.76-3.86-3.59s-3.33-1.25-5.39-1.25Z"/>
    <path class="cls-2" d="m608.82,719.78v1.03h-16.25v-1.03h1.34c1.58,0,2.72-.46,3.41-1.37.45-.58.67-2.01.67-4.31v-24.51c0-.89-.02-1.62-.06-2.18s-.11-1.02-.21-1.39c-.1-.36-.25-.65-.45-.85s-.46-.4-.8-.59c-.82-.45-1.68-.67-2.57-.67h-1.34v-1.03h16.25v1.03h-1.37c-1.57,0-2.7.46-3.39,1.37-.47.58-.7,2.01-.7,4.31v24.51c0,.9.02,1.62.06,2.18s.11,1.02.21,1.37c.1.35.26.64.46.85.2.21.48.42.81.6.8.45,1.65.67,2.55.67h1.37Z"/>
    <path class="cls-2" d="m640.14,699.8l8.14,12.14c1.14,1.7,2.12,3.07,2.95,4.13.83,1.05,1.52,1.8,2.06,2.25,1.08.88,2.47,1.36,4.17,1.45v1.03h-16.28v-1.03c1.29-.04,2.23-.23,2.84-.59.61-.35.91-.88.91-1.57,0-.24,0-.43.01-.57,0-.14-.04-.32-.14-.55-.1-.22-.28-.53-.53-.92s-.63-.96-1.13-1.71l-6.43-9.74-7.95,10.18c-.45.56-.79,1.01-1.02,1.34-.23.34-.41.62-.52.84-.11.22-.18.42-.2.57-.02.16-.03.34-.03.55,0,.3.06.57.17.83.11.25.31.47.59.66.28.19.65.34,1.12.46.47.12,1.05.19,1.76.21v1.03h-13.46v-1.03c1.17-.09,2.21-.37,3.12-.84.9-.47,1.79-1.03,2.64-1.71,1.06-.84,2.26-2.1,3.58-3.78l8.95-11.3-7.47-10.94c-2.05-2.97-3.78-4.9-5.18-5.82-1.44-.93-3.07-1.43-4.9-1.48v-1.03h17.54v1.03c-.75.04-1.37.12-1.87.25-.5.13-.9.29-1.2.49-.3.2-.51.42-.63.66-.12.24-.18.49-.18.76,0,.71.45,1.72,1.34,3.02l5.82,8.7,6.74-8.53c.41-.52.73-.94.97-1.26.23-.32.41-.59.52-.81.11-.22.18-.42.2-.59.02-.17.03-.35.03-.56,0-.43-.14-.81-.42-1.15-.28-.34-.61-.57-.98-.7-.21-.07-.53-.13-.98-.18-.45-.05-1.01-.08-1.68-.1v-1.03h13.46v1.03c-.63.04-1.2.12-1.71.24-.5.12-.97.28-1.38.46-.42.19-.82.41-1.19.67-.37.26-.74.55-1.09.87-.8.71-1.99,2.05-3.55,4.03l-7.53,9.62Z"/>
    <path class="cls-2" d="m686.5,720.81v-1.03h1.43c1.58,0,2.72-.51,3.41-1.54.41-.6.62-1.98.62-4.14v-24.51c0-2.39-.26-3.87-.78-4.45-.73-.82-1.81-1.23-3.25-1.23h-1.43v-1.03h15.44c5.67,0,9.98.64,12.93,1.93,2.97,1.29,5.34,3.43,7.13,6.43,1.81,2.98,2.71,6.45,2.71,10.41,0,2.8-.45,5.37-1.36,7.72-.9,2.35-2.25,4.37-4.03,6.06-1.78,1.69-4,3.01-6.66,3.96s-5.73,1.43-9.22,1.43h-16.95Zm10.83-2.74c2.33.52,4.32.78,5.96.78,2.14,0,4.14-.4,5.97-1.19,1.84-.79,3.43-1.92,4.77-3.39,1.34-1.46,2.4-3.24,3.16-5.33.76-2.09,1.15-4.43,1.15-7.02s-.38-4.96-1.13-7.05c-.76-2.09-1.81-3.86-3.16-5.33-1.35-1.46-2.97-2.59-4.84-3.37s-3.92-1.17-6.14-1.17c-.84,0-1.73.07-2.69.21s-1.97.34-3.05.6v32.26Z"/>
    <path class="cls-2" d="m740.08,696.5v-1.31c.84-.5,1.55-.97,2.14-1.41.59-.44,1.07-.88,1.44-1.33.37-.45.64-.91.81-1.4.17-.48.25-1.02.25-1.59s-.11-1.03-.32-1.3-.45-.41-.71-.41c-.11,0-.26.02-.43.07-.18.05-.36.1-.56.15-.2.06-.39.11-.57.15-.19.05-.34.07-.45.07-.37,0-.73-.07-1.08-.22-.35-.15-.65-.35-.91-.62s-.47-.57-.63-.92c-.16-.35-.24-.75-.24-1.18,0-.54.11-1.01.32-1.41s.49-.74.84-1.01c.34-.27.74-.48,1.17-.62.44-.14.88-.21,1.33-.21.62,0,1.22.15,1.8.43.59.29,1.11.68,1.55,1.18s.81,1.08,1.09,1.75c.28.67.42,1.39.42,2.15,0,.9-.14,1.78-.42,2.64-.28.87-.71,1.69-1.3,2.48-.59.78-1.34,1.51-2.25,2.17-.91.66-2.01,1.23-3.3,1.69Z"/>
    <path class="cls-2" d="m785.25,708.11h-14.69l-2.57,5.99c-.63,1.45-.95,2.56-.95,3.3,0,.3.05.57.15.83.1.25.31.49.63.7.32.21.76.39,1.34.53.58.14,1.33.25,2.27.32v1.03h-11.95v-1.03c1.57-.28,2.59-.64,3.08-1.09.48-.45.98-1.12,1.5-2.03.51-.9,1.07-2.05,1.66-3.43l13.34-31.22h.98l13.2,31.56c.54,1.31,1.04,2.35,1.5,3.15.46.79.93,1.41,1.41,1.85.48.44,1.01.74,1.58.91s1.25.27,2.03.31v1.03h-14.97v-1.03c.75-.04,1.37-.12,1.87-.25.5-.13.9-.3,1.19-.5.29-.21.49-.44.62-.7.12-.26.18-.55.18-.87.02-.41-.07-.94-.27-1.58-.2-.64-.48-1.41-.85-2.31l-2.29-5.46Zm-.78-2.07l-6.43-15.33-6.6,15.33h13.04Z"/>
    <path class="cls-2" d="m818.67,684.95v14.91h6.91c.8,0,1.49-.07,2.06-.22.57-.15,1.05-.42,1.44-.81s.7-.92.92-1.59c.22-.67.4-1.53.53-2.57h1.04v12.84h-1.04c-.02-.95-.11-1.76-.28-2.43-.17-.67-.44-1.22-.81-1.65s-.87-.74-1.5-.94-1.41-.29-2.36-.29h-6.91v11.92c0,.9.02,1.62.06,2.18s.11,1.02.21,1.37c.1.35.26.64.46.85s.48.42.81.6c.8.45,1.66.67,2.57.67h1.37v1.03h-16.28v-1.03h1.34c1.58,0,2.72-.46,3.41-1.37.45-.58.67-2.01.67-4.31v-24.51c0-.89-.02-1.62-.06-2.18s-.11-1.02-.21-1.39c-.1-.36-.25-.65-.45-.85s-.46-.4-.8-.59c-.82-.45-1.68-.67-2.57-.67h-1.34v-1.03h28.23v8.34h-.62c-.37-1.36-.79-2.45-1.24-3.27-.46-.82-1.02-1.45-1.68-1.9-.66-.45-1.44-.74-2.34-.88-.89-.14-1.96-.21-3.19-.21h-8.37Z"/>
    <path class="cls-2" d="m884.06,720.81h-10.13l-12.84-17.74c-.49.02-.92.03-1.3.04-.38,0-.72.01-1.02.01-.24,0-.5,0-.78-.01-.28,0-.57-.02-.87-.04v11.02c0,2.39.26,3.87.78,4.45.71.82,1.77,1.23,3.19,1.23h1.48v1.03h-16.25v-1.03h1.43c1.58,0,2.73-.52,3.44-1.57.39-.58.59-1.95.59-4.11v-24.51c0-2.39-.26-3.87-.78-4.45-.73-.82-1.81-1.23-3.25-1.23h-1.43v-1.03h13.82c3.99,0,6.96.3,8.9.9.95.28,1.84.7,2.67,1.26.83.56,1.56,1.22,2.18,1.99s1.12,1.62,1.48,2.57.55,1.97.55,3.05c0,1.17-.19,2.27-.56,3.29-.37,1.02-.95,1.94-1.72,2.78-.77.84-1.75,1.57-2.92,2.18-1.18.62-2.56,1.1-4.14,1.45l7.83,10.88c1.81,2.52,3.35,4.18,4.62,4.98,1.3.82,2.98,1.34,5.04,1.57v1.03Zm-26.94-19.5c.35,0,.66,0,.92.01s.48.01.64.01c1.81,0,3.4-.21,4.77-.63,1.37-.42,2.51-1,3.43-1.75.91-.75,1.6-1.63,2.06-2.64.46-1.02.69-2.12.69-3.32s-.2-2.25-.59-3.23c-.39-.98-.95-1.82-1.66-2.53-.72-.71-1.58-1.26-2.57-1.65-1-.39-2.09-.59-3.29-.59-.54,0-1.17.04-1.9.13-.73.08-1.56.22-2.49.41v15.78Z"/>
    <path class="cls-2" d="m907.77,719.78v1.03h-16.25v-1.03h1.34c1.58,0,2.72-.46,3.41-1.37.45-.58.67-2.01.67-4.31v-24.51c0-.89-.02-1.62-.06-2.18s-.11-1.02-.21-1.39c-.1-.36-.25-.65-.45-.85s-.46-.4-.8-.59c-.82-.45-1.68-.67-2.57-.67h-1.34v-1.03h16.25v1.03h-1.37c-1.57,0-2.7.46-3.39,1.37-.47.58-.7,2.01-.7,4.31v24.51c0,.9.02,1.62.06,2.18s.11,1.02.21,1.37c.1.35.26.64.46.85.2.21.48.42.81.6.8.45,1.65.67,2.55.67h1.37Z"/>
    <path class="cls-2" d="m940.94,721.23c1.92,3.32,3.97,5.74,6.15,7.25,2.22,1.55,4.74,2.43,7.55,2.66v.9c-2.54-.07-5.29-.6-8.25-1.57-2.89-.91-5.67-2.22-8.34-3.92-2.57-1.64-4.83-3.41-6.77-5.32-2.69-1.08-4.81-2.23-6.38-3.44-2.31-1.81-4.09-4.03-5.33-6.66-1.24-2.63-1.86-5.75-1.86-9.37,0-5.65,1.84-10.36,5.51-14.13,3.66-3.75,8.1-5.62,13.34-5.62s9.27,1.88,12.87,5.65c1.81,1.9,3.17,4.02,4.08,6.36.91,2.34,1.37,4.96,1.37,7.85,0,4.66-1.3,8.74-3.89,12.23-2.57,3.51-5.93,5.89-10.07,7.13Zm-4.7-37.07c-1.92,0-3.63.39-5.13,1.17-1.5.78-2.77,1.93-3.8,3.43-1.04,1.5-1.82,3.34-2.36,5.53-.54,2.18-.81,4.67-.81,7.47,0,2.65.26,5.07.78,7.27.52,2.2,1.29,4.1,2.31,5.69,1.02,1.59,2.28,2.84,3.79,3.72,1.51.89,3.25,1.33,5.23,1.33s3.64-.39,5.15-1.16c1.51-.77,2.79-1.9,3.85-3.37,1.05-1.47,1.86-3.28,2.42-5.41s.84-4.56.84-7.26c0-3.02-.29-5.68-.88-7.97s-1.42-4.21-2.5-5.76c-1.08-1.55-2.37-2.71-3.88-3.5-1.5-.78-3.17-1.17-4.99-1.17Z"/>
    <path class="cls-2" d="m990.94,683.91v-1.03h13.43v1.03h-1.43c-1.49,0-2.64.63-3.44,1.87-.39.6-.59,1.94-.59,4.03v15.39c0,3.79-.38,6.74-1.15,8.87-.49,1.36-1.17,2.52-2.07,3.48s-1.93,1.75-3.11,2.36c-1.17.62-2.47,1.07-3.88,1.36s-2.88.43-4.41.43c-4.12,0-7.26-.72-9.43-2.15-1.36-.89-2.41-1.84-3.15-2.84-.74-1-1.28-2.1-1.62-3.3-.35-1.2-.55-2.54-.6-4-.06-1.46-.08-3.13-.08-4.99v-14.83c0-1.17-.08-2.13-.24-2.88-.16-.75-.41-1.32-.74-1.73-.34-.41-.76-.69-1.27-.84-.51-.15-1.12-.22-1.83-.22h-1.43v-1.03h16.39v1.03h-1.45c-.9,0-1.61.13-2.15.38-.54.25-.95.62-1.23,1.11-.28.49-.46,1.08-.55,1.79s-.13,1.51-.13,2.41v16.53c0,.93.03,1.86.08,2.77s.17,1.8.34,2.64c.17.85.4,1.65.69,2.41s.67,1.45,1.13,2.08c.73,1.01,1.7,1.8,2.92,2.39,1.22.59,2.78.88,4.69.88,1.23,0,2.41-.14,3.54-.43s2.16-.69,3.11-1.2c.94-.51,1.76-1.12,2.45-1.82.69-.7,1.21-1.47,1.57-2.31.73-1.7,1.09-4.56,1.09-8.59v-15.36c0-2.39-.26-3.87-.78-4.45-.73-.82-1.81-1.23-3.25-1.23h-1.43Z"/>
    <path class="cls-2" d="m1023.49,684.95v14.99h8.34c1.21,0,2.2-.11,2.95-.32s1.35-.55,1.78-1.01c.43-.46.73-1.03.9-1.72.17-.69.28-1.51.34-2.46h1.04v13.2h-1.04c-.13-.93-.26-1.69-.39-2.28s-.26-1.01-.39-1.27c-.17-.34-.38-.63-.64-.88-.26-.25-.6-.47-1.01-.66-.41-.19-.9-.33-1.48-.42-.58-.09-1.26-.14-2.04-.14h-8.34v12.51c0,1.66.07,2.69.22,3.08.07.17.17.33.28.48.11.15.28.28.49.38.21.1.49.18.84.24.35.06.78.08,1.3.08h6.43c1.1,0,2.02-.03,2.76-.1.74-.06,1.38-.18,1.93-.34s1.04-.38,1.45-.67c.42-.29.86-.66,1.33-1.11.58-.56,1.17-1.28,1.76-2.15.6-.88,1.19-1.9,1.79-3.08h1.12l-3.27,9.51h-29.24v-1.03h1.34c.35,0,.73-.04,1.12-.11.39-.07.76-.2,1.11-.36.34-.17.66-.38.94-.63.28-.25.48-.55.59-.88.22-.58.34-1.8.34-3.66v-24.65c0-2.39-.24-3.87-.73-4.45-.67-.75-1.79-1.12-3.36-1.12h-1.34v-1.03h29.24v8.31h-.67c-.21-1.01-.41-1.84-.62-2.49s-.44-1.19-.7-1.62c-.26-.43-.56-.77-.9-1.02-.34-.25-.74-.48-1.2-.69-.77-.28-2.08-.42-3.94-.42h-10.41Z"/>
  </g>
  <g>
    <g>
      <g>
        <path class="cls-2" d="m475.87,560.65c-1.26-1.09-3-.44-4.48-.42-3.38.42-6.98-.36-10.13,1.24-.65-.35-1.29-.7-1.93-1.04-.79-1.34-1.52-2.7-2.27-4.06-1.02-1.81-1.79-3.86-3.49-5.15-.66-.41-1.28-.89-1.81-1.45-1.74-1.57-3.2-3.44-5.02-4.92-.76-.33-1.55-.6-2.26-1.03-.91-1.38-1.52-2.94-2.49-4.29-1.48-2.09-2.3-4.56-3.82-6.62-.75-1.05-2.02-1.53-2.83-2.5-.28-1.36-.23-2.75-.19-4.13.21-1.9-.14-3.78-.74-5.58-.54-1.3-1.17-2.57-1.95-3.74l-.26-.37h0c-.19-.31-.37-.61-.56-.91-.62-1.39-1.84-2.3-2.84-3.38-.54-1.37-.77-2.84-1.25-4.23-.45-.85-.97-1.66-1.47-2.48h0c-.8-1.64-1.42-3.35-2.26-4.97-.14-.25-.41-.76-.54-1.02l-.13.93h0s.13-.93.13-.93c-.32-2.29-.11-4.62.74-6.77,1.2-4.11,1.21-9.3-1.96-12.52-1.75.46-3.61.86-5.39.3-2.08-.63-4.27-1.12-6.44-.68-.43.27-.84.56-1.25.84-1.46,1.19-3.26,0-4.83-.29-2.82-1.08-5.89-.54-8.79-1.2-2.35-.47-4.52-1.5-6.59-2.67-.45-.38-.9-.75-1.35-1.11-.13-.07-.39-.21-.51-.28-.15-.08-.43-.24-.58-.31-.74-.07-1.48-.12-2.23-.13.75.01,1.49.06,2.23.13-3.45-1.95-7.67-.48-11.06.96-2.1.64-1.62,3.2-2.57,4.76-.48,1.16-.96,2.31-1.44,3.48-1.68-.13-3.21-.85-4.26-2.19l-.37-.19c-1.59-.96-3.39-1.62-5.27-1.6-2.5-.09-5.48-.66-6.91-2.96-.65-.86-1.31-1.72-2.04-2.51-.13-.06-.4-.18-.53-.25-.97-.54-1.85-1.5-3.04-1.4-1.67.1-3.39.32-4.96-.43-.35-.12-.69-.24-1.03-.37-1.16-.46-2.26-1.03-3.33-1.67.82-2.26,1.26-4.64,2.09-6.9,1-2.89.91-6.05.09-8.97-.19-.09-.58-.27-.77-.36-2.63-.32-5.29-.2-7.91.22-3.46.39-6.95.1-10.39-.27-1.92-.21-3.56.98-5.29,1.57-3.66,1.38-7.62.58-11.41,1.1-.81.39-1.61.8-2.39,1.25-3.92,3.14-9.15,2.28-13.71,3.43-1.1.19-2.2.42-3.32.52-.59.45-1.17.91-1.75,1.36.14.24.4.7.54.94l.32.02c13.25.57,26.5-.36,39.76-.17,1.14.4,2.37.11,3.55.13,3.16-.16,6.31.13,9.46.24-.7,1.16-1.37,2.34-1.74,3.64-11.66-.55-23.34-.24-35-.26-7.71.14-15.43.41-23.14.06.04-.11.1-.34.14-.45.47-.32.94-.65,1.41-.97.57-.49,1.1-1.01,1.63-1.53,1.17-1.52,3.24-1.91,4.3-3.5.29-.39.58-.76.88-1.14.57-.69,1.15-1.37,1.68-2.08l-.18-.55c-.88-.37-1.84-.87-2.81-.54-1.34.77-2.4,1.94-3.4,3.1-.91,1.03-1.79,2.1-2.84,2.98-2.13,1.96-4.57,3.53-7.16,4.83-.35.16-1.05.5-1.4.66-1.42,1.54-2.31,3.47-3.52,5.17-1.65,2.59-1.18,6.01-3.22,8.41-.44.61-1.02,1.1-1.61,1.57-.52.29-1.03.58-1.54.87-2.15,1.44-5.09,1.75-6.65,3.98-1.37,2-3.5,3.29-5.54,4.53-.47.48-.96.94-1.39,1.46-1.6,2.25-2.78,4.79-4.71,6.8-.07.09-.2.28-.27.37-.25.33-.73.98-.97,1.31-1.96,2.47-4.14,4.76-6.16,7.19-2.3,1.81-1.76,5.14-1.36,7.68.73,2.99,1.26,6.07.8,9.15-.4,4.01-.53,8.14-2.02,11.93-.07.08-.21.26-.29.35-.67.86-1.33,1.73-2.02,2.58-.05.1-.14.29-.19.38-1.39,2.29-.82,5.17.16,7.51.47,1.36,1.5,2.82.58,4.24-1.01,1.59.2,3.09,1.39,4.13,3.41,2.22,6.52,4.98,8.61,8.53.96,1.67,1.76,3.41,2.7,5.08.42,1.12.74,2.27,1.05,3.42,1.17,1.01,2.41,1.93,3.67,2.81,1.5,1.12,3.05,2.15,4.59,3.21.16.18.49.54.65.72.28.21.84.64,1.13.85.13.1.39.3.52.4,2.41,2.34,6.03,3.74,9.31,2.48,5.04-1.79,10.67-3.04,15.86-1.06,3.16,1.25,6.5-.09,9.32-1.58.52-.29,1.04-.58,1.57-.86.5-.26.99-.52,1.5-.77,1.56-.86,3.11-1.75,4.76-2.42.82-.33,1.69-.49,2.55-.67,2.7.18,5.85-.34,8,1.7.38-1,.71-2.02,1.18-2.98.54-.36,1.1-.69,1.67-1.02l-.27-.05c-1.04.04-2.08.02-3.1-.17-.55-.09-1.1-.18-1.64-.27-3.83-1.12-7.65.48-11.51.35-13.61-.03-27.22-.06-40.83.04-1,0-2-.04-2.98-.18-1.06-.56-2.04-1.25-3.01-1.95-.29-.53-.53-1.08-.71-1.65,24,.15,48,.16,72,.07.5-.02,1.49-.06,1.99-.07l.06-.2c.04-.82.03-1.63.02-2.43-.14,0-.42.02-.57.03-24.83.02-49.67,0-74.51,0-.53-1.24-1.17-2.43-1.98-3.5l.15-.16c8.94.12,17.87,0,26.81-.02,12.22.08,24.44.14,36.66,0,4.46-.08,8.94.16,13.39-.14h.35c-.1-.84.21-1.62.65-2.31l-1.28-.27c-26.13.17-52.27.09-78.4.07-.84-1.46-1.92-2.78-3.38-3.64l.65-.1c9.85.24,19.71.09,29.56.08.47,0,.95,0,1.43,0,17.29.04,34.58.12,51.87-.09-.11-.23-.34-.67-.45-.9.01-.67.05-1.34.12-2-8.67.13-17.35.05-26.01.28-20.06-.35-40.13.02-60.19-.12-1.16-.77-2.09-1.94-1.89-3.41,29.38-.25,58.77-.15,88.15-.24-.08-.95-.11-1.9-.11-2.84-3.13-.09-6.26-.03-9.39.05-26.24,0-52.49-.04-78.73.15-.36-1.25-.83-2.47-1.47-3.61,2.69.2,5.39.03,8.08,0,6.76-.09,13.52.01,20.29-.06,4.59-.29,9.18-.07,13.77-.12,15.62-.06,31.25.12,46.87-.09.05-.92.12-1.84.26-2.74-17.98.17-35.96,0-53.93.11-11.74.14-23.49-.07-35.22.32.47-.5.93-1,1.38-1.51.54-.71,1.02-1.46,1.48-2.22,28.93-.32,57.86-.15,86.79-.26-.05-.19-.15-.57-.19-.75.17-.62.35-1.24.52-1.85-28.78.04-57.57-.2-86.34.15.39-1.22.65-2.48.91-3.73,27.45-.18,54.9-.13,82.35-.06,1.24-.04,2.47-.12,3.7-.18l.2.05c.15-.94.37-1.86.71-2.75l-.47.21c-28.73-.09-57.45-.03-86.18-.02l-.08-.23c.08-1.15.17-2.3.26-3.45,27.7,0,55.4.05,83.1.04,1.5,0,3-.05,4.49-.23h.35c.02-.83.41-1.57.72-2.3l-.12-.1h-.38c-15.43-.12-30.85.03-46.27-.08-.65.02-1.3.03-1.94.03-13.21.02-26.43,0-39.64,0-.02-1.25-.09-2.49-.27-3.72,29.42.12,58.83.07,88.25.06.88-.07,1.92.15,2.63-.53.28-.47.53-.95.81-1.41.21-.07.63-.23.85-.31-.27-.09-.81-.28-1.07-.38-30.59.04-61.19.01-91.78-.02-.07-.16-.22-.48-.29-.63-.19-1.02-.39-2.03-.6-3.04,9.57.02,19.14.29,28.71.03,22.64,0,45.29.16,67.93-.06.14-.08.42-.25.57-.34.41-.53.82-1.06,1.27-1.56.21-.17.64-.51.86-.68-3.7-.04-7.39.04-11.08-.05-28.68.37-57.37-.41-86.06.13-.28-.03-.85-.08-1.13-.11.27-.29.53-.59.8-.88.78-.88,1.49-1.83,2.19-2.76,24.19.11,48.38-.09,72.56.1h.02c7.41-.16,14.82-.05,22.23-.15,2.42-.09,5.16.54,7.14-1.27.14-.06.41-.18.55-.24.81-.34,1.63-.64,2.46-.95.08-.12.24-.34.31-.46-3.13.3-6.27.11-9.4.16-30.02.27-60.04.04-90.06.18-1.13,0-2.29.1-3.38-.28.97-.97,1.88-2.03,2.48-3.27,27.18-.39,54.37-.01,81.56-.17,31.45-.15,62.91.09,94.35-.08.59,1.24,1.1,2.51,1.7,3.75-13.71-.07-27.42.02-41.13-.11-3.04.07-6.09.03-9.12-.24-.04.03-.13.09-.18.12.26.1.77.3,1.03.4,2.03.5,3.69,1.97,5.67,2.49,15.2.04,30.41.03,45.61,0,.22,1.01.43,2.02.63,3.03.03.16.09.5.12.66-9.64-.12-19.27.04-28.91-.07-4.35.14-8.7-.14-13.04.07.92.81,1.78,1.69,2.59,2.61,8.14.21,16.29-.13,24.45.02,5.7.14,11.41-.18,17.12.07,1.01.85,1.48,2.2,2.28,3.25l.08.28-.34.08c-.33.11-.67.2-1.01.27.34-.07.68-.16,1.01-.27-13-.1-26,0-38.99-.05-.5,0-1.49,0-1.98-.01.17.18.52.54.7.72.07.09.2.28.27.37.35.48.71.97,1.06,1.46,13.59.18,27.2.09,40.8.09.3,1.21.5,2.45.65,3.69-13.22-.05-26.45-.03-39.67-.04.1.19.31.58.41.77.2.56.38,1.12.54,1.69.1.01.3.03.41.04,12.7.26,25.42.16,38.13.13.09,1.23.2,2.45.34,3.67-12.45,0-24.9-.02-37.35,0l.14.6c.11.46.23.91.36,1.37l.16.51.33.17c13.07-.03,26.15-.13,39.22.08.25.36.51.71.77,1.07.14.21.4.62.53.83.09.15.28.43.37.58.18.28.53.83.7,1.11-13.76-.06-27.52-.01-41.28-.05l-.4.13c.05.79.12,1.59.22,2.38.17.03.52.09.7.13,2.03.03,4.05,0,6.07.1,11.96-.06,23.92.05,35.88-.04.27.43.56.87.83,1.31.26.43.51.86.77,1.29.15.25.45.75.6,1.01-.43,0-1.31,0-1.74,0-13.39-.05-26.79.04-40.18-.06-.47-.01-1.39-.03-1.85-.04l-.46-.03c.1.83.19,1.66.29,2.49l.05.43c15.83.02,31.67-.08,47.5.13.83.75,1.63,1.52,2.44,2.3.18.16.54.5.72.66t0,0l.41.65c-16.77-.27-33.55-.01-50.31-.24-.32,0-.96,0-1.28-.01.05.97.09,1.95.22,2.93,18.26-.04,36.52.15,54.78.06.62,1.03,1.35,1.99,2.11,2.92l.27.61c-18.96.13-37.92-.12-56.88-.14-.06.95-.18,1.91-.45,2.83,18.24.13,36.48.19,54.72.16,1.36,0,2.73-.03,4.07.22.62,1.37,1.6,2.52,2.79,3.46-.19.02-.57.07-.76.09-11.97-.22-23.95.01-35.92-.15-8.13.09-16.25-.3-24.38-.03l.07.56c.26.66.58,1.33.56,2.06l.2-.04c2.25.21,4.51.13,6.77.14,10.83-.07,21.66.19,32.49.02,12.02-.11,24.04.31,36.07.15-.42,1.17-.83,2.35-1.17,3.54-24.13-.07-48.26-.02-72.38-.07-.4.03-1.2.08-1.6.11,0,.83-.03,1.65-.06,2.49l.1-.03c2.95.17,5.91.02,8.85.19,21.39-.01,42.78-.02,64.17.11l-.2.67s0,0,0,0c-.19.27-.58.82-.76,1.1h0s-.22.29-.22.29c-.18.23-.53.7-.7.93l-.32.45c-4.65.3-9.34.02-14,.1-15.98-.04-31.96-.06-47.94-.1-.19.03-.57.08-.76.1,1.02.1,1.94.52,2.58,1.35.26.32.53.64.81.97l.72.29c3.86.18,7.73,0,11.6.11,14.85-.06,29.7.27,44.55-.04-.22.71-.5,1.4-.79,2.09-.12.26-.34.78-.45,1.04l-.23.45c-11.56.3-23.14.02-34.7.13-5.14-.1-10.29.07-15.43-.19l-.18.06c.85.8,1.73,1.64,2.03,2.82,8.18.16,16.37-.03,24.56-.02,7.32-.19,14.65.12,21.97.02l-.36.63c-.15.16-.46.48-.61.64-.4.38-.78.79-1.19,1.15-.25.19-.74.57-.99.75-10.75.36-21.51.15-32.26.14-3.61.08-7.23,0-10.84.05v.54c-.02.4-.03,1.18-.04,1.58l.03.6c8.28.17,16.57.14,24.86.09,4.97-.06,9.95.1,14.91-.19l.34.1c-1.29,1.21-2.81,2.15-4.17,3.28-2.23.77-4.6.44-6.9.53-9.86.13-19.73-.1-29.6-.03-.02.93-.03,1.86-.12,2.79,5.67.02,11.33.13,17,.08,5.3.15,10.6.03,15.91.05-.4.39-.8.78-1.18,1.18-.15.16-.45.49-.59.65-.49.63-.95,1.28-1.42,1.93-11.77-.31-23.54-.05-35.31-.28v.65c0,.4,0,1.21,0,1.61v.54c10.85-.03,21.71.12,32.56,0l.31.12c-.58.45-1.15.91-1.71,1.37-.9.69-1.69,1.53-2.62,2.17-9.42.16-18.86-.15-28.29.13h0l-.33-.1c.02.69.04,1.39.07,2.09v.47c2.74.15,5.48-.01,8.22.17,6.44.06,12.88-.1,19.32-.11l.11.24c-.65,1.05-1.27,2.13-1.74,3.28l-.06.08c-8.51.16-17.02-.29-25.53-.02h0l-.35-.08c0,.92.02,1.84.02,2.76l.35-.05c7.95.12,15.91.06,23.86.08-.59,1.09-1.12,2.23-1.3,3.48h0s-.2.17-.2.17c-7.56.13-15.12-.19-22.67.11h-.04c.02.82.02,1.65-.15,2.48.14-.03.42-.09.56-.13,7.75.36,15.55.09,23.32.16.37.57.72,1.15,1.09,1.72-.14.63-.27,1.26-.42,1.9-5.05-.1-10.1.01-15.15-.08-3.07.04-6.15-.01-9.22-.01l-.02.64c-.02.4-.05,1.19-.06,1.58l-.21.59c8.19-.08,16.38,0,24.57-.05,0,1.26.09,2.53.49,3.75-8.49,0-17-.29-25.47.07.55.23,1.11.37,1.69.45-.58-.08-1.14-.22-1.69-.45h-.33c.02.65,0,1.31-.04,1.97l-.05.7c8.85-.17,17.72-.03,26.58-.02h0c.2.34.4.68.6,1.02.49.82,1.01,1.63,1.51,2.45-.79.04-1.57.07-2.34.11h0c-9.3.1-18.61-.14-27.91.17.01.34.03,1.03.04,1.37-.28.41-.57.84-.86,1.26,10.29-.09,20.58-.08,30.87-.03.06,1.23-.01,2.46-.09,3.69-6.77-.15-13.54.05-20.3-.08-4.02.07-8.04-.16-12.05.07-.5.94-1.02,1.89-1.43,2.87,11.22.02,22.43-.15,33.65-.06-.03,1.23-.05,2.45-.05,3.68-8.94-.19-17.9.02-26.84-.09-2.93.02-5.86-.12-8.79.09l-.2-.07c-.26.74-.61,1.46-1.03,2.13l-.72.14c.13.12.39.35.51.46,10.22.09,20.43-.02,30.65.02,2.24.05,4.51-.18,6.74.19-.66,1.16-1.3,2.34-2.13,3.4-10.63.15-21.25.05-31.88.07-2.38.02-4.76-.13-7.13.15h0c-.2,0-.61.02-.82.03-.38.54-.76,1.09-1.14,1.64-.62.21-1.23.45-1.84.7.05.07.14.2.19.26,12.93-.19,25.86.02,38.78-.15h0c.13.08.37.26.5.34-2.02.95-4.02,1.93-6.05,2.85-.65.28-1.35.45-2.04.57-11.97.15-23.97-.23-35.93.23l-.32.03c-1.07,1.04-2.4,1.71-3.81,2.14-.04.1-.14.31-.18.41,10.27.16,20.54-.12,30.81-.03,2.4-.04,4.82.17,7.2-.23-.84,1.18-2.11,1.97-3.5,2.35-.06.02-.19.06-.25.09-.56.37-1.1.76-1.64,1.18-.35.04-1.04.12-1.39.15-12.02.18-24.04.21-36.06.02-1.5-.03-3,.09-4.48.23l-.08.23c-.95.39-1.88.84-2.84,1.23h0c-.96.12-1.91.25-2.85.43l-.06.57c15.87.08,31.73.29,47.6.09-.56,1.2-1,2.46-1.35,3.73-5.35-.15-10.7.01-16.04-.02-9.92.08-19.85-.29-29.77.04l-.32-.08c0,.9.02,1.82-.03,2.72.32,0,.96.02,1.28.02,15.22.12,30.45.03,45.67.06.13,1.19.38,2.37.53,3.57-12.94-.12-25.89.07-38.83-.08-2.78,0-5.56-.1-8.33.06l-.37-.15c0,.95.01,1.9.02,2.85,1.05.02,2.12.04,3.17,0h0c14.7.05,29.41.07,44.11-.02-.64-.28-1.31-.46-1.99-.56.68.1,1.35.27,1.99.56l.4.13c-.28.54-.56,1.09-.84,1.64-.24.46-.47.92-.72,1.37l-.29.43c-15.28.26-30.58.08-45.86.05.04.86.05,1.74-.03,2.61,13.08.17,26.18.12,39.27.05h0l.03.29c-.59,1.07-1.08,2.2-1.41,3.39-10.18.05-20.35.07-30.53-.03-2.43.08-4.86-.03-7.29.16l-.16-.04c.05.85.1,1.7.14,2.56,12.67.29,25.35.2,38.03.01-.11-.08-.3-.23-.45-.34.15.11.34.26.45.34l.18.14c-.48,1.22-.93,2.46-1.35,3.7-10.75,0-21.49.05-32.24-.04-.42.06-.87.07-1.32.08.45,0,.9-.02,1.32-.08-1.56-.05-3.11-.09-4.67-.09.04,1.03.07,2.06-.03,3.09l.18-.18c6.08.27,12.17.07,18.25.26h.08c5.68-.1,11.35-.2,17.03-.29-.24.31-.72.92-.96,1.23-.62.74-1.31,1.42-2.03,2.07l-.18.12c-.16.1-.48.3-.63.4-9,.14-18.01.09-27.01,0-1.53.02-3.06.06-4.59.06l.02.58c.01.68.02,1.36.04,2.04l.29-.09c9.57.7,19.18-.11,28.76.25-1.05.99-2.09,1.99-3.05,3.06l-.31.36c-8.4.28-16.81.18-25.22.1l-.57-.24c.05,1.05.08,2.12.21,3.17,7.39-.06,14.8.24,22.18-.17.28-.02.83-.07,1.1-.09.02.07.05.21.07.29-.98.9-1.99,1.79-2.91,2.77-.62.32-1.27.6-1.99.57-6.24.16-12.49-.1-18.72.19-.29.72-.67,1.41-1.03,2.11-.75.16-1.5.33-2.25.5.61.09,1.21.18,1.83.3,3.4.03,6.8-.3,10.21-.24,2.05,0,4.15.29,6.17-.26-.07.2-.22.6-.29.8-1.05.3-2.08.67-3.13.99-.63.15-1.28.21-1.92.23-3.31-.04-6.59.53-9.73,1.54-2.65.68-5.8,1.51-8.26-.14-1.05-.63-2.14-1.18-3.25-1.69,1.47,1.89,2.36,4.42,4.73,5.4,5.95,1.12,11.35-2.64,17.25-2.52,2.75,0,5.33-1.09,7.58-2.59.63-.26,1.25-.54,1.87-.82.73-.48,1.49-.92,2.26-1.33,1.77-1.53,3.4-3.23,4.95-4.99.39-.62.8-1.22,1.19-1.83.45-.52.91-1.01,1.36-1.52,1.16-1.34,2.43-2.59,3.78-3.74.25-.21.73-.64.97-.85.63-.51,1.23-1.06,1.73-1.69,1.69-1.86,2.91-4.06,3.98-6.31,1.41-2.81.34-6.06,1.69-8.86,1.98-1.11,4.19-1.69,6.27-2.59.8-.8,1.5-1.71,2.01-2.72.13-.25.37-.74.5-.99.53-2.6.6-5.35-.24-7.89-.28-1.01-.75-1.98-.77-3.04.41-1.62,1.06-3.17,1.46-4.79.97-.59,1.97-1.14,2.83-1.9h0c1.37-1.13,2.48-2.54,3.92-3.59,1.39-.8,2.98-1.14,4.41-1.85,1.96-.9,3.61-2.32,5.26-3.69.18-.14.53-.43.71-.58l.54-.45c1.54-1.13,2.64-2.89,2.91-4.79.35-4.32-.11-8.7.51-13.01.42-2.75,0-5.62-1.58-7.95-.51-.97-.89-2-1.18-3.05-.17-1.37-.39-2.74-.3-4.12.08-1.85.69-3.75-.02-5.56-.24-.25-.71-.75-.95-1-.42-.46-.86-1.02-.53-1.67.6-2.26,2.31-3.93,3.41-5.93.67-1.29,1.12-2.69,1.56-4.06.96-1.19,2.29-2.03,3.4-3.08.25-.2.73-.59.98-.79.81-.77,1.56-1.61,2.25-2.48.59-.72,1.2-1.41,1.81-2.1.99-1.18,2.04-2.33,3.24-3.31.29-.25.59-.5.89-.73,2.14-1.99,4.7-3.52,6.59-5.79,2.04-1.49,4.06-3.09,5.24-5.39.33-.53.67-1.05,1.04-1.56.75-1.15,1.41-2.36,1.94-3.63.33-.8.48-1.65.66-2.49.68-.37,1.36-.74,2.04-1.12.63-.96,1.34-1.87,2.04-2.78.85-2.21,1.17-4.58,1.98-6.8.88-2.41,1.03-5.21-.02-7.59Zm-205.57,18.23c7.11.19,14.21.08,21.31-.12-.26.2-.79.59-1.05.79-2.88,1.18-5.78,3.45-9.05,2.62-4.1-1.36-8.57-1.61-12.76-.49-1.64.36-3.28.77-4.91,1.2l-.07.02c-1.5.73-3.37.77-4.73-.29-1.66-1.23-3.38-2.4-4.89-3.81,5.38.28,10.77-.03,16.15.08Zm140.79-96.64c-.14.1-.28.24-.39.42.12-.18.25-.31.39-.42Zm-34.44-3.65c1.35-.04,2.21-1.38,3.56-1.36,1.21-.07,2.44-.11,3.65.03,1.7,1.12,3.17,2.58,5.12,3.29-.63.19-1.28.4-1.95.33-3.56,0-7.12-.02-10.67-.01h-.47c.23-.77.48-1.53.75-2.28Zm-1.88,4.96c9.95.1,19.9-.02,29.84.18.85.51,1.74,1.18,2.8,1.06,1.56-.08,2.69-1.26,3.9-2.08,1.35,0,2.62.42,3.88.86,1.95.71,4.01,0,6.01.13-.05.28-.16.85-.2,1.13.16.86.34,1.72.54,2.58-16.17-.35-32.35-.23-48.52-.24.74-1.13,1.34-2.33,1.75-3.61Zm-68.35-21.79c-1.03,0-2.08-.05-2.95-.67,1.36-.5,2.65-1.18,4.04-1.61,4.27-.94,9,.8,12.93-1.65.38.02,1.14.05,1.51.07,5.78.25,11.54-.37,17.31-.28.03,1.33.03,2.67,0,4-10.94-.17-21.9-.27-32.84.14Zm-35.16,11.95c.9-1.23,1.97-2.83,3.69-2.78,15.42.03,30.84-.06,46.26-.03.75.01,1.5.02,2.26.01,4.24-.02,8.49-.04,12.72.2l.36.43c.09.11.27.33.36.43.17.25.51.73.68.98h.01c.75.46,1.5.89,2.27,1.31-.65.18-1.32.39-2.01.34-22.25-.13-44.51,0-66.77-.01h-.4c.14-.23.42-.67.57-.9Zm-2.66,6.04c.22-.84.38-1.69.53-2.54,18.99.17,37.98-.13,56.96.06.1,0,.31,0,.41,0,7.9-.12,15.8-.04,23.71-.07.89.93,1.8,1.84,2.73,2.73.24.25.71.73.94.97-28.54-.04-57.09-.03-85.63.06.08-.3.25-.9.33-1.2Zm-3.97,6.44l.19-.12c.58-.52,1.14-1.06,1.69-1.63.18-.23.53-.69.71-.92,32.08.38,64.16-.25,96.23,0,1.19.21,2.02,1.23,2.98,1.88.27.12.81.35,1.08.47,1.11.45,2.28.71,3.46.94-.56.32-1.16.45-1.81.39-33.66-.21-67.32.16-100.98.01-1.67-.03-3.35.18-5-.12.36-.23,1.07-.68,1.43-.91Zm117.17,13.76c-16.77-.15-33.54.07-50.3.03-24.77.09-49.54.03-74.31.06-3.17.08-6.36-.12-9.52.19l.09-.68c.42-.54.85-1.08,1.26-1.63.34-.47.68-.93,1.02-1.39,14.59-.28,29.19-.07,43.78-.07,22.33-.23,44.66.05,66.98-.35,17.08.12,34.15.24,51.23.35,2.68.16,5.36.06,8.04.12-.06,1.14-.07,2.29.26,3.4-12.85.01-25.7.08-38.54-.03Zm10.01-5.48c2.02,0,4.05,0,6.07-.03-2.02.02-4.05.03-6.07.03Zm28.7-.7c-7.29-.19-14.6.07-21.89-.23-23.56-.14-47.12-.18-70.68-.03-24.79.38-49.6.15-74.38.2.27-.18.79-.53,1.05-.71,1.11-.59,1.8-1.67,2.29-2.79,4.44-.43,8.91-.12,13.37-.16,10.65-.05,21.31.05,31.96-.03,17.96.06,35.93-.31,53.9-.24,15.9.07,31.79.03,47.68.23,5.97.08,11.95.29,17.93.04-.59,1.17-.87,2.46-1.24,3.71Zm3.19,14.72c.13-.02.25-.03.36-.02-.12,0-.24,0-.36.02Zm3.4,6.4c.19,0,.36.01.53.05-.17-.04-.34-.05-.53-.05Zm7.3,14.89h0c.06-.14.11-.28.16-.42-.05.14-.1.28-.16.42Zm-36.92,9.16c.83-.05,1.66-.09,2.49-.11-.83.03-1.66.07-2.49.11Zm53.93,20.13c1.21,0,2.43.05,3.64.21-1.21-.16-2.42-.21-3.64-.21Zm-37.56,55.84c.23,0,.47-.02.7-.02-.23,0-.46,0-.7.02Zm.93-.01c.9-.02,1.8-.04,2.71-.05-.9,0-1.8.02-2.71.05Zm18.34,1.48c.29.03.6.03.9.05-.31-.02-.62-.01-.9-.05Zm-10.19,18.98c2.18,0,4.36,0,6.54.02-2.18-.02-4.36-.03-6.54-.02Zm-20.25,17.34c.5.22,1.01.41,1.55.47-.54-.06-1.05-.25-1.55-.47Zm34.18,1.96c.19.03.38.06.57.11-.19-.04-.38-.08-.57-.11Zm-36.74,6.34c.7,0,1.4,0,2.09-.01-.7,0-1.4.01-2.09.01Zm-27.63,17.82c.31,0,.63-.01.93,0-.3,0-.62,0-.93,0Zm32.9,18.88c.53,0,1.05-.03,1.58-.09-.53.06-1.05.09-1.58.09Zm-45.23,31.84c.17.23.32.48.48.73-.16-.25-.32-.51-.48-.73Zm4.04,2.53c.31.03.62.04.93.03-.31,0-.62,0-.93-.03Zm21.33-4.28c.2-.07.41-.14.62-.19-.21.05-.41.12-.62.19Zm3.26-4.3c.24-.05.47-.12.69-.21-.22.09-.45.16-.69.21Zm1.63-.75c.19-.15.37-.33.54-.54-.17.21-.35.39-.54.54Zm21.76-50.22c1.79,0,3.57-.04,5.34-.27h0c-1.77.23-3.56.27-5.34.27Zm6.38,4.01c.18-.8.41-1.59.86-2.22-.45.63-.68,1.42-.86,2.22Zm4.34-9.1c-.74-.03-1.48-.05-2.22-.07.74.02,1.48.04,2.22.07h0Zm1.51,2.01c.41-.41.82-.82,1.26-1.19-.44.38-.86.78-1.26,1.19Zm4.89-5.05c.56-.24,1.12-.5,1.67-.78-.54.28-1.1.54-1.67.78Zm11.47-21.75c-.06.41-.12.81-.16,1.22.05-.41.1-.82.16-1.22Zm-2.79-9.28c-.1-.54-.17-1.08-.2-1.62.04.54.1,1.08.2,1.62Zm8.11-31.22c.28-.05.55-.11.83-.17h0c-.27.06-.55.12-.83.17Zm18.89-37.98c.42.13.85.23,1.27.3-.43-.08-.85-.18-1.27-.3Zm.52-.6c-.04-.25-.13-.74-.17-.98,2.6-.05,5.2.14,7.8-.04h.28c.03.31.08.96.11,1.28-2.67-.21-5.39.24-8.03-.26Zm9.41-2.53c.14.17.27.36.38.55-.11-.19-.23-.37-.38-.55Z"/>
        <path class="cls-2" d="m348.8,685.63c-.32-2.26-.17-4.55-.27-6.82-.04-.75.03-1.78-.84-2.08-1.19-.41-2.49-.38-3.71-.72l.22.74c.23.69.43,1.39.61,2.1.18,4.02,1.83,7.93,1.02,11.96.59,1.83,1.03,3.7,1.54,5.56l.04.14c.32.9.87,1.7,1.51,2.41-.62-4.39-.27-8.87-.13-13.27Z"/>
        <path class="cls-2" d="m472.19,648.09c-.58-1.21-.95-2.51-1.18-3.83-.76-.04-1.53-.03-2.28-.03-.29.34-.58.68-.86,1.03-.22.3-.66.9-.88,1.19-.66,1.69-1.4,3.35-2.11,5.02-.12.26-.36.76-.48,1.02-.54.23-1.08.47-1.62.7-.62.6-1.19,1.24-1.73,1.92-2.14,2.31-5.76,1.71-7.95,3.89-.47.46-.85,1-1.24,1.53-.46.92-.93,1.82-1.42,2.73-.14,1.67,0,3.35.24,5.01.31,2.14-.14,4.28-.39,6.41-.14,1.46-1.28,2.52-2.15,3.6-.19.2-.57.61-.76.81l-.02.21-.27.09c-2.36,3.73-1.5,8.34-.79,12.43.28.5.58,1,.9,1.5.33.48.6.99.81,1.54.27.27.53.54.79.82,3.26,2.14,6.87.03,9.99-1.24,1.39-.7,1.56-2.38,1.96-3.71,1.64-7,5.62-13.19,7.13-20.23.75-3.31,2.34-6.35,3.29-9.59.5-1.91,1.81-3.6,1.72-5.64,0-2.39.38-4.94-.71-7.16h0Zm-14.39,42.17c-2.75.5-5.55.72-8.35.58-.07-1.1-.16-2.2-.3-3.29,3.2-.12,6.39-.42,9.59-.38-.42.99-.69,2.05-.94,3.1Zm2.98-8.84c-.46.9-.81,1.84-1.14,2.79-2.33.38-4.69.32-7.03.43-1.24-.01-2.48-.04-3.71-.08.25-1.05.41-2.12.59-3.17,3.85-.26,7.72-.33,11.57-.53l-.28.58Zm2.64-6.53c-.5,1.11-1.02,2.21-1.53,3.32-2.96,0-5.93.04-8.89.15l-1.06.07c.82-1.12,1.19-2.46,1.43-3.8,2.99-.02,6,.02,9-.09.3-.01.91-.03,1.21-.03l-.17.38Zm.99-3.23c-3.55.49-7.16.3-10.74.29.07-1.2.05-2.4.03-3.59,3.68.06,7.36-.05,11.04-.06h.65c-.37,1.1-.71,2.22-.98,3.36Zm2.12-6.48c-.17.03-.51.08-.68.11-4.02.26-8.04.23-12.06.42l-.47.02.15-.55c.28-1.01.51-2.03.76-3.04,4.51-.29,9.03-.08,13.55-.3-.5,1.08-1.03,2.17-1.25,3.35Zm2.04-5.94c-2.38-.02-4.75-.06-7.12.15l-.63.04c1.58-1.12,2.71-2.78,4.29-3.85,1.33.04,2.66.07,4,.11-.18,1.18-.35,2.36-.53,3.55Zm-.9-6.53c.48-1.11.85-2.27,1.43-3.34.17,1.12.28,2.25.4,3.38-.46-.01-1.37-.03-1.83-.04Z"/>
      </g>
      <g>
        <path class="cls-2" d="m343.72,533.66c.76,1.16,1.68,2.21,2.47,3.37.77-.9,1.48-1.85,2.17-2.81-.9-.98-1.77-2-2.42-3.16-.81.78-1.82,1.53-2.22,2.6Z"/>
        <path class="cls-2" d="m352.18,559.94c.64-.94,1.37-1.82,2.16-2.64-.64-1.03-1.35-2.02-2.26-2.82-.68.99-1.39,1.96-2.16,2.88.7.91,1.38,1.84,2.26,2.59Z"/>
        <path class="cls-2" d="m342.94,563.87c.88-.91,1.78-1.8,2.68-2.68-.61-.93-1.29-1.81-2-2.67-.88.91-1.78,1.81-2.69,2.69.54.79,1.1,1.57,1.69,2.33l.32.32Z"/>
        <path class="cls-2" d="m349.57,534.17c.84,1.01,1.67,2.05,2.45,3.11.9-1.04,1.75-2.12,2.52-3.25-.87-.9-1.66-1.86-2.28-2.94-1.09.84-1.86,1.99-2.69,3.08Z"/>
        <path class="cls-2" d="m355.86,534.17c.84.96,1.66,1.95,2.46,2.96,1.1-.96,1.88-2.2,2.78-3.34-.85-.97-1.67-1.95-2.46-2.96-1.15.91-2.02,2.09-2.78,3.34Z"/>
        <path class="cls-2" d="m385.6,553.02c-.36-.9-.88-1.7-1.48-2.46-.69.99-1.37,1.98-2.07,2.97.5.73.98,1.48,1.47,2.23.71-.91,1.4-1.82,2.08-2.74Z"/>
        <path class="cls-2" d="m327.84,538.02c.15-.31.43-.93.58-1.24l-.15-.38c-.98-.6-1.5,1.56-.42,1.61Z"/>
        <path class="cls-2" d="m327.83,539.95c.43.92.92,1.81,1.33,2.74.78-.64,1.31-1.5,1.78-2.38-.62-.85-1.18-1.74-1.72-2.64-.7.56-1.39,1.34-1.39,2.28Z"/>
        <path class="cls-2" d="m388.95,542.67c-.54-.97-1.12-1.92-1.79-2.8-.72.9-1.39,1.83-2.04,2.78.56.84,1.08,1.71,1.68,2.54,1.05-.38,1.39-1.74,2.14-2.52Z"/>
        <path class="cls-2" d="m380.51,559.99c-.66-.83-1.2-1.84-2.19-2.32-.55.76-1.11,1.52-1.67,2.27.71.84,1.46,1.67,2.34,2.34.5-.76,1.01-1.53,1.52-2.29Z"/>
        <path class="cls-2" d="m328.85,543.43c-.67-.95-1.22-1.96-1.71-3.01-1.35,1.46-.17,3.42.32,4.98.52-.62.98-1.27,1.39-1.97Z"/>
        <path class="cls-2" d="m329.85,543.66c.59.98,1.07,2.06,1.96,2.82.5-.77,1.01-1.54,1.52-2.31-.54-1.02-1.15-2.01-1.82-2.95-.65.74-1.19,1.57-1.67,2.44Z"/>
        <path class="cls-2" d="m355.78,511.76c.74-.86,1.5-1.71,2.13-2.66-1.41-.47-3.15-.73-4.42.22.75.83,1.48,1.67,2.29,2.44Z"/>
        <path class="cls-2" d="m363.23,509.62c-1.04-1.35-2.73-1.09-4.07-.43.65.9,1.3,1.8,1.95,2.69.82-.64,1.48-1.45,2.12-2.26Z"/>
        <path class="cls-2" d="m366.65,511.78c.5-.53.99-1.07,1.5-1.6l.41-.45c-.91-.99-3.8-1.67-3.57.38.55.55,1.11,1.1,1.67,1.66Z"/>
        <path class="cls-2" d="m351.98,509.49c-.57-.06-1.15-.1-1.7.07-.59.4-1.24.8-1.02,1.62.92-.54,1.82-1.12,2.72-1.7Z"/>
        <path class="cls-2" d="m373.33,511c-1.07-.16-2.25-1.53-3.26-.8.96.61,1.82,1.37,2.69,2.12.19-.44.38-.88.57-1.31Z"/>
        <path class="cls-2" d="m391.78,537.73c.87-1.2-.19-2.59-.65-3.73-.16.33-.48.98-.64,1.31.43.8.87,1.61,1.29,2.42Z"/>
        <path class="cls-2" d="m326.44,547.46c.17-.36.35-.72.52-1.07-.3-.73-.61-1.45-.88-2.18-.02,1.22-.02,2.44.1,3.66l.25-.41Z"/>
        <path class="cls-2" d="m392.67,546.92c.51-.81.32-1.4-.57-1.78-.49.66-.27,1.56.57,1.78Z"/>
        <path class="cls-2" d="m392.23,561.12c.05-1.13.13-2.26.34-3.37-.46.61-.95,1.18-1.45,1.76.24.45.48.91.73,1.36l.38.25Z"/>
        <path class="cls-2" d="m328.44,562.11c-.41-.65-.9-1.25-1.38-1.85-.05.69-.09,1.39-.13,2.08.43.07,1.28.23,1.7.3l-.2-.53Z"/>
        <path class="cls-2" d="m391.66,562.33c-.42-.59-.79-1.21-1.15-1.82-.58.75-1.17,1.49-1.8,2.2,1,.31,1.99-.13,2.95-.38Z"/>
        <path class="cls-2" d="m337.41,569.54c4.66.3,9.31.69,13.99.69,12.01.03,24.04.38,36.02-.71,2.21-.32,4.46-.4,6.65-.82.22-1.16.47-2.31.77-3.46-2.37.39-4.78.47-7.17.49-9.64.6-19.31.64-28.96,1.1-7.62.09-15.23-.18-22.84-.37-3.96-.3-7.93-.4-11.88-.87-.07.85-.11,1.7-.14,2.55,3.14.62,6.37,1.02,9.56,1.08,1.33.09,2.66.22,3.99.31Zm55.92-1.19c-1,.13-2.01.24-3.02.34,1.01-.1,2.01-.21,3.02-.34Zm-12.62-1.79c-.42-.03-.83-.04-1.25-.03.41,0,.83,0,1.25.03Zm-24.73,1.04c-.87,0-1.75-.02-2.62-.06.87.04,1.75.06,2.62.06Z"/>
        <path class="cls-2" d="m312.63,599.14c1.83.07,3.66.03,5.49-.1l.39.05c0-4.39-.14-8.78-.06-13.17-.02-1.51,0-3.02.03-4.52-2.23-.04-4.47.04-6.7-.09.13,5.93.1,11.87.06,17.81.2,0,.6.02.8.02Z"/>
        <path class="cls-2" d="m386.84,582.01c-3.13.17-6.25.45-9.37.71-13.73.78-27.51.6-41.22-.28-3.39-.27-6.79-.46-10.14-1.06-.25-.04-.75-.1-1.01-.14-.02.75-.04,1.51-.06,2.27.63.05,1.27.1,1.91.15,12.65,1.38,25.37,2.27,38.09,1.98,7.17-.32,14.35-.42,21.48-1.3,2.47-.2,4.9-.73,7.37-.91.16-.8.29-1.61.43-2.4-2.46.58-4.99.65-7.49.97Z"/>
        <path class="cls-2" d="m399.74,581.29c.37,5.92,0,11.86.22,17.79,2.34-.08,4.69-.08,7.03,0,.02-5.71.04-11.42.05-17.13l-.04-.58c-2.42-.04-4.84.03-7.26-.09Z"/>
        <path class="cls-2" d="m306.07,585.83c-.25,2.74-.05,5.5-.14,8.26.68.03,1.36.05,2.05.08.06-2.71-.02-5.41.06-8.11-.66-.07-1.32-.14-1.97-.23Zm1.11,7.66c-.2-2.29-.12-4.6-.03-6.89.29,2.28.13,4.6.03,6.89Z"/>
        <path class="cls-2" d="m320.04,594.48c.21,0,.64-.01.86-.01.85-.02,1.7-.04,2.55-.07-.06-2.86-.03-5.73,0-8.59-1.32.03-2.64.03-3.95-.1-.04,2.92-.04,5.84-.02,8.76l.57.02Z"/>
        <path class="cls-2" d="m395.34,594.45c1.22-.04,2.45-.03,3.68.02.01-2.89.05-5.78.01-8.66-1.18.06-2.36.12-3.53.06-.34,2.84-.05,5.72-.15,8.58Z"/>
        <path class="cls-2" d="m325.26,598.89c6.05.59,12.09,1.27,18.16,1.61,1.54.19,3.1.32,4.66.21,7.11.3,14.23.16,21.34,0,1.39.09,2.77-.04,4.15-.18,3.85-.23,7.7-.57,11.55-.84,2.54-.09,5.05-.54,7.57-.83.36-.05,1.08-.15,1.44-.2,0-1.02-.01-2.03-.02-3.04-.35.06-1.04.18-1.39.25-.72.14-1.44.29-2.16.42-13.47,1.98-27.12,2.11-40.71,1.96-7.91-.3-15.82-.67-23.68-1.63-.46-.07-1.38-.2-1.84-.27.33.77-.32,2.48.93,2.53Z"/>
        <path class="cls-2" d="m318.51,600.23c-1.06-.01-2.11-.02-3.17-.02.11,7.17.04,14.35.12,21.53.17,5.93.72,12.02,3.18,17.5.02-.15.03-.3.03-.45,0,.15,0,.3-.03.45,3.58,8.35,10.05,15.31,17.82,19.93,3.46,2.06,7.11,3.91,11.05,4.84,8.33,2.28,17.34,2.01,25.57-.6,9.3-2.91,17.56-9.17,22.98-17.27,3.63-5.21,6.25-11.22,6.98-17.56.05-.45.08-.9.11-1.35h0c.36-9.01,0-18.04.2-27.05-.95.03-1.9.06-2.84.09,0,5.93-.03,11.86,0,17.79,0,5.79-.43,11.72-2.65,17.13-1.57,4.06-4.14,7.64-6.97,10.91-.55.53-1.12,1.04-1.67,1.57-4.01,3.95-8.83,7.01-13.98,9.25l-.03.13c-1.41.45-2.81.96-4.25,1.3-10.95,2.47-23.04,1.75-32.92-3.92-1.48-.95-2.99-1.87-4.4-2.91-3.66-2.53-7.07-5.57-9.44-9.38-2.63-3.78-4.14-8.18-5.08-12.65-.71-3.77-.66-7.62-.67-11.43,0-5.95-.03-11.89.05-17.83Zm78.8,37.66c-.9,1.64-1.89,3.23-2.98,4.76,1.08-1.53,2.08-3.12,2.98-4.76Zm-46.4,26.3c-.42-.1-.84-.17-1.27-.21.43.04.85.1,1.27.21Zm-34.78-48.4c.01-1.08.02-2.15.02-3.23,0,1.07,0,2.15-.02,3.23Zm.57,14.68c.09.6.2,1.19.31,1.78-.12-.59-.22-1.19-.31-1.78Zm1.48-3.35c.12,1.17.31,2.34.62,3.49-.31-1.15-.51-2.32-.62-3.49Z"/>
        <path class="cls-2" d="m404.18,600.25c.02,9.13.17,18.26-.15,27.38-.04.23-.13.7-.17.93-.14.7-.25,1.42-.32,2.14-1.23,7.63-5.2,14.57-10.13,20.42-4.78,5.64-11.12,9.71-17.84,12.67-12.34,4.61-26.83,3.97-38.24-2.87-7.38-4.22-13.77-10.32-17.73-17.88-2.56-4.26-3.85-9.13-4.46-14.03-.7-3.86-.15-7.8-.59-11.69.08-5.71-.1-11.41.04-17.12-.91.03-1.82.07-2.73.1.03,7.83-.03,15.67.04,23.5-.08,7.19,1.76,14.37,5.04,20.77.59,1.3,1.32,2.54,2.07,3.77,4.38,6.69,10.33,12.27,17.26,16.26,5.35,2.87,11.08,5.24,17.16,5.98-.17,7.09.07,14.2-.04,21.3-.27,7.05-.24,14.12.15,21.17.07,3.02.13,6.07.64,9.05.55.46,1.18.82,1.79,1.2l.7.1c0-.31,0-.93,0-1.24-.02-1.61-.13-3.2-.27-4.8-.49-7.09-.71-14.19-.52-21.3.21-8.47-.21-16.94-.01-25.41.38,0,.76-.01,1.15-.02-.18,7.41.18,14.83.09,22.25-.06,5.65-.02,11.3.1,16.95-.19,4.48.61,8.94.46,13.43.9,1,2.51.39,3.71.6.01-.43.04-1.29.05-1.72-.04-1.17-.09-2.34-.23-3.49-.84-15.14-.68-30.32-.57-45.48.07-.87.15-1.73.24-2.59.24.03.71.09.94.12-.21,4.25-.07,8.5-.09,12.76-.03,8.62-.15,17.25.19,25.87,0,.85.04,1.71.07,2.58.13,3.34.19,6.67.47,10-.04.38-.11,1.13-.15,1.51,1.21-.2,2.43-.83,3.05-1.93.26-2.67-.51-5.31-.33-7.98-.02-3.38-.03-6.76-.15-10.13-.24-10.97.08-21.94.02-32.91.27-.03.82-.09,1.09-.13,1.6-.37,3.17-.87,4.78-1.26,7.09-1.69,13.5-5.44,19.27-9.81,4.4-3.32,7.71-7.82,10.56-12.48.07-.19.2-.59.27-.79,2.72-4.57,4.72-9.62,5.49-14.9.69-4.31.57-8.7.57-13.06-.04-5.95-.08-11.9.05-17.84-.94,0-1.89.01-2.83.02Zm-.2,31.1c.05.07.09.14.13.19-.04-.05-.08-.12-.13-.19Z"/>
        <path class="cls-2" d="m366.62,603.14c-7.91-.02-15.82.26-23.72-.28-.54-.04-1.07-.08-1.61-.12-3.46-.24-6.92-.54-10.38-.85-1.96-.11-3.89-.48-5.78-1.02.03.29.07.87.1,1.17,7.09,1.12,14.26,1.64,21.42,2.04,14.43.56,28.95.52,43.27-1.54,1.28-.18,2.58-.37,3.89-.32.05-.37.15-1.12.2-1.49-1.59.43-3.2.74-4.84.9-7.5.73-15.01,1.52-22.55,1.51Z"/>
        <path class="cls-2" d="m347.66,619.41c.82.13,1.67.33,2.5.11,6.76.36,13.56.42,20.33,0,1.7.21,3.46.18,5.13-.22,6.13-.19,12.25-.93,18.3-1.87,2.2-.23,1.78-3.03,1.89-4.6-4.89.7-9.8,1.23-14.71,1.67-3.49.04-6.98.37-10.46.65-8.28.17-16.59.52-24.86-.08-.35,0-1.03.02-1.38.02-6.89-.61-13.77-1.27-20.62-2.19-.2,1.38-.51,2.98.31,4.22,7.72,1.69,15.7,1.96,23.58,2.29Z"/>
        <path class="cls-2" d="m352.61,514.87c.8-.79,1.55-1.62,2.27-2.48-.66-.74-1.28-1.52-2.01-2.2-1.05,0-1.75,1.14-2.61,1.65.74,1.04,1.53,2.05,2.35,3.03Z"/>
        <path class="cls-2" d="m357.52,561.11c-.88-1.05-1.71-2.16-2.79-3.03-.69.84-1.41,1.64-2.16,2.43.9,1,1.79,2.01,2.69,3.01.77-.79,1.52-1.6,2.26-2.42Z"/>
        <path class="cls-2" d="m378.37,563.58c-.07-.22-.21-.65-.28-.87-.68-.74-1.39-1.45-2.1-2.16-.9.84-1.79,1.68-2.62,2.57l-.23.54c1.73.4,3.49.2,5.23-.08Z"/>
        <path class="cls-2" d="m356.33,512.68c.65.96,1.52,1.74,2.34,2.56.64-.83,1.28-1.67,1.92-2.51-.67-.88-1.34-1.76-2-2.63-.81.77-1.86,1.52-2.26,2.59Z"/>
        <path class="cls-2" d="m379.18,518.99c.5-.8,1.41-1.47,1.51-2.45-.77-1.07-1.89-1.82-2.83-2.71-.53.68-1.05,1.38-1.53,2.09.87,1.08,1.83,2.1,2.85,3.06Z"/>
        <path class="cls-2" d="m340.57,529.54c.85.97,1.46,2.25,2.49,3.03.82-.57,1.75-1.43,2.05-2.38-.79-1.16-1.75-2.18-2.6-3.29-.66.87-1.31,1.74-1.94,2.64Z"/>
        <path class="cls-2" d="m391.66,586.34c-7.23,1.24-14.58,1.54-21.9,1.78-12.04.49-24.11.14-36.07-1.27-3-.37-5.98-.84-8.99-1.03v8.37c.71.08,1.43.19,2.16.25,2.63.16,5.24.6,7.86.83,14.77,1.13,29.62,1.13,44.39.04,1.42-.17,2.84-.31,4.26-.5.99-.14,1.99-.25,3-.34,2.24-.23,4.47-.57,6.66-1.12.29-.02.88-.05,1.17-.06.07-2.46.09-4.91.11-7.36-.88.13-1.77.26-2.64.41Z"/>
        <path class="cls-2" d="m326.14,620.09c1.1,9.82,7.05,18.84,15.37,24.09,8,4.56,17.68,6.06,26.61,3.61,8.41-2.32,16.26-8,20.15-15.91,2.3-3.5,3.45-7.69,3.58-11.86-.81.06-1.6.14-2.4.23-.32-.03-.95-.1-1.26-.13-.22,5.48-2.61,10.74-6.34,14.73-4.74,5.61-11.67,9.36-19,10.06-6.83.76-13.92-.8-19.76-4.43-7.04-4.23-12.04-11.78-13.14-19.92-1.25-.36-2.54-.43-3.82-.47Z"/>
        <path class="cls-2" d="m341.17,635.63c6.36,5.79,15.52,7.71,23.85,6.27,4.15-1.02,8.21-2.78,11.45-5.61,3.94-3.45,7.39-7.89,8.42-13.13-.02-.34-.05-1.03-.07-1.37l-.47-.21c-.21.03-.63.1-.84.14-4.91.66-9.88.61-14.82.72-11.94,0-23.97.37-35.81-1.3.87,5.64,4.22,10.62,8.29,14.49Zm42.94-13.12c-.17-.18-.33-.38-.47-.59.14.21.29.41.47.59Z"/>
        <path class="cls-2" d="m348.92,511.77c-.2-.28-.61-.86-.81-1.14-.61.26-1.22.51-1.82.77-.62.3-1.2.66-1.79,1.02.64.69,1.25,1.41,1.87,2.13.83-.94,1.68-1.86,2.56-2.77Z"/>
        <path class="cls-2" d="m382.89,556.72c.03-.99-1.01-1.65-1.51-2.41-.76.91-1.49,1.85-2.2,2.8.62.72,1.24,1.45,1.83,2.2.65-.84,1.36-1.65,1.88-2.59Z"/>
        <path class="cls-2" d="m363.76,514.91c.86-.69,1.56-1.55,2.3-2.36-.68-.77-1.39-1.51-2.12-2.23-.68.71-1.39,1.4-1.95,2.21.31.94,1.21,1.57,1.76,2.37Z"/>
        <path class="cls-2" d="m343.58,518.5c.9,1.13,1.69,2.34,2.59,3.47.85-.96,1.71-1.92,2.56-2.89-.82-1.1-1.66-2.19-2.52-3.26-.86.91-1.73,1.8-2.62,2.67Z"/>
        <path class="cls-2" d="m369.98,515.41c.65-.68,1.31-1.36,1.89-2.1-.6-.96-1.51-1.69-2.27-2.5-.21-.01-.63-.03-.84-.04-.46.57-.92,1.13-1.38,1.69.8,1.04,1.68,2.03,2.6,2.96Z"/>
        <path class="cls-2" d="m375.6,515.19c.51-.63,1.03-1.27,1.52-1.92-.97-.6-1.98-1.14-3.02-1.62-.2.3-.61.91-.82,1.21.75.79,1.52,1.57,2.32,2.32Z"/>
        <path class="cls-2" d="m345.54,515.24c-.63-.89-1.29-1.75-1.97-2.6-1.04.48-1.96,1.14-2.87,1.83.66,1.12,1.41,2.19,2.32,3.13,1.01-.56,1.66-1.61,2.52-2.36Z"/>
        <path class="cls-2" d="m370.44,546.37c-1.04-1.1-1.58-3.01-3-3.57-.8.95-1.51,1.97-2.29,2.94.94,1.21,1.85,2.44,2.74,3.69.99-.9,1.77-1.99,2.56-3.07Z"/>
        <path class="cls-2" d="m380.92,553.59c-.59-.99-1.25-1.94-2.03-2.79-.74.97-1.5,1.92-2.3,2.84.67.85,1.27,1.74,1.83,2.67.98-.76,1.69-1.8,2.5-2.73Z"/>
        <path class="cls-2" d="m347.05,515.33c.72.96,1.3,2.11,2.28,2.82.96-.63,1.53-1.74,2.45-2.45-.68-1.13-1.38-2.25-2.34-3.15-.74.94-2.1,1.61-2.39,2.78Z"/>
        <path class="cls-2" d="m361.93,519.13c.59,1.15,1.6,2.01,2.45,2.97.84-.86,1.7-1.73,2.35-2.76-.92-.9-1.75-1.87-2.5-2.91-.93.72-1.79,1.63-2.29,2.7Z"/>
        <path class="cls-2" d="m367.38,550.1c-1.04-1.1-1.7-2.59-2.91-3.5-.97,1.03-1.89,2.17-2.61,3.38.8,1.24,1.76,2.35,2.64,3.53,1.01-1.09,2.02-2.19,2.89-3.41Z"/>
        <path class="cls-2" d="m369.04,560.51c-.71-.9-1.46-1.75-2.31-2.5-.85.92-1.68,1.86-2.49,2.82.71.78,1.39,1.58,2.05,2.4,1.17-.62,1.87-1.78,2.75-2.72Z"/>
        <path class="cls-2" d="m355.34,513.2c-.66.83-1.38,1.62-2.13,2.37.75,1.04,1.59,2.03,2.48,2.95.78-.81,1.53-1.64,2.26-2.49-.84-.98-1.6-2.03-2.61-2.84Z"/>
        <path class="cls-2" d="m364.61,515.58c.88,1.06,1.72,2.19,2.78,3.09.62-.8,1.28-1.56,1.98-2.29-.85-1.05-1.72-2.09-2.5-3.19-.85.7-1.56,1.54-2.26,2.39Z"/>
        <path class="cls-2" d="m340.27,522.33c.75,1.09,1.56,2.14,2.36,3.19.94-.94,1.84-1.91,2.79-2.83-.7-1.23-1.52-2.38-2.38-3.49-.9,1.07-1.82,2.12-2.78,3.14Z"/>
        <path class="cls-2" d="m377.15,538.98c.73,1,1.47,2.01,2.36,2.88.6-.99,1.27-1.94,1.83-2.96-.23-1.2-1.35-2.09-1.9-3.19-1.05.86-1.6,2.13-2.29,3.27Z"/>
        <path class="cls-2" d="m359.17,515.96c.68.82,1.39,1.61,2.18,2.32.67-.82,1.33-1.65,2-2.48-.67-.81-1.37-1.6-2.09-2.37-.72.83-1.41,1.67-2.09,2.52Z"/>
        <path class="cls-2" d="m349.04,527.29c-.85,1.08-1.74,2.14-2.65,3.17.84,1.03,1.67,2.08,2.7,2.93.73-1.01,1.55-1.94,2.28-2.95-.33-1.24-1.38-2.29-2.34-3.15Z"/>
        <path class="cls-2" d="m348.84,557.58c-.73-1.03-1.3-2.23-2.39-2.92-.71,1.08-1.5,2.12-2.31,3.13.72.88,1.44,1.76,2.15,2.65.8-1,1.64-1.96,2.56-2.86Z"/>
        <path class="cls-2" d="m372.59,513.79c-.53.88-1.47,1.61-1.76,2.6.56.9,1.31,1.64,2.03,2.41.69-.9,1.42-1.77,2.2-2.59-.53-1.07-1.51-1.77-2.47-2.41Z"/>
        <path class="cls-2" d="m336.36,525.9c-.91-1.02-1.79-2.06-2.63-3.13-.6,1.02-1.4,1.94-1.77,3.08.5,1.13,1.27,2.11,1.91,3.16,1.05-.85,1.72-2.03,2.49-3.11Z"/>
        <path class="cls-2" d="m363.88,545.8c-.6-1.27-1.68-2.42-2.82-3.29-.65,1.19-1.81,2.07-2.36,3.29.74,1.12,1.59,2.16,2.31,3.3,1.03-1.03,1.98-2.14,2.86-3.3Z"/>
        <path class="cls-2" d="m375.47,553.64c-.4-1.02-1.25-1.83-1.73-2.82-1.05.74-1.85,1.76-2.69,2.72.7.88,1.44,1.74,2.22,2.57.75-.81,1.55-1.57,2.2-2.46Z"/>
        <path class="cls-2" d="m342.4,518.55c-.39-1.16-1.54-2.01-2.19-3.07-1.02.75-1.85,1.71-2.68,2.66.69,1.19,1.42,2.35,2.25,3.46.86-1.03,1.82-1.97,2.62-3.04Z"/>
        <path class="cls-2" d="m352.45,516.42c-1.09.53-1.67,1.79-2.5,2.65.78,1.05,1.62,2.06,2.51,3.03.86-.92,1.72-1.84,2.57-2.76-.86-.96-1.51-2.17-2.58-2.92Z"/>
        <path class="cls-2" d="m334.68,536.5c.24,1.3,1.43,2.27,2.1,3.39.75-.81,1.48-1.63,2.18-2.48-.8-1.12-1.57-2.26-2.52-3.26-.59.78-1.23,1.53-1.76,2.36Z"/>
        <path class="cls-2" d="m358.43,516.78c-.68.83-1.38,1.64-2.09,2.44.69.87,1.43,1.7,2.2,2.5.7-.87,1.4-1.74,2.09-2.62-.68-.82-1.39-1.62-2.2-2.32Z"/>
        <path class="cls-2" d="m334.74,529.65c.17,1.17,1.29,2.01,1.87,3.03.85-1.06,1.82-2.01,2.64-3.08-.37-1.16-1.51-2.02-2.41-2.84-.69.97-1.48,1.88-2.11,2.9Z"/>
        <path class="cls-2" d="m369.98,517c-.71.83-1.38,1.68-2.01,2.57.74.88,1.48,1.78,2.23,2.67.68-.84,1.34-1.7,1.95-2.59-.64-.95-1.32-1.86-2.17-2.64Z"/>
        <path class="cls-2" d="m375.64,516.79c-.73.92-1.52,1.8-2.14,2.81.56,1.31,1.76,2.25,2.58,3.42.83-.96,1.59-1.98,2.39-2.97-.81-1.2-1.77-2.28-2.83-3.26Z"/>
        <path class="cls-2" d="m382.06,522.69c.63-.85,1.27-1.71,1.92-2.56-.41-.5-.81-1.01-1.2-1.5-.45-.45-.93-.86-1.4-1.27-.49.84-1.27,1.56-1.52,2.51.64,1.01,1.45,1.89,2.2,2.81Z"/>
        <path class="cls-2" d="m339.98,553.91c-.61-.9-1.3-1.74-2.05-2.52-.59.94-1.23,1.85-1.76,2.82.23.87.83,1.56,1.27,2.33.99-.73,1.71-1.74,2.54-2.63Z"/>
        <path class="cls-2" d="m339.82,561.35c-.76-1.02-1.48-2.07-2.17-3.13-.76.7-1.49,1.43-2.17,2.2.62,1,1.24,2.01,1.85,3.02.93-.57,1.73-1.32,2.49-2.09Z"/>
        <path class="cls-2" d="m339.21,522.34c-.84-1.2-1.63-2.46-2.75-3.41-.61,1.13-1.36,2.17-2.07,3.24.85.97,1.65,1.99,2.43,3.03.88-.87,1.69-1.82,2.38-2.85Z"/>
        <path class="cls-2" d="m343.25,526.32c.87,1.13,1.67,2.33,2.7,3.34.83-1.09,1.71-2.14,2.63-3.16-.87-1.03-1.73-2.08-2.56-3.15-.98.93-1.96,1.88-2.77,2.97Z"/>
        <path class="cls-2" d="m346.68,522.52c.67,1.19,1.59,2.2,2.52,3.19.86-.96,1.71-1.93,2.53-2.93-.79-1.04-1.58-2.06-2.36-3.1-.84.99-1.72,1.96-2.69,2.83Z"/>
        <path class="cls-2" d="m356.13,526.35c.7,1,1.52,1.91,2.24,2.91.91-.98,2.2-1.94,2.47-3.28-.73-.98-1.56-1.87-2.29-2.84-.82,1.03-2.01,1.95-2.41,3.21Z"/>
        <path class="cls-2" d="m365.35,530.08c.78,1.01,1.57,2.01,2.36,3.01.73-.8,1.52-1.56,2.11-2.48-.68-1.17-1.63-2.15-2.46-3.21-.64.92-1.31,1.81-2.01,2.69Z"/>
        <path class="cls-2" d="m345.46,546.1c-.71-1.21-1.59-2.3-2.42-3.42-.8,1.04-1.57,2.11-2.29,3.21.76,1.15,1.65,2.21,2.67,3.16.6-1.03,1.65-1.84,2.05-2.95Z"/>
        <path class="cls-2" d="m374.58,577.72c-16.17-.04-32.41.73-48.52-1.1-.21-.01-.63-.03-.84-.04.01.83.03,1.66.05,2.49,4.08.57,8.17,1.08,12.28,1.24,3,.14,5.98.27,8.99.35.75-.1,1.5-.17,2.25-.22-.75.06-1.5.13-2.25.22,2.25.16,4.5.3,6.76.17.49.02,1.48.04,1.97.06,3.89,0,7.79.02,11.68,0,.49-.03,1.46-.09,1.95-.12-.56-.2-1.14-.33-1.71-.4.58.07,1.15.2,1.71.4h.1c2.48.05,4.96-.09,7.45-.19,1.21-.09,2.43-.21,3.65-.24,3.16-.06,6.28-.51,9.42-.85.64-.08,1.28-.19,1.93-.31.94.17,1.85-.25,2.74-.48-.04-.89-.07-1.78-.08-2.67-5.05.93-10.2,1.15-15.32,1.49-1.4.14-2.8.26-4.2.21Z"/>
        <path class="cls-2" d="m355.59,520.08c-.97.8-1.67,1.88-2.64,2.69.73,1.01,1.56,1.93,2.5,2.75.68-1.1,1.92-1.97,2.24-3.22-.63-.77-1.17-1.82-2.09-2.23Z"/>
        <path class="cls-2" d="m361.01,519.99c-.63.79-1.27,1.57-1.92,2.34.79,1.08,1.66,2.1,2.61,3.05.66-.85,1.34-1.7,2.02-2.53-.86-1-1.72-1.99-2.71-2.85Z"/>
        <path class="cls-2" d="m379.22,520.74c-1.06.66-1.86,1.98-2.51,3.08.67.93,1.49,1.74,2.24,2.61.72-1.07,1.95-1.88,2.36-3.1-.61-.93-1.27-1.84-2.09-2.6Z"/>
        <path class="cls-2" d="m387.18,530.72c.68-.91,1.29-1.87,1.94-2.8-.75-.77-1.34-1.67-1.75-2.65-.18.17-.54.52-.73.7-.45.55-.88,1.11-1.32,1.67.6,1.04,1.22,2.07,1.87,3.08Z"/>
        <path class="cls-2" d="m364.96,522.77c.8,1.03,1.6,2.06,2.39,3.1.9-.86,1.61-1.89,2.3-2.93-.79-.92-1.58-1.83-2.35-2.75-.74.9-1.51,1.76-2.34,2.58Z"/>
        <path class="cls-2" d="m357.4,545.71c-.7-1-1.47-1.95-2.3-2.84-.67.91-1.39,1.78-2.15,2.62.66,1.15,1.36,2.29,2.09,3.39.83-1.03,1.61-2.09,2.36-3.18Z"/>
        <path class="cls-2" d="m372.58,520.48c-.61.85-1.21,1.71-1.8,2.58.95.92,1.56,2.21,2.64,2.97.79-.56,1.36-1.36,2.05-2.03-.77-1.32-1.75-2.51-2.89-3.52Z"/>
        <path class="cls-2" d="m337.57,525.92c.78.94,1.57,1.88,2.35,2.82.73-.81,1.45-1.62,2.15-2.45-.76-1.04-1.53-2.07-2.32-3.08-.74.9-1.47,1.8-2.18,2.71Z"/>
        <path class="cls-2" d="m337.2,533.52c.85.96,1.6,1.99,2.31,3.07,1.04-1.01,1.97-2.1,2.93-3.17-.81-1.08-1.65-2.14-2.53-3.15-.96,1.03-1.98,2.03-2.71,3.25Z"/>
        <path class="cls-2" d="m350.1,541.69c.75.98,1.28,2.39,2.39,2.97.83-.71,1.36-1.71,2.05-2.56-.8-1.04-1.56-2.09-2.29-3.17-.95.71-1.48,1.8-2.15,2.75Z"/>
        <path class="cls-2" d="m378.85,542.67c-.72-1.02-1.41-2.05-2.09-3.09-.76.94-1.48,1.92-2.17,2.92.71,1.03,1.34,2.13,2.25,3.01.66-.95,1.34-1.88,2.01-2.83Z"/>
        <path class="cls-2" d="m342.79,549.86c-.8-1.09-1.64-2.15-2.65-3.04-.54,1.21-1.11,2.41-1.74,3.58.63.88,1.32,1.73,2.04,2.56.8-1.03,1.58-2.06,2.35-3.1Z"/>
        <path class="cls-2" d="m345.99,553.85c-.73-1.19-1.68-2.23-2.57-3.29-.81,1.06-1.63,2.1-2.49,3.12.92,1.11,1.66,2.43,2.93,3.2.65-1.05,1.48-1.98,2.13-3.03Z"/>
        <path class="cls-2" d="m392.41,555.75c.11-1.17-.8-1.99-1.5-2.78-.71,1.07-1.4,2.14-2.12,3.21.58.89,1.16,1.79,1.73,2.7.74-.96,1.74-1.86,1.88-3.13Z"/>
        <path class="cls-2" d="m349.78,526.66c.83.9,1.61,1.84,2.34,2.82.9-1.08,1.83-2.15,2.56-3.36-.82-.85-1.59-1.76-2.52-2.5-.82.99-1.67,1.96-2.38,3.04Z"/>
        <path class="cls-2" d="m364.24,523.62c-.58.95-1.51,1.72-1.86,2.78.69,1,1.5,1.92,2.21,2.92.92-.76,1.59-1.76,2.24-2.76-.84-1-1.6-2.07-2.58-2.93Z"/>
        <path class="cls-2" d="m386.27,546.16c-.41-.94-1.03-1.78-1.54-2.66-.95.76-1.57,1.81-2.25,2.8.55.88,1.11,1.78,1.65,2.67.79-.87,1.56-1.78,2.13-2.81Z"/>
        <path class="cls-2" d="m368.18,526.46c.44,1.26,1.53,2.25,2.4,3.27.7-.93,1.4-1.86,2.09-2.79-.83-1.05-1.63-2.12-2.42-3.19-.71.88-1.48,1.73-2.07,2.71Z"/>
        <path class="cls-2" d="m364.79,544.86c.6-1.06,1.42-1.96,2.15-2.92-.42-1.29-1.51-2.31-2.13-3.53-1.27.74-1.94,2.13-2.91,3.19.93,1.11,1.66,2.44,2.89,3.26Z"/>
        <path class="cls-2" d="m379.73,527.3c.68,1.09,1.52,2.06,2.36,3.02.71-.92,1.4-1.85,2.07-2.8-.74-1.02-1.42-2.08-2.06-3.16-.92.83-2.06,1.72-2.37,2.94Z"/>
        <path class="cls-2" d="m391.54,539.07l-.2-.33c-.51-.87-1.06-1.71-1.63-2.54-.64.94-1.26,1.89-1.88,2.84.51.9,1.02,1.8,1.53,2.7.68-.71,1.29-1.48,1.89-2.26l.29-.4Z"/>
        <path class="cls-2" d="m339.73,545.98c-1.01-1.54-1.98-3.1-2.93-4.68-.79.92-1.7,1.79-2.19,2.91,1.15,1.73,2.04,3.66,3.46,5.2.51-1.17,1.05-2.32,1.67-3.44Z"/>
        <path class="cls-2" d="m376.05,524.69c-.9.56-1.41,1.56-2.15,2.29.73.96,1.45,1.96,2.4,2.72.53-.89,1.56-1.6,1.78-2.61-.58-.87-1.19-1.78-2.03-2.41Z"/>
        <path class="cls-2" d="m352.7,530.23c.84,1.07,1.51,2.33,2.64,3.15.75-1.15,1.71-2.14,2.47-3.27-.61-1.23-1.65-2.17-2.56-3.18-.8,1.14-1.65,2.24-2.55,3.3Z"/>
        <path class="cls-2" d="m359.28,530.08c.72,1.05,1.6,1.98,2.53,2.86.76-.94,1.52-1.87,2.28-2.81-.83-1.07-1.65-2.14-2.52-3.18-.69,1.07-1.91,1.92-2.28,3.13Z"/>
        <path class="cls-2" d="m342.82,534.18c-.86,1.06-1.76,2.09-2.62,3.15,1.02,1.29,1.82,2.79,3.13,3.84.74-1.19,1.57-2.33,2.32-3.51-.94-1.16-1.7-2.47-2.82-3.48Z"/>
        <path class="cls-2" d="m346.79,537.64c.86,1.19,1.73,2.39,2.79,3.41.64-1.04,1.28-2.07,1.93-3.1-.86-1.04-1.71-2.08-2.57-3.12-.71.94-1.43,1.87-2.16,2.81Z"/>
        <path class="cls-2" d="m364,537.67c-.65-1.12-1.38-2.22-2.39-3.05-.83,1.12-1.7,2.2-2.58,3.29.81.91,1.33,2.15,2.37,2.83.96-.95,1.65-2.13,2.6-3.07Z"/>
        <path class="cls-2" d="m346.7,552.98c.99-.57,1.41-1.87,2.01-2.83-.82-1.1-1.65-2.19-2.54-3.23-.83.94-1.56,1.97-2.21,3.03,1,.91,1.65,2.32,2.74,3.03Z"/>
        <path class="cls-2" d="m373.09,527.8c-.67.92-1.36,1.84-2.05,2.74.83.87,1.32,2.16,2.35,2.78.83-.79,1.47-1.76,2.1-2.71-.55-1.09-1.42-2.05-2.4-2.8Z"/>
        <path class="cls-2" d="m362.36,533.99c.81.88,1.52,1.88,2.48,2.62.63-.98,1.67-1.74,2.17-2.78-.63-1.09-1.45-2.05-2.32-2.94-.82,1.01-1.68,1.98-2.33,3.1Z"/>
        <path class="cls-2" d="m376.75,530.55c.85,1.13,1.67,2.29,2.47,3.46.85-.86,1.52-1.87,2.19-2.89-.83-1.08-1.63-2.17-2.42-3.27-.89.76-1.58,1.72-2.23,2.69Z"/>
        <path class="cls-2" d="m382.56,531.23c.69.97,1.36,1.98,2.25,2.8.58-.82,1.17-1.63,1.78-2.42-.64-1.08-1.29-2.17-2.03-3.19-.67.94-1.34,1.87-2,2.82Z"/>
        <path class="cls-2" d="m370.07,537.89c-.81-1.06-1.43-2.26-2.41-3.17-.95.79-1.6,1.86-2.45,2.75.82,1.2,1.66,2.39,2.52,3.58.84-1.01,1.6-2.07,2.34-3.15Z"/>
        <path class="cls-2" d="m382.64,538.58c.62,1.07,1.26,2.13,1.91,3.18.79-.89,1.48-1.85,2.14-2.84-.68-1.11-1.36-2.23-2.18-3.24-.58.99-1.2,1.96-1.87,2.9Z"/>
        <path class="cls-2" d="m382.07,545.4c.61-.97,1.3-1.9,2.03-2.78-.74-1.03-1.41-2.09-1.99-3.2-.77,1.05-1.45,2.18-2.13,3.29.61.95,1.2,1.95,2.09,2.69Z"/>
        <path class="cls-2" d="m368.34,533.71c.54,1.28,1.66,2.24,2.44,3.39.68-.91,1.32-1.85,1.91-2.82-.69-1.04-1.43-2.05-2.26-2.97-.7.8-1.45,1.56-2.08,2.4Z"/>
        <path class="cls-2" d="m360.74,541.6c-.75-1.02-1.52-2.03-2.45-2.89-.78,1.13-1.72,2.14-2.5,3.27.63,1.04,1.41,1.98,2.12,2.97,1.12-.97,1.96-2.18,2.83-3.36Z"/>
        <path class="cls-2" d="m373.49,542.32c-.96-1.18-1.8-2.47-2.72-3.68-.85,1.03-1.67,2.1-2.5,3.15,1,1.24,1.78,2.64,2.93,3.75.77-1.07,1.58-2.12,2.29-3.22Z"/>
        <path class="cls-2" d="m363.95,554.19c-.99-1.17-1.9-2.42-2.86-3.61-.92,1.16-1.85,2.31-2.78,3.47.97,1.06,1.9,2.17,2.74,3.34.98-1.05,1.94-2.12,2.9-3.19Z"/>
        <path class="cls-2" d="m384.87,526.81c.37-.47.74-.93,1.12-1.39,1.32-1.65-.92-3.11-1.63-4.5-.54.87-1.15,1.71-1.75,2.54.7,1.15,1.46,2.27,2.27,3.35Z"/>
        <path class="cls-2" d="m357.72,537.96c-.65-1.16-1.65-2.08-2.4-3.17-1.02.95-1.86,2.06-2.71,3.16.89,1.11,1.41,2.68,2.77,3.31.65-1.19,1.55-2.2,2.34-3.3Z"/>
        <path class="cls-2" d="m389.98,542.6c.43.7.87,1.39,1.31,2.09.23-.14.7-.43.93-.58.24-1.4.28-2.82.02-4.23l-.5.2c-.59.84-1.17,1.67-1.76,2.51Z"/>
        <path class="cls-2" d="m333.39,529.65c-.68-.94-1.36-1.87-2.16-2.72-.45.85-1.26,1.62-1.3,2.62.46.98,1.16,1.83,1.9,2.62.57-.81,1.08-1.66,1.56-2.52Z"/>
        <path class="cls-2" d="m389.96,534.46c.3-.55.6-1.1.9-1.64-.08-1.31-.79-2.53-1.61-3.53-.48.77-.97,1.54-1.47,2.3.67.99,1.4,1.96,2.18,2.87Z"/>
        <path class="cls-2" d="m330.97,532.76c-.38-.8-.98-1.45-1.55-2.1-.34.54-.69,1.08-1.01,1.63-.21,1.28-.02,2.56.53,3.73.75-1.03,1.71-2.01,2.03-3.27Z"/>
        <path class="cls-2" d="m332.27,532.86c.51,1.04,1.12,2.03,1.82,2.96.68-.8,1.32-1.62,1.94-2.46-.7-.93-1.35-1.9-1.96-2.87-.63.77-1.23,1.56-1.8,2.37Z"/>
        <path class="cls-2" d="m373.9,534.29c.77,1.23,1.67,2.58,2.67,3.57.87-.87,1.38-2.07,2.13-3.06-.85-1.19-1.73-2.36-2.6-3.53-.72,1.02-1.51,1.98-2.2,3.02Z"/>
        <path class="cls-2" d="m387.7,556.18c-.46-.86-.93-1.72-1.41-2.56-.98.83-1.63,1.93-2.19,3.07.54.69,1.07,1.4,1.6,2.11.66-.88,1.33-1.75,2.01-2.62Z"/>
        <path class="cls-2" d="m379.83,534.88c.7,1.03,1.43,2.05,2.2,3.04.7-1.02,1.38-2.05,2.04-3.09-.67-.92-1.31-1.85-1.94-2.8-.84.89-1.56,1.88-2.3,2.85Z"/>
        <path class="cls-2" d="m385.16,534.88c.72,1.06,1.41,2.16,2.07,3.26.78-.86,1.43-1.83,2.04-2.81-.7-1-1.36-2.03-2-3.06-.74.84-1.44,1.71-2.1,2.61Z"/>
        <path class="cls-2" d="m329.51,536.86c.68.85,1.28,1.77,1.85,2.71.79-.88,1.45-1.86,2.1-2.85-.56-.99-1.17-1.96-1.88-2.85-.71.98-1.39,1.99-2.07,3Z"/>
        <path class="cls-2" d="m373.12,535.22c-.45.93-1.48,1.7-1.6,2.71.94,1.13,1.47,2.79,2.69,3.57.72-.9,1.29-1.89,1.88-2.86-1.09-1.06-1.8-2.46-2.97-3.42Z"/>
        <path class="cls-2" d="m331.95,540.19c.63,1.04,1.25,2.07,1.87,3.1.95-.74,1.71-1.7,2.34-2.72-.62-1.06-1.42-1.99-2.13-2.98-.76.81-1.44,1.69-2.08,2.6Z"/>
        <path class="cls-2" d="m337.37,540.55c.91,1.47,1.86,2.91,2.71,4.41.96-.93,1.72-2.02,2.43-3.14-1.11-1.19-2.03-2.52-2.99-3.83-.76.82-1.48,1.67-2.16,2.55Z"/>
        <path class="cls-2" d="m343.77,542.04c.83,1.17,1.46,2.61,2.73,3.37.64-1.28,1.86-2.31,2.26-3.67-.76-1.14-1.7-2.13-2.56-3.18-.75,1.17-1.95,2.2-2.43,3.49Z"/>
        <path class="cls-2" d="m355.06,556.47c.93-.64,1.52-1.62,2.17-2.52-1.01-1.04-1.75-2.28-2.38-3.58-.82.95-1.53,1.99-2.24,3.03.81,1.02,1.42,2.24,2.45,3.07Z"/>
        <path class="cls-2" d="m351.83,545.5c-.82-.94-1.63-1.89-2.41-2.86-.82,1.17-1.69,2.31-2.63,3.39.76,1.17,1.58,2.29,2.49,3.36.95-1.23,1.77-2.54,2.55-3.89Z"/>
        <path class="cls-2" d="m375.93,546.26c-.38-1.13-1.29-2.01-1.92-3.01-.9.96-1.66,2.03-2.38,3.12.7.99,1.42,1.98,2.21,2.91.68-1.02,1.46-1.97,2.08-3.03Z"/>
        <path class="cls-2" d="m379.18,549.01c.79-.87,1.45-1.84,2.21-2.74-.62-.94-1.25-1.87-1.9-2.79-.85.86-1.58,1.84-2.27,2.83.67.87,1.02,2.09,1.96,2.7Z"/>
        <path class="cls-2" d="m387.46,545.94c.42.74.84,1.48,1.27,2.21.81-.72,1.46-1.59,2.1-2.45-.45-.74-.88-1.49-1.32-2.22-.7.81-1.38,1.63-2.06,2.45Z"/>
        <path class="cls-2" d="m328.97,550.14c.77-.87,1.44-1.83,2.13-2.76-.6-1.01-1.07-2.13-2.01-2.86-.46,1.1-1.2,2.14-1.34,3.34.34.8.79,1.53,1.22,2.29Z"/>
        <path class="cls-2" d="m377.94,556.92c-.66-.8-1.09-1.84-1.97-2.42-.83.64-1.53,1.43-2.12,2.29.6.94,1.41,1.72,2.16,2.54.69-.76,1.34-1.57,1.93-2.41Z"/>
        <path class="cls-2" d="m333.8,544.99c-.6.87-1.18,1.74-1.75,2.63.47.73.9,1.49,1.37,2.22,1.07-.21,1.41-1.69,2.15-2.42-.52-.86-1.08-1.7-1.78-2.43Z"/>
        <path class="cls-2" d="m354.35,549.5c-.62-1.12-1.3-2.21-2.16-3.16-.68,1.29-1.45,2.52-2.35,3.67.71.93,1.43,1.85,2.18,2.75.85-1.03,1.55-2.18,2.32-3.27Z"/>
        <path class="cls-2" d="m357.95,553.28c.81-1.16,1.67-2.28,2.57-3.36-.79-1.19-1.55-2.44-2.66-3.37-.83,1.08-1.65,2.18-2.38,3.34.83,1.12,1.3,2.57,2.48,3.4Z"/>
        <path class="cls-2" d="m388.35,548.98c-.48-.76-1.02-1.48-1.63-2.14-.67,1-1.32,2.02-1.99,3.02.49.73.97,1.46,1.45,2.2.75-1.01,1.47-2.04,2.17-3.08Z"/>
        <path class="cls-2" d="m392.35,548.28c-.4-.59-.79-1.18-1.17-1.78-.6.79-1.18,1.59-1.73,2.41.54.79,1.09,1.58,1.62,2.38.38-.59.76-1.16,1.16-1.74.03-.32.08-.96.12-1.28Z"/>
        <path class="cls-2" d="m373.15,549.96c-.7-.91-1.38-1.83-2.04-2.76-.92.94-1.66,2.02-2.55,2.98.58.89,1.2,1.75,1.86,2.59.95-.89,1.85-1.84,2.72-2.81Z"/>
        <path class="cls-2" d="m331.33,553.31c.53-.87,1.16-1.69,1.58-2.63-.36-.87-.9-1.64-1.38-2.43-.73.86-1.36,1.8-1.95,2.75.48.84.93,1.74,1.76,2.3Z"/>
        <path class="cls-2" d="m376.4,552.66c.75-.84,1.41-1.76,2.12-2.65-.57-1.06-1.19-2.08-1.9-3.05-.79,1-1.55,2.03-2.29,3.06.68.83.88,2.47,2.08,2.64Z"/>
        <path class="cls-2" d="m383.65,549.91c-.49-1.01-1.08-1.97-1.8-2.83-.79.94-1.52,1.91-2.23,2.91.59.96,1.23,1.9,1.96,2.76.65-.97,1.34-1.92,2.06-2.84Z"/>
        <path class="cls-2" d="m337.49,550.41c-.42-.77-.9-1.5-1.54-2.1-.68.86-1.32,1.75-1.95,2.65.49.77.96,1.55,1.41,2.35.91-.8,1.44-1.9,2.08-2.9Z"/>
        <path class="cls-2" d="m328.63,551.06c-.52-.84-1.07-1.65-1.64-2.45-.18.31-.54.93-.73,1.24-.78,1.26-.03,2.52.75,3.55.51-.81,1.07-1.58,1.62-2.34Z"/>
        <path class="cls-2" d="m390.44,552.13c-.52-.77-1.02-1.57-1.5-2.36-.85.88-1.53,1.91-2.23,2.92.49.92,1.02,1.81,1.65,2.64.71-1.06,1.42-2.11,2.07-3.21Z"/>
        <path class="cls-2" d="m351.58,553.68c-.73-.9-1.31-1.94-2.21-2.67-.85.8-1.39,1.87-2.06,2.81.47,1.06,1.41,1.86,2.1,2.8.84-.9,1.53-1.91,2.18-2.94Z"/>
        <path class="cls-2" d="m369.92,553.56c-.57-.92-1.24-1.77-1.94-2.59-1.03,1.03-1.98,2.13-2.94,3.21.57.77,1.13,1.54,1.68,2.34,1.24-.8,2.12-1.99,3.2-2.96Z"/>
        <path class="cls-2" d="m392.27,550.92c-.65.63-.77,1.62-.1,2.3.91-.19,1.03-2.08.1-2.3Z"/>
        <path class="cls-2" d="m329.26,556.27c.43-.71.87-1.41,1.31-2.11-.46-.74-.92-1.49-1.37-2.23-.7.61-1.18,1.39-1.64,2.19.56.72,1.13,1.43,1.7,2.15Z"/>
        <path class="cls-2" d="m335.1,554.42c-.44-1-.99-1.95-1.8-2.69-.52.83-1.05,1.65-1.61,2.46.4.8.84,1.59,1.31,2.35.75-.65,1.45-1.36,2.09-2.12Z"/>
        <path class="cls-2" d="m375.39,560c-.75-.88-1.54-1.75-2.46-2.47-.53.7-1.05,1.41-1.54,2.14-.29-.29-.57-.58-.84-.86.74-.6,1.41-1.28,2.04-2-.7-.85-1.37-1.72-2.03-2.6-1.04.97-2.35,1.83-2.98,3.12,1.51,1.93,3.25,3.7,5.05,5.38.89-.93,1.82-1.83,2.76-2.71Z"/>
        <path class="cls-2" d="m343.15,557.55c-.99-.84-1.86-1.82-2.43-2.98-1.09.73-1.78,1.87-2.61,2.85.76,1.03,1.35,2.2,2.29,3.09,1.17-.64,1.94-1.9,2.75-2.95Z"/>
        <path class="cls-2" d="m328.66,557.23c-.48-.72-.97-1.43-1.44-2.15-1.73.37-.76,2.83-.18,3.91.52-.61,1.07-1.19,1.62-1.76Z"/>
        <path class="cls-2" d="m331.32,559.01c.42-.55.86-1.1,1.29-1.64-.43-.7-.85-1.41-1.32-2.08-.97-.08-1.06,1.34-1.48,1.97.5.59,1.01,1.16,1.51,1.75Z"/>
        <path class="cls-2" d="m335.18,559.55c.76-.64,1.32-1.48,1.94-2.25-.51-.79-1.06-1.54-1.7-2.23-.58.78-1.19,1.53-1.84,2.25.52.71.73,1.87,1.6,2.22Z"/>
        <path class="cls-2" d="m358.25,560.36c.8-.77,1.56-1.59,2.23-2.47-.93-1.01-1.83-2.04-2.72-3.07-.74.83-1.54,1.62-2.23,2.51.73,1.16,1.81,2.03,2.72,3.04Z"/>
        <path class="cls-2" d="m366.26,557.29c-.6-.82-1.15-1.73-2.06-2.25-.81.97-1.63,1.93-2.48,2.86.49.85,1.08,1.62,1.74,2.35.98-.94,1.91-1.93,2.8-2.96Z"/>
        <path class="cls-2" d="m388.29,561.81c.6-.62,1.1-1.32,1.64-1.98-.51-1.02-1.04-2.01-1.62-2.98-.78,1.06-2.83,2.42-1.45,3.79.42.37.7,1.53,1.42,1.18Z"/>
        <path class="cls-2" d="m385.16,559.52c-.53-.76-1.07-1.51-1.63-2.25-.62.93-1.28,1.83-1.96,2.72.59.7,1.19,1.4,1.78,2.11.61-.86,1.21-1.72,1.82-2.58Z"/>
        <path class="cls-2" d="m330.69,559.83c-.48-.7-.96-1.39-1.43-2.08-.53.61-1.03,1.24-1.49,1.91.51.62,1.02,1.24,1.51,1.87.47-.57.94-1.13,1.41-1.69Z"/>
        <path class="cls-2" d="m334.48,560.4c-.43-.73-.77-1.53-1.4-2.12-.77.09-.91,1.13-1.39,1.62.42.68.86,1.36,1.29,2.05.49-.52.99-1.04,1.5-1.55Z"/>
        <path class="cls-2" d="m351.28,560.48c-.64-.74-1.09-1.7-1.94-2.2-1.05.74-1.69,1.93-2.59,2.83.6.83,1.24,1.62,1.93,2.37.92-.96,1.79-1.96,2.6-3.01Z"/>
        <path class="cls-2" d="m360.82,563.12c.76-.63,1.38-1.41,2.03-2.15-.53-.84-1.15-1.61-1.9-2.25-.69.79-1.39,1.57-2.09,2.35.62.7,1.17,1.51,1.96,2.05Z"/>
        <path class="cls-2" d="m326.69,559.66v.13s0-.08,0-.13Z"/>
        <path class="cls-2" d="m326.69,559.66v-.13s0,.08,0,.13Z"/>
        <path class="cls-2" d="m387.63,563.07c-.59-.99-1.29-1.9-2.04-2.77-.66.92-1.28,1.86-1.83,2.85,1.29.06,2.58.03,3.87-.08Z"/>
        <path class="cls-2" d="m332.17,563.15c-.02-.27-.05-.82-.06-1.09-.32-.51-.66-1-1.01-1.48-.6.76-1.19,1.52-1.8,2.28.94.24,1.9.35,2.87.29Z"/>
        <path class="cls-2" d="m382.64,563.27c.19-1.08-1.13-1.71-1.7-2.49-.52.79-1.05,1.58-1.57,2.36,1.05.33,2.18.25,3.26.13Z"/>
        <path class="cls-2" d="m336.43,564.18l-.06-.68c-.5-.8-1.03-1.58-1.56-2.36-.44.47-.88.94-1.33,1.41-.6,1.69,2.02,1.19,2.94,1.62Z"/>
        <path class="cls-2" d="m354.46,564.09c-.73-1.06-1.6-2.02-2.54-2.9-.91.99-1.82,2-2.82,2.91h.53c1.61.04,3.21.03,4.83-.01Z"/>
        <path class="cls-2" d="m365.83,564.1l-.27-.48c-.67-.74-1.36-1.46-2.06-2.17-.77.88-1.53,1.78-2.35,2.63,1.56.04,3.12.06,4.68.02Z"/>
        <path class="cls-2" d="m369.61,561.19c-.84.88-1.7,1.78-2.26,2.87,1.54-.04,3.09-.14,4.61-.41-.74-.86-1.54-1.68-2.36-2.47Z"/>
        <path class="cls-2" d="m342.02,564.1c-.54-.77-1.13-1.52-1.83-2.14-.62.75-1.29,1.46-1.98,2.14,1.27.02,2.54.03,3.82,0Z"/>
        <path class="cls-2" d="m347.86,564.08c-.51-.79-1.08-1.55-1.68-2.27-.79.71-1.53,1.48-2.21,2.3,1.3.04,2.6.03,3.89-.03Z"/>
        <path class="cls-2" d="m360.21,564.11c-.63-.83-1.29-1.63-1.98-2.4-.76.77-1.5,1.55-2.21,2.36l.56.02c1.21.04,2.42.04,3.64.02Z"/>
        <path class="cls-2" d="m393,571.38c-3.58.61-7.21.54-10.82.8.36.05.71.12,1.06.19-.35-.07-.71-.14-1.06-.19-1.3.06-2.6.14-3.9.15-1.62.1-3.25.19-4.87.18-.95,0-1.9.03-2.84.04-4.53,0-9.08-.17-13.61.08-8.17.02-16.33-.5-24.46-1.12-2.58-.24-5.13-.72-7.69-1.06.21,1.16.39,2.32.54,3.49.53.11,1.06.21,1.6.3,6.12.58,12.25,1.27,18.41,1.27.14,0,.42.01.55.01,7.48.24,14.96,0,22.44.04,2.79.16,5.58,0,8.37-.14,2.82-.03,5.63-.21,8.45-.36,2.03-.03,4.05-.34,6.06-.63.36-.05,1.07-.15,1.42-.2.32-.05.95-.14,1.27-.19-.02-.88-.03-1.76-.04-2.64-.23,0-.67-.02-.89-.02Z"/>
        <path class="cls-2" d="m410.06,586.07c-.08,0-.17.01-.27.02.1,0,.19-.01.27-.02v-.63c-.7.02-1.39.04-2.08.06-.05,3.07-.03,6.14.03,9.21h0c-.02.31-.06.93-.07,1.23.69-.01,1.38-.02,2.07-.03v-.47c.08-3.13.03-6.26.05-9.38Z"/>
        <path class="cls-2" d="m412.84,586.09c-.48,0-1.46.02-1.94.02.01,2.7-.08,5.4.04,8.1l.96.18c.09-2.52.08-5.03.02-7.55.1,0,.31,0,.42,0-.25,2.45.34,4.98-.39,7.37.31.01.92.03,1.23.04.06-2.72.02-5.44.07-8.15h-.41Z"/>
        <path class="cls-2" d="m393.5,604.39c-7.63.93-15.28,1.7-22.96,2.19-1.02,0-2.03.05-3.04.11h0c-6.22.25-12.45.37-18.66-.02-.42.2-.84.42-1.24.65.41-.23.82-.45,1.24-.65-3.07-.12-6.13-.43-9.2-.54-1.06-.12-2.12-.23-3.18-.25l.36-.12c-.64-.13-1.29-.14-1.93-.06-3.28-.53-6.57-1.01-9.86-1.4v2.17c.62.12,1.25.23,1.88.33,6.01.9,12.07,1.25,18.13,1.63.85.04,1.7.06,2.56.06h0c6.22.34,12.43.13,18.65.03,1.41.04,2.82-.05,4.23-.14,2.28-.05,4.55-.21,6.83-.34.85-.03,1.7-.08,2.55-.15,4.71-.25,9.36-1.16,14.06-1.36.1-.67.21-1.34.34-2-.18-.04-.54-.12-.73-.16Z"/>
        <path class="cls-2" d="m331.38,609.71c-2.09-.17-4.17-.52-6.22-1.03-.03.56-.72,1.64.19,1.82,5.58.73,11.16,1.52,16.78,1.87.51.03,1.02.06,1.53.09,4.83.4,9.68.81,14.53.69,10.99-.16,22-.65,32.88-2.23,1.03-.14,2.06-.27,3.09-.38.01-.65.02-1.3.04-1.94h-.73c-20.57,2.62-41.45,3.23-62.1,1.11Z"/>
        <path class="cls-2" d="m311.03,585.49c-.7.02-1.4.03-2.09.05v.59c.11,3.24-.07,6.49,0,9.73l.04.17c.71,0,1.41,0,2.12-.01-.05-3.34-.02-6.67-.04-10v-.53Z"/>
      </g>
    </g>
    <g>
      <path class="cls-2" d="m494.73,595.67h5.78c3.91,0,6.25,2.34,7.81,5.47,6.09,12.34,20.15,20.46,38.12,20.46s33.74-6.87,33.74-22.81c0-36.24-80.77-17.34-80.77-64.36,0-19.68,17.5-31.87,40.31-31.87,30.31,0,47.65,18.43,50.62,36.87h-5.78c-3.91,0-6.25-2.34-7.81-5.47-6.09-12.34-19.06-20.46-37.03-20.46s-28.59,7.97-28.59,20.93c0,36.4,80.77,17.81,80.77,64.36,0,21.25-17.81,33.74-45.46,33.74-30.31,0-48.74-18.43-51.71-36.87Z"/>
      <path class="cls-2" d="m590.33,510.06v-5h55.62v118.57c0,3.59-2.5,6.41-5.78,6.41h-5.94v-114.04h-37.49c-3.59,0-6.41-2.5-6.41-5.94Zm67.33-5h32.18v5c0,3.44-2.81,5.94-6.4,5.94h-19.37c-3.59,0-6.41-2.5-6.41-5.94v-5Z"/>
      <path class="cls-2" d="m711.72,511.47v72.49c0,23.12,14.53,37.65,37.49,37.65s37.49-14.53,37.49-37.65v-72.49c0-3.59,2.5-6.41,5.94-6.41h5.78v78.89c0,29.84-18.9,48.59-49.21,48.59s-49.21-18.75-49.21-48.59v-78.89h5.78c3.44,0,5.94,2.81,5.94,6.41Z"/>
      <path class="cls-2" d="m896.53,581.46v-27.81c0-23.12-14.53-37.65-37.49-37.65h-31.71v39.68c0,3.59-2.5,6.41-5.78,6.41h-5.94v-57.02h43.43c30.31,0,49.21,18.75,49.21,48.59v27.81c0,29.84-18.9,48.59-49.21,48.59h-40.77v-5c0-3.44,2.81-5.94,6.41-5.94h34.37c22.96,0,37.49-14.53,37.49-37.65Z"/>
      <path class="cls-2" d="m922.3,505.06h5.78c3.44,0,5.94,2.81,5.94,6.41v112.17c0,3.59-2.5,6.41-5.78,6.41h-5.94v-124.98Z"/>
      <path class="cls-2" d="m948.07,551.15c0-29.84,18.9-48.59,49.21-48.59s49.21,18.75,49.21,48.59v32.81c0,29.84-18.9,48.59-49.21,48.59s-49.21-18.75-49.21-48.59v-32.81Zm49.21,70.46c22.96,0,37.49-14.53,37.49-37.65v-32.81c0-23.12-14.53-37.65-37.49-37.65s-37.49,14.53-37.49,37.65v32.81c0,23.12,14.53,37.65,37.49,37.65Z"/>
    </g>
    <g>
      <path class="cls-2" d="m535.18,684.34v1.03c-.8.15-1.49.36-2.06.64-.57.28-1.07.64-1.5,1.09-.43.45-.81.98-1.13,1.61s-.66,1.34-.99,2.14l-13.23,32.29h-1.03l-14.21-32.7c-.75-1.72-1.26-2.74-1.54-3.08-.47-.58-1.03-1.03-1.71-1.36-.67-.33-1.59-.54-2.77-.63v-1.03h15.5v1.03c-.9.09-1.62.21-2.17.36-.55.15-.97.33-1.27.55-.3.21-.5.46-.6.73-.1.27-.15.57-.15.91,0,.95.43,2.41,1.29,4.36l9.65,22.24,8.95-21.96c.88-2.18,1.31-3.68,1.31-4.5,0-.58-.3-1.12-.91-1.64-.61-.51-1.65-.86-3.12-1.05v-1.03h11.69Z"/>
      <path class="cls-2" d="m563.37,683.47c4.91,0,9.17,1.87,12.79,5.62,3.62,3.73,5.43,8.39,5.43,13.99s-1.82,10.55-5.46,14.35c-3.64,3.81-8.04,5.71-13.2,5.71s-9.63-1.86-13.18-5.57c-3.54-3.71-5.32-8.51-5.32-14.41s2.05-10.94,6.15-14.74c3.56-3.3,7.82-4.95,12.79-4.95Zm-.53,2.04c-1.92,0-3.63.41-5.12,1.23s-2.75,1.99-3.76,3.51c-1.02,1.52-1.79,3.36-2.32,5.53-.53,2.16-.8,4.59-.8,7.27s.26,5.11.78,7.33c.52,2.22,1.29,4.13,2.31,5.72,1.02,1.59,2.27,2.84,3.76,3.72,1.49.89,3.22,1.33,5.18,1.33,1.75,0,3.38-.34,4.88-1.01,1.5-.67,2.8-1.71,3.9-3.12,1.1-1.41,1.96-3.2,2.59-5.39.62-2.18.94-4.78.94-7.81s-.26-5.47-.77-7.74c-.51-2.27-1.29-4.18-2.32-5.75-1.03-1.57-2.32-2.76-3.86-3.59s-3.33-1.25-5.39-1.25Z"/>
      <path class="cls-2" d="m608,721.24v1.03h-16.25v-1.03h1.34c1.58,0,2.72-.46,3.41-1.37.45-.58.67-2.01.67-4.31v-24.51c0-.89-.02-1.62-.06-2.18s-.11-1.02-.21-1.39c-.1-.36-.25-.65-.45-.85s-.46-.4-.8-.59c-.82-.45-1.68-.67-2.57-.67h-1.34v-1.03h16.25v1.03h-1.37c-1.57,0-2.7.46-3.39,1.37-.47.58-.7,2.01-.7,4.31v24.51c0,.9.02,1.62.06,2.18s.11,1.02.21,1.37c.1.35.26.64.46.85.2.21.48.42.81.6.8.45,1.65.67,2.55.67h1.37Z"/>
      <path class="cls-2" d="m639.32,701.26l8.14,12.14c1.14,1.7,2.12,3.07,2.95,4.13.83,1.05,1.52,1.8,2.06,2.25,1.08.88,2.47,1.36,4.17,1.45v1.03h-16.28v-1.03c1.29-.04,2.23-.23,2.84-.59.61-.35.91-.88.91-1.57,0-.24,0-.43.01-.57,0-.14-.04-.32-.14-.55-.1-.22-.28-.53-.53-.92s-.63-.96-1.13-1.71l-6.43-9.74-7.95,10.18c-.45.56-.79,1.01-1.02,1.34-.23.34-.41.62-.52.84-.11.22-.18.42-.2.57-.02.16-.03.34-.03.55,0,.3.06.57.17.83.11.25.31.47.59.66.28.19.65.34,1.12.46.47.12,1.05.19,1.76.21v1.03h-13.46v-1.03c1.17-.09,2.21-.37,3.12-.84.9-.47,1.79-1.03,2.64-1.71,1.06-.84,2.26-2.1,3.58-3.78l8.95-11.3-7.47-10.94c-2.05-2.97-3.78-4.9-5.18-5.82-1.44-.93-3.07-1.43-4.9-1.48v-1.03h17.54v1.03c-.75.04-1.37.12-1.87.25-.5.13-.9.29-1.2.49-.3.2-.51.42-.63.66-.12.24-.18.49-.18.76,0,.71.45,1.72,1.34,3.02l5.82,8.7,6.74-8.53c.41-.52.73-.94.97-1.26.23-.32.41-.59.52-.81.11-.22.18-.42.2-.59.02-.17.03-.35.03-.56,0-.43-.14-.81-.42-1.15-.28-.34-.61-.57-.98-.7-.21-.07-.53-.13-.98-.18-.45-.05-1.01-.08-1.68-.1v-1.03h13.46v1.03c-.63.04-1.2.12-1.71.24-.5.12-.97.28-1.38.46-.42.19-.82.41-1.19.67-.37.26-.74.55-1.09.87-.8.71-1.99,2.05-3.55,4.03l-7.53,9.62Z"/>
      <path class="cls-2" d="m685.68,722.27v-1.03h1.43c1.58,0,2.72-.51,3.41-1.54.41-.6.62-1.98.62-4.14v-24.51c0-2.39-.26-3.87-.78-4.45-.73-.82-1.81-1.23-3.25-1.23h-1.43v-1.03h15.44c5.67,0,9.98.64,12.93,1.93,2.97,1.29,5.34,3.43,7.13,6.43,1.81,2.98,2.71,6.45,2.71,10.41,0,2.8-.45,5.37-1.36,7.72-.9,2.35-2.25,4.37-4.03,6.06-1.78,1.69-4,3.01-6.66,3.96s-5.73,1.43-9.22,1.43h-16.95Zm10.83-2.74c2.33.52,4.32.78,5.96.78,2.14,0,4.14-.4,5.97-1.19,1.84-.79,3.43-1.92,4.77-3.39,1.34-1.46,2.4-3.24,3.16-5.33.76-2.09,1.15-4.43,1.15-7.02s-.38-4.96-1.13-7.05c-.76-2.09-1.81-3.86-3.16-5.33-1.35-1.46-2.97-2.59-4.84-3.37s-3.92-1.17-6.14-1.17c-.84,0-1.73.07-2.69.21s-1.97.34-3.05.6v32.26Z"/>
      <path class="cls-2" d="m739.26,697.96v-1.31c.84-.5,1.55-.97,2.14-1.41.59-.44,1.07-.88,1.44-1.33.37-.45.64-.91.81-1.4.17-.48.25-1.02.25-1.59s-.11-1.03-.32-1.3-.45-.41-.71-.41c-.11,0-.26.02-.43.07-.18.05-.36.1-.56.15-.2.06-.39.11-.57.15-.19.05-.34.07-.45.07-.37,0-.73-.07-1.08-.22-.35-.15-.65-.35-.91-.62s-.47-.57-.63-.92c-.16-.35-.24-.75-.24-1.18,0-.54.11-1.01.32-1.41s.49-.74.84-1.01c.34-.27.74-.48,1.17-.62.44-.14.88-.21,1.33-.21.62,0,1.22.15,1.8.43.59.29,1.11.68,1.55,1.18s.81,1.08,1.09,1.75c.28.67.42,1.39.42,2.15,0,.9-.14,1.78-.42,2.64-.28.87-.71,1.69-1.3,2.48-.59.78-1.34,1.51-2.25,2.17-.91.66-2.01,1.23-3.3,1.69Z"/>
      <path class="cls-2" d="m784.43,709.57h-14.69l-2.57,5.99c-.63,1.45-.95,2.56-.95,3.3,0,.3.05.57.15.83.1.25.31.49.63.7.32.21.76.39,1.34.53.58.14,1.33.25,2.27.32v1.03h-11.95v-1.03c1.57-.28,2.59-.64,3.08-1.09.48-.45.98-1.12,1.5-2.03.51-.9,1.07-2.05,1.66-3.43l13.34-31.22h.98l13.2,31.56c.54,1.31,1.04,2.35,1.5,3.15.46.79.93,1.41,1.41,1.85.48.44,1.01.74,1.58.91s1.25.27,2.03.31v1.03h-14.97v-1.03c.75-.04,1.37-.12,1.87-.25.5-.13.9-.3,1.19-.5.29-.21.49-.44.62-.7.12-.26.18-.55.18-.87.02-.41-.07-.94-.27-1.58-.2-.64-.48-1.41-.85-2.31l-2.29-5.46Zm-.78-2.07l-6.43-15.33-6.6,15.33h13.04Z"/>
      <path class="cls-2" d="m817.85,686.41v14.91h6.91c.8,0,1.49-.07,2.06-.22.57-.15,1.05-.42,1.44-.81s.7-.92.92-1.59c.22-.67.4-1.53.53-2.57h1.04v12.84h-1.04c-.02-.95-.11-1.76-.28-2.43-.17-.67-.44-1.22-.81-1.65s-.87-.74-1.5-.94-1.41-.29-2.36-.29h-6.91v11.92c0,.9.02,1.62.06,2.18s.11,1.02.21,1.37c.1.35.26.64.46.85s.48.42.81.6c.8.45,1.66.67,2.57.67h1.37v1.03h-16.28v-1.03h1.34c1.58,0,2.72-.46,3.41-1.37.45-.58.67-2.01.67-4.31v-24.51c0-.89-.02-1.62-.06-2.18s-.11-1.02-.21-1.39c-.1-.36-.25-.65-.45-.85s-.46-.4-.8-.59c-.82-.45-1.68-.67-2.57-.67h-1.34v-1.03h28.23v8.34h-.62c-.37-1.36-.79-2.45-1.24-3.27-.46-.82-1.02-1.45-1.68-1.9-.66-.45-1.44-.74-2.34-.88-.89-.14-1.96-.21-3.19-.21h-8.37Z"/>
      <path class="cls-2" d="m883.24,722.27h-10.13l-12.84-17.74c-.49.02-.92.03-1.3.04-.38,0-.72.01-1.02.01-.24,0-.5,0-.78-.01-.28,0-.57-.02-.87-.04v11.02c0,2.39.26,3.87.78,4.45.71.82,1.77,1.23,3.19,1.23h1.48v1.03h-16.25v-1.03h1.43c1.58,0,2.73-.52,3.44-1.57.39-.58.59-1.95.59-4.11v-24.51c0-2.39-.26-3.87-.78-4.45-.73-.82-1.81-1.23-3.25-1.23h-1.43v-1.03h13.82c3.99,0,6.96.3,8.9.9.95.28,1.84.7,2.67,1.26.83.56,1.56,1.22,2.18,1.99s1.12,1.62,1.48,2.57.55,1.97.55,3.05c0,1.17-.19,2.27-.56,3.29-.37,1.02-.95,1.94-1.72,2.78-.77.84-1.75,1.57-2.92,2.18-1.18.62-2.56,1.1-4.14,1.45l7.83,10.88c1.81,2.52,3.35,4.18,4.62,4.98,1.3.82,2.98,1.34,5.04,1.57v1.03Zm-26.94-19.5c.35,0,.66,0,.92.01s.48.01.64.01c1.81,0,3.4-.21,4.77-.63,1.37-.42,2.51-1,3.43-1.75.91-.75,1.6-1.63,2.06-2.64.46-1.02.69-2.12.69-3.32s-.2-2.25-.59-3.23c-.39-.98-.95-1.82-1.66-2.53-.72-.71-1.58-1.26-2.57-1.65-1-.39-2.09-.59-3.29-.59-.54,0-1.17.04-1.9.13-.73.08-1.56.22-2.49.41v15.78Z"/>
      <path class="cls-2" d="m906.95,721.24v1.03h-16.25v-1.03h1.34c1.58,0,2.72-.46,3.41-1.37.45-.58.67-2.01.67-4.31v-24.51c0-.89-.02-1.62-.06-2.18s-.11-1.02-.21-1.39c-.1-.36-.25-.65-.45-.85s-.46-.4-.8-.59c-.82-.45-1.68-.67-2.57-.67h-1.34v-1.03h16.25v1.03h-1.37c-1.57,0-2.7.46-3.39,1.37-.47.58-.7,2.01-.7,4.31v24.51c0,.9.02,1.62.06,2.18s.11,1.02.21,1.37c.1.35.26.64.46.85.2.21.48.42.81.6.8.45,1.65.67,2.55.67h1.37Z"/>
      <path class="cls-2" d="m940.12,722.69c1.92,3.32,3.97,5.74,6.15,7.25,2.22,1.55,4.74,2.43,7.55,2.66v.9c-2.54-.07-5.29-.6-8.25-1.57-2.89-.91-5.67-2.22-8.34-3.92-2.57-1.64-4.83-3.41-6.77-5.32-2.69-1.08-4.81-2.23-6.38-3.44-2.31-1.81-4.09-4.03-5.33-6.66-1.24-2.63-1.86-5.75-1.86-9.37,0-5.65,1.84-10.36,5.51-14.13,3.66-3.75,8.1-5.62,13.34-5.62s9.27,1.88,12.87,5.65c1.81,1.9,3.17,4.02,4.08,6.36.91,2.34,1.37,4.96,1.37,7.85,0,4.66-1.3,8.74-3.89,12.23-2.57,3.51-5.93,5.89-10.07,7.13Zm-4.7-37.07c-1.92,0-3.63.39-5.13,1.17-1.5.78-2.77,1.93-3.8,3.43-1.04,1.5-1.82,3.34-2.36,5.53-.54,2.18-.81,4.67-.81,7.47,0,2.65.26,5.07.78,7.27.52,2.2,1.29,4.1,2.31,5.69,1.02,1.59,2.28,2.84,3.79,3.72,1.51.89,3.25,1.33,5.23,1.33s3.64-.39,5.15-1.16c1.51-.77,2.79-1.9,3.85-3.37,1.05-1.47,1.86-3.28,2.42-5.41s.84-4.56.84-7.26c0-3.02-.29-5.68-.88-7.97s-1.42-4.21-2.5-5.76c-1.08-1.55-2.37-2.71-3.88-3.5-1.5-.78-3.17-1.17-4.99-1.17Z"/>
      <path class="cls-2" d="m990.12,685.37v-1.03h13.43v1.03h-1.43c-1.49,0-2.64.63-3.44,1.87-.39.6-.59,1.94-.59,4.03v15.39c0,3.79-.38,6.74-1.15,8.87-.49,1.36-1.17,2.52-2.07,3.48s-1.93,1.75-3.11,2.36c-1.17.62-2.47,1.07-3.88,1.36s-2.88.43-4.41.43c-4.12,0-7.26-.72-9.43-2.15-1.36-.89-2.41-1.84-3.15-2.84-.74-1-1.28-2.1-1.62-3.3-.35-1.2-.55-2.54-.6-4-.06-1.46-.08-3.13-.08-4.99v-14.83c0-1.17-.08-2.13-.24-2.88-.16-.75-.41-1.32-.74-1.73-.34-.41-.76-.69-1.27-.84-.51-.15-1.12-.22-1.83-.22h-1.43v-1.03h16.39v1.03h-1.45c-.9,0-1.61.13-2.15.38-.54.25-.95.62-1.23,1.11-.28.49-.46,1.08-.55,1.79s-.13,1.51-.13,2.41v16.53c0,.93.03,1.86.08,2.77s.17,1.8.34,2.64c.17.85.4,1.65.69,2.41s.67,1.45,1.13,2.08c.73,1.01,1.7,1.8,2.92,2.39,1.22.59,2.78.88,4.69.88,1.23,0,2.41-.14,3.54-.43s2.16-.69,3.11-1.2c.94-.51,1.76-1.12,2.45-1.82.69-.7,1.21-1.47,1.57-2.31.73-1.7,1.09-4.56,1.09-8.59v-15.36c0-2.39-.26-3.87-.78-4.45-.73-.82-1.81-1.23-3.25-1.23h-1.43Z"/>
      <path class="cls-2" d="m1022.67,686.41v14.99h8.34c1.21,0,2.2-.11,2.95-.32s1.35-.55,1.78-1.01c.43-.46.73-1.03.9-1.72.17-.69.28-1.51.34-2.46h1.04v13.2h-1.04c-.13-.93-.26-1.69-.39-2.28s-.26-1.01-.39-1.27c-.17-.34-.38-.63-.64-.88-.26-.25-.6-.47-1.01-.66-.41-.19-.9-.33-1.48-.42-.58-.09-1.26-.14-2.04-.14h-8.34v12.51c0,1.66.07,2.69.22,3.08.07.17.17.33.28.48.11.15.28.28.49.38.21.1.49.18.84.24.35.06.78.08,1.3.08h6.43c1.1,0,2.02-.03,2.76-.1.74-.06,1.38-.18,1.93-.34s1.04-.38,1.45-.67c.42-.29.86-.66,1.33-1.11.58-.56,1.17-1.28,1.76-2.15.6-.88,1.19-1.9,1.79-3.08h1.12l-3.27,9.51h-29.24v-1.03h1.34c.35,0,.73-.04,1.12-.11.39-.07.76-.2,1.11-.36.34-.17.66-.38.94-.63.28-.25.48-.55.59-.88.22-.58.34-1.8.34-3.66v-24.65c0-2.39-.24-3.87-.73-4.45-.67-.75-1.79-1.12-3.36-1.12h-1.34v-1.03h29.24v8.31h-.67c-.21-1.01-.41-1.84-.62-2.49s-.44-1.19-.7-1.62c-.26-.43-.56-.77-.9-1.02-.34-.25-.74-.48-1.2-.69-.77-.28-2.08-.42-3.94-.42h-10.41Z"/>
    </g>
    <line class="cls-1" x1="494.73" y1="658.01" x2="1044.38" y2="658.01"/>
  </g>
</svg>